<svg id="图层_1" data-name="图层 1" xmlns="http://www.w3.org/2000/svg" viewBox="0 0 155.45 89.26"><defs><style>.cls-1{fill:#00229f;}.cls-2{fill:#fff;}</style></defs><ellipse class="cls-1" cx="77.73" cy="44.63" rx="77.73" ry="44.63"/><path class="cls-2" d="M25.22,96.74l.41,1.59a2.76,2.76,0,0,0,2.66,2l102.37-.08.08-2.15,7.73-4.24-21.83,0-2.76,1.38h-17l-2.67-3.94-2.21,0,.06,2.28H87.71l-1.08-4.45-3.27,0v-3H78.7V82.07H77.3v2.44l-.87,0V81.93h-.71v3.65l1.08,0L76.66,92l-5.89,0,0-2.15-5.51,0,.24.58a2.62,2.62,0,0,1-.47,2.78l-.72.8-9.61.11V92.28h.62v-.67l-2.55,0,0-.35H52l-.65,1.5.86,0,0,1.28-7.12,0-1,2.65Z" transform="translate(-1.83 -32.24)"/><path class="cls-2" d="M50.07,72.71,49,76.07a3.43,3.43,0,0,1-3.25,2.37l-17.61.15A2.78,2.78,0,0,1,25.46,75l4.19-12.81a6.06,6.06,0,0,1,1.06-2l4.45-6.26A3.83,3.83,0,0,1,38.3,52.3l16.53.06a1.33,1.33,0,0,1,1.26,1.76L53.65,61.2l-4.23,0a.53.53,0,0,1-.45-.8l1.14-1.9a1.33,1.33,0,0,0-.51-1.84h0a3.66,3.66,0,0,0-4.56.9l-3.26,4c-2.1,2.57-3.35,6.37-2.23,9.5l.81,1.26c1.31,1.23,2.4,1.9,3.91,1.64l3.64-.6c.39-.09,1.06-.76,1.45-.7Z" transform="translate(-1.83 -32.24)"/><path class="cls-2" d="M59.55,72.31H55.19a.94.94,0,0,0-.88.61l-1.08,2.77a1.86,1.86,0,0,0,1.68,2.53l18.68.12a3.73,3.73,0,0,0,3.62-2.72L79,69.17a2.45,2.45,0,0,0-1.27-2.82L72,63.46a2.62,2.62,0,0,1-.86-3.83l1.13-1.57a3.45,3.45,0,0,1,4.53-1l.18.1a1.14,1.14,0,0,1,.52,1.48l-.73,1.62a.63.63,0,0,0,.59.9l3.69,0a1.09,1.09,0,0,0,1-.78L84,54a1.1,1.1,0,0,0-1-1.41l-18.08,0a1.26,1.26,0,0,0-1,.52l-6.53,8.75-1.37,3.69a2.16,2.16,0,0,0,2,2.91h7.69a1.63,1.63,0,0,1,1.57,2l-.66,2.52a1.06,1.06,0,0,1-1,.8H59.7Z" transform="translate(-1.83 -32.24)"/><path class="cls-2" d="M99.64,54.29,93.21,76.85a2.08,2.08,0,0,1-2,1.51H82.56a1.39,1.39,0,0,1-1.34-1.77L85.3,61.94A7.6,7.6,0,0,1,87,58.88l5.31-5.94A2.28,2.28,0,0,1,94,52.19l4.12.06A1.6,1.6,0,0,1,99.64,54.29Z" transform="translate(-1.83 -32.24)"/><path class="cls-2" d="M128.83,52.43H110.72a3.23,3.23,0,0,0-2.55,1.25l-4.29,5.49a16.14,16.14,0,0,0-2.78,5.5L97.9,76a1.84,1.84,0,0,0,1.77,2.34h18.44a4,4,0,0,0,3.77-2.74l1-3.11-1-.29h-.14l-4.83,1.44a4.8,4.8,0,0,1-2.75-.07,1,1,0,0,1-.38-.22l-.95-.91c-1-1-1.17-5.06-.4-7.44l.72-1.54c1.34-3,3.24-5.61,6.23-7h0a2.43,2.43,0,0,1,2.58.36h0a1.9,1.9,0,0,1,.27,2.62l-1.4,1.78,3.64.13A2.53,2.53,0,0,0,127,59.45Z" transform="translate(-1.83 -32.24)"/></svg>