<svg id="图层_1" data-name="图层 1" xmlns="http://www.w3.org/2000/svg" viewBox="0 0 155.97 155.97"><defs><style>.cls-1,.cls-2,.cls-3{fill:none;}.cls-1,.cls-2,.cls-3,.cls-4{stroke:blue;}.cls-1{stroke-width:3.05px;}.cls-2{stroke-width:2px;}.cls-4{fill:blue;}.cls-5{fill:#180aff;}.cls-6{fill:#3535ff;}.cls-7{fill:#0014f4;}</style></defs><circle class="cls-1" cx="77.99" cy="77.99" r="76.46"/><circle class="cls-2" cx="77.99" cy="77.99" r="50.48"/><circle class="cls-3" cx="77.99" cy="77.99" r="36.6"/><polygon class="cls-4" points="25.13 89.23 113 35.67 61.23 88.63 25.13 89.23"/><polygon class="cls-4" points="66.98 107.87 114.58 37.85 62.81 89.23 66.98 107.87"/><path class="cls-4" d="M59,109.55c5.08,0,13.69.8,22.31-4.86,7.58-5,7.26-9.59,12.8-15.32,2.08-2.16,7.81-1.23,9.55,2.34,1.57,3.2-1.08,8.9-6.17,5.58-1.71-1.12-2.6-.74-2,1.86,1.25,5.15,9.87,1.93,11.86-.26,4.88-5.36,7.82-12.69,7.92-12.65s-2.6,15.29-15.64,23.66a36.69,36.69,0,0,1-32.43,3.82C66.36,113.38,57.42,109.55,59,109.55Z" transform="translate(-1.4 -1.38)"/><path class="cls-5" d="M56.43,120.62l.87.44a1.8,1.8,0,0,0,1.43.22,2,2,0,0,0,1-1.09l1.91-3.8a4,4,0,0,0,.38-.93,1.06,1.06,0,0,0,0-.61,2,2,0,0,0-1.05-1l-.65-.33.11-.22a11,11,0,0,0,1.4.54,6.8,6.8,0,0,0,1.21.29,10.3,10.3,0,0,0,1.3.07l.41.2-3.45,6.85a1.52,1.52,0,0,0,.84,2.28l.81.41-.11.23-6.53-3.3Z" transform="translate(-1.4 -1.38)"/><path class="cls-5" d="M74.74,123.52,75,122h0a2.65,2.65,0,0,1-1.13.8,3,3,0,0,1-1.42.09,3.5,3.5,0,0,1-1.23-.41,3.35,3.35,0,0,1-1-.78,3.15,3.15,0,0,1-.56-1,2.62,2.62,0,0,1-.08-1.15,2.84,2.84,0,0,1,.72-1.52,3.3,3.3,0,0,1,1.51-.91,4.57,4.57,0,0,1,2-.12,4,4,0,0,1,2.08,1,4.1,4.1,0,0,1,1.23,1.94,5.7,5.7,0,0,1,.15,2.59,5,5,0,0,1-1.91,3.42,4.48,4.48,0,0,1-1.62.77,4.7,4.7,0,0,1-1.79.08,3,3,0,0,1-2.08-1.13,1.72,1.72,0,0,1-.39-1.33,1.22,1.22,0,0,1,.43-.78,1.08,1.08,0,0,1,.82-.21,1.13,1.13,0,0,1,.75.42,1,1,0,0,1,.2.8,1,1,0,0,1-.23.52,1.35,1.35,0,0,1-.56.31c-.24.08-.37.17-.38.28s.1.34.39.51a2.91,2.91,0,0,0,1,.35,2.06,2.06,0,0,0,1.9-.57A4.27,4.27,0,0,0,74.74,123.52Zm-.85-6.29a1.47,1.47,0,0,0-1.45.46,2.33,2.33,0,0,0-.31.55c0,.11-.08.25-.13.42s-.09.41-.14.69-.09.53-.12.74a6.09,6.09,0,0,0-.09,1.1,2.3,2.3,0,0,0,.17.74,1.3,1.3,0,0,0,1.07.71,1.76,1.76,0,0,0,1.38-.31,2.05,2.05,0,0,0,.63-.78,5,5,0,0,0,.35-1.31,5.4,5.4,0,0,0,0-1.58,1.7,1.7,0,0,0-.46-1A1.6,1.6,0,0,0,73.89,117.23Z" transform="translate(-1.4 -1.38)"/><path class="cls-5" d="M86.4,121.36v0a7,7,0,0,1,1.59.11,3.9,3.9,0,0,1,1.05.38,2.18,2.18,0,0,1,.71.63,2.06,2.06,0,0,1,.34.85,2.12,2.12,0,0,1-.32,1.5,3.58,3.58,0,0,1-1.4,1.2,7.41,7.41,0,0,1-3.69.8,4,4,0,0,1-1.18-.19,2.15,2.15,0,0,1-.84-.58,1.59,1.59,0,0,1-.42-.81,1.17,1.17,0,0,1,.19-.88,1.07,1.07,0,0,1,.76-.46,1,1,0,0,1,1.25.87,1,1,0,0,1,0,.52,1.66,1.66,0,0,1-.37.49c-.17.15-.25.27-.23.37s.25.34.67.4a4.54,4.54,0,0,0,1.5,0,2.57,2.57,0,0,0,1.71-.85,2.4,2.4,0,0,0,.23-1.93A2.81,2.81,0,0,0,87,122a2.14,2.14,0,0,0-1.64-.27,9.17,9.17,0,0,0-.91.2,2,2,0,0,1-.35.09c-.26,0-.4,0-.43-.18s.11-.25.4-.3l.45,0a6.48,6.48,0,0,0,.8-.08,2.08,2.08,0,0,0,.94-.35,1.13,1.13,0,0,0,.42-.7,3.09,3.09,0,0,0,0-1.17,3.7,3.7,0,0,0-.19-.73,3,3,0,0,0-.29-.57,1.57,1.57,0,0,0-.38-.39,1.85,1.85,0,0,0-1.39-.24,4.47,4.47,0,0,0-.94.27,2.58,2.58,0,0,0-.67.42.53.53,0,0,0-.21.43.25.25,0,0,0,.1.17,1.18,1.18,0,0,0,.28.14,1.22,1.22,0,0,1,.52.29,1,1,0,0,1,.23.52,1,1,0,0,1-.18.77,1,1,0,0,1-.68.41,1.05,1.05,0,0,1-.83-.19,1.11,1.11,0,0,1-.45-.73,1.76,1.76,0,0,1,.26-1.24,3,3,0,0,1,1.13-1,5.86,5.86,0,0,1,1.8-.58,5.33,5.33,0,0,1,1.91,0,2.8,2.8,0,0,1,1.38.63,2,2,0,0,1,.64,1.2,2,2,0,0,1-.05.88,1.94,1.94,0,0,1-.46.76,3.38,3.38,0,0,1-1.13.71Z" transform="translate(-1.4 -1.38)"/><path class="cls-5" d="M95.94,119a4.25,4.25,0,0,1-1.91-.24,2.19,2.19,0,0,1-1.08-1.1,2.37,2.37,0,0,1-.23-1.49,2.78,2.78,0,0,1,.75-1.42,5.7,5.7,0,0,1,1.64-1.17,3.72,3.72,0,0,1,2.85-.41,1.81,1.81,0,0,1,.69.38,1.92,1.92,0,0,1,.47.6,1.62,1.62,0,0,1,.19.82,2,2,0,0,1-.24.88,5.41,5.41,0,0,1-.73,1,6.08,6.08,0,0,1,1.91,0,2.26,2.26,0,0,1,1.88,2.12,2.42,2.42,0,0,1-.13.92,5,5,0,0,1-2.71,2.59,8,8,0,0,1-1.72.63,4.14,4.14,0,0,1-1.49.1,1.79,1.79,0,0,1-1.45-1,1.77,1.77,0,0,1-.18-1,2.44,2.44,0,0,1,.41-1.06A9,9,0,0,1,95.94,119Zm2-2.08a2.17,2.17,0,0,0,.27-1.06,2.68,2.68,0,0,0-.3-1.09,2,2,0,0,0-1.18-1.15,2.32,2.32,0,0,0-1.69.26,3.62,3.62,0,0,0-1.06.74,1.94,1.94,0,0,0-.51.89,1.29,1.29,0,0,0,.12.9,1.28,1.28,0,0,0,.34.45,1.34,1.34,0,0,0,.49.25,2.61,2.61,0,0,0,.47.08,14.36,14.36,0,0,0,2.21-.16ZM96.26,119a4,4,0,0,0-.44.88,1.87,1.87,0,0,0-.08.84,2.7,2.7,0,0,0,.27.87q.93,1.89,3.32.72a4,4,0,0,0,1.15-.82,2.38,2.38,0,0,0,.58-1,1.37,1.37,0,0,0-.09-1,1.2,1.2,0,0,0-.77-.66,3.3,3.3,0,0,0-.49-.09c-.42,0-.91,0-1.47,0l-.5,0-.48.05-.35,0-.32,0Z" transform="translate(-1.4 -1.38)"/><path class="cls-6" d="M23.63,126.77l-.4-.37c-.63-.93-.59-1.59.13-2a1.63,1.63,0,0,1,.37-.19,2.27,2.27,0,0,1,.59-.23,1.47,1.47,0,0,1,.55.11,1.07,1.07,0,0,0,.77.06c-.49-.27-.41-.9.24-1.87a.56.56,0,0,1,.14-.26q.59-.63.24-1c-.44-.13-1,.18-1.81,1a2.43,2.43,0,0,0-.6.75,5.43,5.43,0,0,0-.53,1.08c-.14,0-.29,0-.42.26s-.36.33-.43.26a6.21,6.21,0,0,1,1.29-4,3.78,3.78,0,0,1,3-1.66l-.13.15a.37.37,0,0,1,.38.09.58.58,0,0,1-.11.42,3.68,3.68,0,0,0-2.25,1.84,3.09,3.09,0,0,1,1.21-.71c.09-.44.47-.71,1.12-.8.07,0,.16,0,.26.11a.47.47,0,0,0,.27.11c.1.1.26,0,.49-.33l.13-.14a21,21,0,0,1,2-1.32c.45-.28.76-.35.93-.19s.08.21.05.44,0,.38.06.44a.68.68,0,0,1-.49.33c0-.56-.37-.6-1-.13a11.83,11.83,0,0,0-1.27,1.18l.84.51a5.26,5.26,0,0,1,1.67-.81,5.41,5.41,0,0,1,1.37-.17,4.37,4.37,0,0,0,.91-.08,1.54,1.54,0,0,0,.3-.12q.24-.17.39,0c.2.19.2.53,0,1a5.63,5.63,0,0,1-1.7,1.84A1.77,1.77,0,0,1,33.41,124c0,.61-.45,1.24-1.35,1.88-2.11,1.55-3.69,2.18-4.74,1.91a1.25,1.25,0,0,1-1.48.2A8,8,0,0,1,23.63,126.77Zm4.07-.17-.16.38c.51.38,1.45.11,2.8-.82,1.19-.82,1.53-1.46,1-1.92a2.56,2.56,0,0,0-.84-.51,9.54,9.54,0,0,1-5.1,1.3,4.65,4.65,0,0,0,1.38,1A9.31,9.31,0,0,0,27.7,126.6Zm-2.16-2.51.1.09.35-.07A6.35,6.35,0,0,0,29.5,123l-1.88-1.2c-.1-.09-.35.15-.76.73l-.15.26A2.66,2.66,0,0,1,25.54,124.09Zm11.82-3.73L37,120a3,3,0,0,0-1.62-.58,2.64,2.64,0,0,1-1.71-.66l.13-.14,1.59-.11A18.1,18.1,0,0,0,28.94,115l-.33,0c-.56-.07-.88-.19-1-.36s.06-.47.45-.89l.07-.08a.3.3,0,0,1,.29-.11c.07.06.26.06.56,0a2.6,2.6,0,0,1,.57,0l1.8.87a30,30,0,0,1,3.19,1.9,37.34,37.34,0,0,1,3,2.27c0,.15.08.34.32.56.39.44.51.82.36,1.11C37.9,120.51,37.6,120.57,37.36,120.36Zm-7.6.57a4.35,4.35,0,0,0,.84.51,5.58,5.58,0,0,0,.73.41l.13-.14a3.26,3.26,0,0,0,1.43-1.55A4.39,4.39,0,0,0,29.76,120.93Z" transform="translate(-1.4 -1.38)"/><path class="cls-6" d="M52.69,133.42l-.18.34a25.23,25.23,0,0,0-2.63.55,3.79,3.79,0,0,0-.82,1.53l-.45.84c-.68,1.16-.83,2-.46,2.59.91.92,1.67,1,2.3.36a2.57,2.57,0,0,0,.07-1.59,3.38,3.38,0,0,1,0-.56l.36.2-.06-.47a.23.23,0,0,0,.14.18c.31.38.63.52.95.4a2.19,2.19,0,0,1,0,1.51,5.59,5.59,0,0,1-1.39,1.43,4.3,4.3,0,0,0-.8.34,2.71,2.71,0,0,1-.59.23,2,2,0,0,1-.46,0,1.93,1.93,0,0,0-.45,0l-.6-.32a2,2,0,0,1-1-1.62,5.42,5.42,0,0,1,.85-3l1.09-2c-1.16.32-2,.57-2.49.73s-.69.18-1,.24l-.09.17,1.21-.23.12.07-.76.25a5.81,5.81,0,0,0-2.2,1.21.44.44,0,0,1-.4,0l-.18-.1a6.33,6.33,0,0,0-1.66.63c-.31.2-.5.32-.57.35l-.12-.07a1.29,1.29,0,0,1-.32-.27c-.41-.3-.55-.62-.41-1,.86-1.51,1.76-2.11,2.69-1.83l0,.64a1.13,1.13,0,0,0,1.27-.63l1.64-3.05a1.49,1.49,0,0,1-.46,0,1,1,0,0,0-1.18.46,1.2,1.2,0,0,1-.21-.77s0-.1,0-.23a1.63,1.63,0,0,1,.19-1.21c1.05-1.11,1.82-1,2.29.36.24.13.48-.22.71-1l.14-.25a4.31,4.31,0,0,0,1.12-1.8c.44-.63.89-.9,1.36-.8.26.29.21.77-.16,1.45a.86.86,0,0,1-.4.32.88.88,0,0,0-.2.22,2.16,2.16,0,0,0-.33.48,4.58,4.58,0,0,1-.52.81,5.45,5.45,0,0,1-.89,1.81c-.28.43-.47.73-.56.9s-.27.55-.44,1a6.7,6.7,0,0,1-1.1,1.92l4-1.12a.69.69,0,0,0,.31-.27l1.18-2.2A6.39,6.39,0,0,1,51,129.9c.25-.37.48-.69.67-1A3.4,3.4,0,0,0,52,128c0-.06.14-.21.33-.48a4.62,4.62,0,0,1,.46-.41,1.14,1.14,0,0,1,.54-.14,1.12,1.12,0,0,1,.15,1.17,10.53,10.53,0,0,1-1,1.43,12,12,0,0,0-1,1.42L51,132.28a2.78,2.78,0,0,0,1-.2c.68-.3,1.13-.38,1.38-.25a.88.88,0,0,1,.45.9A1.4,1.4,0,0,1,52.69,133.42Zm-8,2.23q.27-.08.3-.27A.67.67,0,0,0,44.66,135.65Z" transform="translate(-1.4 -1.38)"/><path class="cls-6" d="M70,141l-.18,1.14c-.53,2.44-1.36,3.61-2.5,3.49a1,1,0,0,1-.82-.91c-.41-.06-1,.23-1.74.89a4.34,4.34,0,0,1-.86.64l.54.09a9.08,9.08,0,0,0,3.27-.07,13,13,0,0,1,3.26-.06l.68.11c.29.17.42.58.36,1.22a1.8,1.8,0,0,1-1.13,1,11.71,11.71,0,0,1-2.69,0l-.91.05c-.61,0-1.12,0-1.54,0a8.41,8.41,0,0,1-1.09-.08l-.54-.09c-.9-.2-1.31-.49-1.25-.87l.3-1c.07-.18.34-.39.8-.65l.16-.17q.09-.08.33-.33c1.13-1,2-1.44,2.57-1.34l.54.08c.45.07.81-.45,1.09-1.58a3.47,3.47,0,0,0-.48-2.21,2.79,2.79,0,0,0-.31-.24.63.63,0,0,1-.25-.63,4.08,4.08,0,0,1,1.94-2.61,1.53,1.53,0,0,0,.46-.31l1.43-1.14,0-.19a.86.86,0,0,1-.42,0c-1.45.09-3,.26-4.79.5-.61,0-.9-.21-.86-.72.19-.94.87-1.42,2-1.43a.59.59,0,0,0,.24.23c.19.23.36.32.51.28l.68.11.27,0a7.54,7.54,0,0,1,1,0,8.86,8.86,0,0,0,1.65-.32l.13,0a1.84,1.84,0,0,1,.87-.25c.68.11.9.47.67,1.08A.74.74,0,0,0,73,135a1.67,1.67,0,0,0-.31.24,2.4,2.4,0,0,0-1.14.6,4.73,4.73,0,0,0-.39.32,4.75,4.75,0,0,1-1,.72l-.55.4a2.64,2.64,0,0,0,.13,1.38c.09.33.16.6.22.81A10.21,10.21,0,0,1,70,141Z" transform="translate(-1.4 -1.38)"/><path class="cls-6" d="M90.81,131.41l.28,1.51c.13-.09.19-.36.2-.82a1.33,1.33,0,0,1,.09-.61q.5-.68,1.05.39c.11.57-.24,1-1,1.17l-.27,0c0,.27-.09.64-.14,1.11a3.4,3.4,0,0,0-.11.51l.53-.11a6,6,0,0,0,1.31-.44,7.63,7.63,0,0,1,1.31-.44c.54-.1.85,0,.92.41s0,.72-.26.83a5.37,5.37,0,0,1-1.75.72l-.6.12A3.55,3.55,0,0,1,91.28,138c-.19.23-.32.39-.4.47l0,.19.13,0a4.14,4.14,0,0,1,1.14-.61c.42,0,.68.14.78.44a1.78,1.78,0,0,1-.72,1.31,3.2,3.2,0,0,0-.57.7l0,.19.67-.13A.63.63,0,0,1,93,141a1.29,1.29,0,0,1-.44,1,1.41,1.41,0,0,0-.28.34l.07.38a1.74,1.74,0,0,0,.57-.3c.65-.45,1.17-.55,1.54-.3s.36.65.08,1.16a1.51,1.51,0,0,1-1,.58l-.54.1c-.21.11-.28.38-.19.82a2.36,2.36,0,0,0,0,.39,7.76,7.76,0,0,1-.44,2.82c-.66,1.43-1.2,1.73-1.64.9a.92.92,0,0,1-.12-.27.63.63,0,0,0-.29-.43,7.84,7.84,0,0,0-.88-.23c-.14,0-.23.14-.28.35,0,0-.07,0,0,.11-.72,1.11-1.29,1.28-1.72.52-.09-.51.27-1,1.1-1.58.58-.37,1-.45,1.34-.25l-.23.24a.88.88,0,0,0,.59.18,1.5,1.5,0,0,1,.56,0,.76.76,0,0,0,.3.14c.26.14.45.17.58.08.36-.06.53-.62.52-1.66a10.91,10.91,0,0,0-.19-1.72A15.59,15.59,0,0,0,88.91,146l-.94.57a.33.33,0,0,1-.42,0,1,1,0,0,1,0-.69,2,2,0,0,1,.55-.79.19.19,0,0,0,.11-.12,13.84,13.84,0,0,1,1.21-1,6.3,6.3,0,0,0,1.2-1l0-.19c-.21.11-.47.22-.77.35a2.29,2.29,0,0,1-1.17.41c-.18,0-.28,0-.31-.13-.07-.38.18-.79.75-1.22a1.72,1.72,0,0,0,.35-.36.47.47,0,0,0,.18-.13,1.57,1.57,0,0,0,.68-1.21,15.73,15.73,0,0,1-1.53.78,1.26,1.26,0,0,1-.79.25c-.32,0-.41-.25-.27-.73a.9.9,0,0,1,.48-.39c.14,0,.22-.07.25-.14a10.6,10.6,0,0,0,3-3.9l-.17-.16a9.09,9.09,0,0,1-1.16.51,7.74,7.74,0,0,0-1.8.83l0,.19a.24.24,0,0,0,.22.06.54.54,0,0,1,.7.35c.07.64-.14,1-.63,1.1s-.6-.21-.72-.84a1.06,1.06,0,0,1,0-.3,1.8,1.8,0,0,0,0-.48,16.52,16.52,0,0,0-3,1.74.5.5,0,0,1-.65-.46c0-.39.31-.81,1-1.27a.53.53,0,0,0,.25-.14l2.24-1.41a5.56,5.56,0,0,1-.54-3.61c0-.53.21-.82.52-.88s.3.08.35.33,0,.43-.08.7a4.34,4.34,0,0,0,0,1.85c.26.61.55.94.89,1l.64-.32.2,0c.21-.1.36-.39.46-.87a4.8,4.8,0,0,0,.08-1.77c0-.19-.1-.31-.2-.35l-.21,0a.17.17,0,0,1-.23-.15q-.19-1,.45-1.26Q90.62,130.76,90.81,131.41Zm-4,2.91-.06.41c.25-.12.41,0,.47.3,0,.71-.15,1.14-.59,1.28s-.75-.38-.72-1.23S86.28,134,86.76,134.32Zm3.92,13.33,0-.19-.27.06,0,.18Zm4.76-2.07c-.3,1.1-.86,1.07-1.68-.07-.11-.57.09-.87.59-.9A1.23,1.23,0,0,1,95.44,145.58Z" transform="translate(-1.4 -1.38)"/><path class="cls-6" d="M108,127.5l-.45-.85a7.23,7.23,0,0,1-.41-1.09,1.32,1.32,0,0,0-.07-.72,4.27,4.27,0,0,1-.1-.49c.34-1.12.78-1.35,1.33-.7a3.37,3.37,0,0,1,.28,1.27.92.92,0,0,0,.07.28,10.31,10.31,0,0,0,1,3.15c.34.76.72,1,1.14.7a2.38,2.38,0,0,0,.44-.34,2.09,2.09,0,0,1,.44-.34,1.5,1.5,0,0,1,1.71.62.66.66,0,0,1,.06.4l-.94,1.15-1.07,1.21a.81.81,0,0,1-.27.36,2.11,2.11,0,0,0,.08,1,9,9,0,0,0,.2,1,9.13,9.13,0,0,1,.32,1.78,7.62,7.62,0,0,1-.18,1.72,6.38,6.38,0,0,0-.17.85c0,.16,0,.35-.08.59a22.58,22.58,0,0,1-1.53,5.47,13.46,13.46,0,0,1,.41-3,22.47,22.47,0,0,0,.25-5.12,14.77,14.77,0,0,0-.64-2.7l-.09-.17a2.21,2.21,0,0,0-.64.55c-.24.34-.45.53-.64.55-.6.32-1,.32-1.24,0-.41-.79-.15-1.61.79-2.47a.41.41,0,0,0,.14-.18l.3-.16c.45-.23.65-.48.61-.75a6.14,6.14,0,0,0-.5-2.13A8,8,0,0,0,108,127.5Zm12.12,10.12a.7.7,0,0,0-.41.1c-3.19,1.1-5.58.66-7.19-1.32a1,1,0,0,1,.43-.66.86.86,0,0,1,.53.27.55.55,0,0,0,.31.16,2.28,2.28,0,0,0,1.15.27,1.37,1.37,0,0,0,.51-.06,15.46,15.46,0,0,0,2.39-.17l.45,0a5.15,5.15,0,0,1,2.84-.19,2.82,2.82,0,0,1-.52.49A1,1,0,0,0,120.13,137.62Z" transform="translate(-1.4 -1.38)"/><path class="cls-6" d="M122.23,117.67a.74.74,0,0,0-.2-.34,1,1,0,0,1-.19-.34c-.24-.63-.39-1-.43-1.14q-.6-1,.09-1.59c.21-.17.44,0,.7.41l1-.56.16-.13a1.48,1.48,0,0,1,.7-.34c.62,1.23.53,1.9-.28,2a.24.24,0,0,1-.22.06q-.8-.09-1,.21C122.92,117,122.82,117.59,122.23,117.67Zm4.86-2.1,0-.24.26-.22a.36.36,0,0,0,.24-.45c.07-.06.19-.17.37-.31a4.14,4.14,0,0,0,.24-.46l.12.15c.09-.33.26-.47.53-.45l.08-.32.23.06.08-.32a2.82,2.82,0,0,1,1.47,1.52c.34.89.35,1.47,0,1.73a.61.61,0,0,1-.9,0,6.54,6.54,0,0,0-.2-1.09.35.35,0,0,0-.33,0,7.2,7.2,0,0,0-1,1.35l-.19.42a.91.91,0,0,1-.19.41,1.12,1.12,0,0,1-.36.42,2.63,2.63,0,0,0-.56.61c-.16.3-.19.37-.1.21l-.39.7-.12-.14a2.89,2.89,0,0,1-.4.58c-1,1-1.18,1.93-.55,2.74l.18.22a1.18,1.18,0,0,1,.21.45,1.18,1.18,0,0,0,.08.31c.14.38.11.62-.11.72s-.59.08-.91-.23l-.75-.88a10.06,10.06,0,0,0-.43-1.14,6.32,6.32,0,0,1-.47-1.62c-.15-.54-.11-.91.13-1.12s.52,0,.92.24a4.61,4.61,0,0,0,.44-.75,8.56,8.56,0,0,1,1.84-2.7Zm-1.58-.17c0-.16,0-.32,0-.47a8.25,8.25,0,0,0-.2-2.35.69.69,0,0,0-.19-.34,1.05,1.05,0,0,1-.2-.34.79.79,0,0,1-.11-.66.72.72,0,0,0,0-.28c.07-.14.13-.27.19-.41a.71.71,0,0,1,1.13,0,2.26,2.26,0,0,1,.32,1.24,1,1,0,0,1-.17.64,1.79,1.79,0,0,0-.19.42,4.31,4.31,0,0,0-.18,1.16,3.54,3.54,0,0,1-.12.6.72.72,0,0,0,0,.28C125.73,115.21,125.65,115.36,125.51,115.4Zm6.83,5.53.42-.35,1-.56c.07-.06.19,0,.36.2s.28.26.35.2l0,.47.23.06a.58.58,0,0,0,.08.31,1.28,1.28,0,0,1,.08.31,1.24,1.24,0,0,1-.21.81,1.16,1.16,0,0,1-.15.25c-.06.14,0,.39.29.76a7,7,0,0,1,.44,2.64,6.21,6.21,0,0,1-.12,2.62c-.21.6-.46.73-.75.38l-.51-.82-.57,0a1.16,1.16,0,0,1,1-1.12,2.51,2.51,0,0,0,.3-1.77,3.09,3.09,0,0,0-.8-1.58,5.15,5.15,0,0,1-1.22,1.53l-.94.8a1.69,1.69,0,0,1-.43.23s-.07,0-.11,0l-.44.12a.46.46,0,0,1-.44.12,3.94,3.94,0,0,1,1-3.88c-.62-.31-.9-1-.84-2.06a6.33,6.33,0,0,0,0-1c-.15-.46-.35-.63-.6-.5a1,1,0,0,0-.18.53.36.36,0,0,1-.1.2l-.77,1.42c-.35.37-.47.64-.38.82a1.33,1.33,0,0,0,.25.41c.34.39.43.69.3.88a.73.73,0,0,1-.67.06,1.75,1.75,0,0,1-.47-.35,1.53,1.53,0,0,0-.6-.5c-.21-.24-.2-.62,0-1.14,0,0,0,0,0-.12a6.61,6.61,0,0,1,.62-2,2.47,2.47,0,0,1,.51-.56,1.48,1.48,0,0,0,.41-.47l.05,0c.06-.14.15-.29.24-.46a1.78,1.78,0,0,1,1.92.14,2.33,2.33,0,0,1,.37,1.07c.06.28.09.47.1.54a.32.32,0,0,0,.07.2C131.72,120.79,132,121.23,132.34,120.93Z" transform="translate(-1.4 -1.38)"/><path class="cls-7" d="M25.8,105.33c-.25-.51-.57-.68-.91-.63a13.92,13.92,0,0,0-2.12.7l-2.44.93c-1,.38-.92.4-1.11.66a1.12,1.12,0,0,0-.1,1L19,108l-.42-1.11,4.34-6.4v0l-3.2,1.22c-2.18.84-2.47,1-2.16,2l-.16.06-.85-2.22.16-.06c.25.5.55.64.91.59a11.53,11.53,0,0,0,2-.66L24,99.79l0,.1-4.31,6.38v0l3-1.14a16.15,16.15,0,0,0,2-.87c.32-.22.42-.56.25-1.18l.15-.06.86,2.23Z" transform="translate(-1.4 -1.38)"/><path class="cls-7" d="M17.91,91.74c2.34-.5,4.28.64,4.66,2.43s-.91,3.45-3.08,3.92c-2,.42-4.2-.37-4.65-2.46C14.5,94.06,15.64,92.24,17.91,91.74ZM19,97.5c2.29-.49,3.56-2,3.23-3.5-.27-1.27-1.61-2.18-3.7-1.72-2.66.57-3.69,2-3.36,3.56C15.46,97.08,16.75,98,19,97.5Z" transform="translate(-1.4 -1.38)"/><path class="cls-7" d="M21.32,89.28c-.12-.85-.33-.91-1.27-.83l-4.8.38c-.94.07-1.07.16-1.08,1H14l-.18-2.25a1.74,1.74,0,0,1,1.73-2.13,2.14,2.14,0,0,1,2.13,1,17.84,17.84,0,0,0,1.57-1c.67-.52,1.64-1.27,1.75-1.77l.16,0c.07.87,0,1.33-2.8,3-.41.28-.4.56-.33,1.38l2-.16c.94-.08,1.14-.17,1.12-1h.17l.19,2.34Zm-3.59-1.76a1.45,1.45,0,0,0-.45-1.13A1.93,1.93,0,0,0,15.77,86c-1.28.1-1.78.8-1.7,1.8a3.38,3.38,0,0,0,.07.5s0,.09.27.07l3.37-.27Z" transform="translate(-1.4 -1.38)"/><path class="cls-7" d="M20.91,81.16c0-1-.23-1-1.14-1.06l-5.88-.2,0,.59c0,1.26.22,1.4,1.47,1.73v.15c-.7-.08-1.42-.14-2.09-.18V82a.48.48,0,0,0,.26-.2.83.83,0,0,0,.05-.31l.13-3.87c0-.25,0-.31-.27-.46l0-.16a20.22,20.22,0,0,0,2,0l0,.17c-1.36.18-1.54.54-1.57,1.36l0,.85,5.88.2c.91,0,1.12,0,1.21-1h.17l-.09,2.59Z" transform="translate(-1.4 -1.38)"/><path class="cls-7" d="M17.43,73.73l.62-4-2-.31c-.92-.14-1.11-.1-1.32.71l-.17,0L15,67.81l.17,0c0,.85.12,1,1,1.1l4.72.74c.94.15,1.13.1,1.32-.7l.17,0L22,71.34l-.16,0c.07-.9-.1-1-1-1.15l-2.38-.37-.63,4,2.39.38c.93.14,1.12.09,1.33-.74l.16,0-.36,2.28-.16,0c.05-.81-.11-.91-1-1.06l-4.72-.74c-.92-.15-1.11-.1-1.33.72l-.16,0,.35-2.28.17,0c0,.8.12.91,1.05,1.06Z" transform="translate(-1.4 -1.38)"/><path class="cls-7" d="M18.19,61.49c1.89,1.26,3.65,2.41,5.37,3.53l0,.12c-2.14-.16-4.33-.25-6.46-.38-.92-.08-1.15,0-1.42.55l-.16,0,.62-2,.16,0c0,.51,0,.75.28.85a1.44,1.44,0,0,0,.33,0l5.49.33v0C20.48,63.32,18.71,62.12,17,61l0-.1c2.07.09,4.12.15,6.42.25v0c-1.47-1-3.8-2.45-4.57-2.83a3.05,3.05,0,0,0-.35-.15c-.36-.11-.51.05-.78.5l-.16,0,.6-1.92.16.05c-.07.61.07.75.82,1.29.95.66,2.67,1.77,5.5,3.56l0,.12c-2.07-.1-5.09-.19-6.41-.2Z" transform="translate(-1.4 -1.38)"/><path class="cls-7" d="M25.75,57.66c.31-.85.15-1-.69-1.37l-4.3-1.92c-.94-.43-1.16-.44-1.53.27l-.15-.07,1.71-3.81c.38.17,1.05.42,1.71.67l0,.17c-1.2-.32-1.61-.3-2.08.76l-.37.82c-.11.24-.09.26.2.38l2.56,1.15.46-1c.31-.69.27-.91-.4-1.37l.07-.15,2,.91-.06.15c-.91-.24-1-.07-1.33.59l-.46,1,2.13,1c1,.46,1.19.1,1.52-.63.24-.53.46-1.06.18-1.53a4,4,0,0,0-.86-1l.07-.15,1.61,1.1-1.84,4.1Z" transform="translate(-1.4 -1.38)"/><path class="cls-7" d="M24.93,46.63c-.68-.19-1.63-.45-2.07.37-.34.6,0,1.18.67,1.55a2,2,0,0,0,2.17-.19,2.57,2.57,0,0,1,2.77-.31,2,2,0,0,1,1,2.78,3.43,3.43,0,0,1-.63.76,2.09,2.09,0,0,1-.4.25,16,16,0,0,1-1.78-.71l.08-.14c.64.18,2,.47,2.57-.51.35-.65.13-1.29-.8-1.8a2.22,2.22,0,0,0-2.36.19,2.45,2.45,0,0,1-2.55.31,1.83,1.83,0,0,1-.84-2.5,2.59,2.59,0,0,1,.77-.86l1.53.66Z" transform="translate(-1.4 -1.38)"/><path class="cls-7" d="M31.45,46.7c.48-.84.35-1-.41-1.51l-4.9-3.25-.33.5c-.7,1-.55,1.29.34,2.23l-.08.13c-.56-.44-1.15-.86-1.69-1.25l.08-.13a.47.47,0,0,0,.33,0,1,1,0,0,0,.2-.24l2.14-3.23c.14-.2.13-.29,0-.53l.1-.13A19.69,19.69,0,0,0,29,40.31l0,.17c-1.26-.56-1.6-.35-2.05.33l-.48.71,4.9,3.26c.76.5,1,.56,1.57-.24l.14.09-1.43,2.16Z" transform="translate(-1.4 -1.38)"/><path class="cls-7" d="M34.36,42.44c.52-.73.4-.92-.32-1.5l-3.65-3c-.8-.64-1-.71-1.55-.12l-.13-.11,2.63-3.25c.33.27.91.68,1.48,1.09l-.07.15c-1.08-.61-1.47-.7-2.21.21l-.57.7c-.16.2-.15.22.1.42l2.18,1.76L33,38c.47-.59.5-.81,0-1.42l.1-.13,1.74,1.4-.1.13c-.82-.46-1-.33-1.44.23l-.71.88,1.82,1.47c.87.71,1.12.4,1.62-.22.37-.45.73-.91.58-1.43a4.33,4.33,0,0,0-.59-1.16l.1-.13c.29.35,1,1.16,1.28,1.48l-2.83,3.49Z" transform="translate(-1.4 -1.38)"/><path class="cls-7" d="M38.28,37.69c.57-.64.47-.84-.2-1.5l-3.41-3.4c-.67-.67-.81-.7-1.43-.18l-.13-.13,1.6-1.61a1.74,1.74,0,0,1,2.74-.07,2.15,2.15,0,0,1,.62,2.27,16.54,16.54,0,0,0,1.77.55,5.13,5.13,0,0,0,2.48.18l.09.13c-.62.62-1,.91-4.11-.16-.47-.13-.69.07-1.26.64l1.41,1.41c.67.67.87.76,1.49.2l.11.12L38.4,37.81Zm-1-3.86a1.5,1.5,0,0,0,.57-1.08,2,2,0,0,0-.69-1.4,1.58,1.58,0,0,0-2.47-.12c-.19.19-.29.31-.35.38s0,.09.13.25l2.4,2.38Z" transform="translate(-1.4 -1.38)"/><path class="cls-7" d="M43.14,32.87c.42-.39.48-.74.34-1A12.79,12.79,0,0,0,42.2,30l-1.6-2.06c-.65-.84-.66-.76-1-.87a1.11,1.11,0,0,0-1,.19l-.1-.13.93-.73,7.39,2.29,0,0L44.82,26c-1.43-1.85-1.63-2.09-2.57-1.48l-.11-.13L44,22.89l.11.14c-.41.39-.46.71-.31,1A11.42,11.42,0,0,0,45,25.8l2.86,3.69-.08.07-7.35-2.27,0,0,2,2.52a16.87,16.87,0,0,0,1.42,1.69c.29.24.65.23,1.2-.12l.1.14L43.25,33Z" transform="translate(-1.4 -1.38)"/><path class="cls-7" d="M51.78,26.71c.71-.43.69-.64.25-1.48L49.83,21c-.45-.85-.53-1-1.3-.66l-.08-.16,2-1.05a1.87,1.87,0,0,1,2.82.89,2.12,2.12,0,0,1-.9,3.11l-.8.12L52.5,25c.43.83.57.95,1.47.56l.08.15-2.19,1.14ZM51.46,23a1.69,1.69,0,0,0,.81-.22c.75-.39,1.12-1.2.48-2.44a1.63,1.63,0,0,0-2.47-.87,3,3,0,0,0-.42.25s-.06.09,0,.31Z" transform="translate(-1.4 -1.38)"/><path class="cls-7" d="M62.68,18.25c.72,2.27-.23,4.32-2,4.87s-3.52-.58-4.19-2.7c-.61-1.92,0-4.22,2-4.87C60.05,15.06,62,16,62.68,18.25Zm-5.63,1.64c.71,2.23,2.31,3.36,3.79,2.89,1.24-.4,2-1.82,1.37-3.85-.83-2.6-2.39-3.49-3.86-3C57.13,16.31,56.35,17.68,57.05,19.89Z" transform="translate(-1.4 -1.38)"/><path class="cls-7" d="M70.06,19.14c0,.4-.09,1.36-.09,1.9l-4.14.57,0-.17c.8-.16.84-.37.7-1.37l-.64-4.67c-.13-.92-.22-1.12-1.08-1.06l0-.17,2.36-.32,0,.16c-.86.18-.91.4-.79,1.32L67,19.84c.17,1.26.4,1.26,1.37,1.13a1.6,1.6,0,0,0,1.19-.6,5,5,0,0,0,.34-1.21Z" transform="translate(-1.4 -1.38)"/><path class="cls-7" d="M72.89,20.69c.94-.06,1-.27,1-1.18l0-1.73c0-.13,0-.26-.27-.76s-.72-1.43-1.28-2.51c-.4-.72-.52-.93-1.06-1v-.17l2.07,0v.17c-.51.09-.68.22-.68.42a1,1,0,0,0,.12.35c.43.85,1,2,1.46,2.85a21.92,21.92,0,0,0,1.32-3.24c0-.25-.22-.33-.78-.41v-.16l2.14,0v.16c-.66.11-.77.45-1.19,1.21-.33.57-.71,1.4-1.16,2.42a1.42,1.42,0,0,0-.19.62l0,1.81c0,.91.1,1.11,1.1,1.15v.16l-2.6.05Z" transform="translate(-1.4 -1.38)"/><path class="cls-7" d="M79.59,20.79c1,0,1-.17,1.13-1.08l.52-5.86-.6,0c-1.25-.11-1.4.14-1.8,1.37l-.15,0c.12-.7.21-1.41.29-2.08h.15a.5.5,0,0,0,.19.27.65.65,0,0,0,.31.07l3.85.34c.25,0,.32,0,.48-.25l.16,0c-.07.56-.08,1.32-.1,2l-.16,0C83.75,14.24,83.4,14,82.58,14l-.85-.08-.52,5.86c-.08.91,0,1.12,1,1.27v.17L79.58,21Z" transform="translate(-1.4 -1.38)"/><path class="cls-7" d="M84.69,21.31c.9.11,1-.08,1.17-1l.84-4.63c.18-1,.14-1.22-.64-1.42l0-.16,4.11.75c-.07.41-.15,1.12-.24,1.82h-.17c0-1.24-.09-1.63-1.23-1.84l-.89-.16c-.26,0-.27,0-.33.28l-.5,2.76,1.11.2c.74.14,1,.05,1.23-.71l.16,0-.4,2.19-.16,0c0-.93-.17-1-.89-1.15l-1.11-.2-.41,2.3c-.2,1.11.18,1.18,1,1.33.57.1,1.14.19,1.52-.19a3.71,3.71,0,0,0,.74-1.07l.16,0c-.16.42-.53,1.44-.68,1.83l-4.42-.81Z" transform="translate(-1.4 -1.38)"/><path class="cls-7" d="M97.09,22.12c-.3.57-.77,1.46-1,1.82a10.24,10.24,0,0,1-1.95-.19,3.54,3.54,0,0,1-2.43-4.65,3.78,3.78,0,0,1,4.72-2.89,5.72,5.72,0,0,1,1.66.81c-.08.6-.19,1.17-.32,1.84h-.16A2,2,0,0,0,96,16.41c-1.83-.5-3.08.78-3.58,2.59-.62,2.24,0,4,1.69,4.45,1.29.36,2.06-.37,2.83-1.43Z" transform="translate(-1.4 -1.38)"/><path class="cls-7" d="M100.58,21.27l3.77,1.49.73-1.86c.34-.87.34-1.06-.4-1.44l.06-.16,2.17.85-.07.16c-.81-.24-1-.1-1.29.78l-1.75,4.44c-.35.88-.34,1.08.39,1.44l-.06.16-2.21-.87.07-.15c.86.26,1,.12,1.34-.76l.89-2.25-3.77-1.48-.89,2.25c-.34.88-.33,1.08.43,1.45l-.06.16-2.15-.85.06-.15c.77.22.91.08,1.26-.8l1.74-4.44c.35-.87.34-1.07-.41-1.46l.06-.15,2.14.84-.06.16c-.77-.22-.92-.08-1.26.79Z" transform="translate(-1.4 -1.38)"/><path class="cls-7" d="M105.52,27.59c.52.22.87.14,1.09-.12a12.77,12.77,0,0,0,1.14-1.93l1.22-2.3c.5-.94.43-.91.4-1.23s-.14-.5-.56-.8l.08-.15,1,.56.95,7.67,0,0,1.6-3c1.1-2.07,1.23-2.35.29-3l.07-.14L115,24.29l-.08.15a.85.85,0,0,0-1.08.15,11.17,11.17,0,0,0-1.07,1.82l-2.19,4.14-.1-.05-1-7.65h0L108,25.67a16,16,0,0,0-1,2c-.09.37.06.69.6,1.05l-.08.15-2.11-1.12Z" transform="translate(-1.4 -1.38)"/><path class="cls-7" d="M112.44,31.4c.73.41.9.28,1.41-.52l2.57-4c.5-.79.54-1-.13-1.5l.09-.15,2,1.25-.09.14c-.73-.39-.91-.26-1.41.53l-2.57,4c-.51.8-.55,1,.13,1.5l-.1.14-2-1.24Z" transform="translate(-1.4 -1.38)"/><path class="cls-7" d="M121.58,35.42c-.49.42-1.26,1.07-1.62,1.31a9.41,9.41,0,0,1-1.74-.9,3.54,3.54,0,0,1-.54-5.21,3.78,3.78,0,0,1,5.46-.94,5.47,5.47,0,0,1,1.24,1.37c-.3.52-.61,1-1,1.59l-.15-.07a2,2,0,0,0-.56-2.85c-1.51-1.15-3.14-.41-4.27,1.08-1.41,1.85-1.44,3.73-.09,4.76,1.06.8,2,.42,3.16-.29Z" transform="translate(-1.4 -1.38)"/><path class="cls-7" d="M124.21,40.65c.46.31.66.4.86.2a14.75,14.75,0,0,0,1.17-2.14l-1.59-1.55a13.55,13.55,0,0,0-2,1.2c-.29.29-.15.52.16,1l-.12.13-1.56-1.52.11-.12c.6.34.77.35,1.78-.17l5.74-2.94.13,0-1.09,2c-.73,1.38-1.46,2.76-2,3.84-.41.84-.45,1-.06,1.55l-.12.12-1.57-1.53ZM128,35.4c-1,.5-2.08,1.06-3,1.57l1.45,1.4,1.57-3Z" transform="translate(-1.4 -1.38)"/><path class="cls-7" d="M130.83,45.62c-.35.2-1.22.64-1.67.92l-2.64-3.24.13-.1c.56.6.76.52,1.54-.12l3.65-3c.73-.59.84-.77.35-1.47l.13-.11,1.5,1.85-.13.1c-.6-.64-.81-.57-1.53,0l-3.53,2.88c-1,.8-.87,1-.25,1.76a1.57,1.57,0,0,0,1.13.7,4.86,4.86,0,0,0,1.21-.34Z" transform="translate(-1.4 -1.38)"/><path class="cls-7" d="M137.73,52.89a5,5,0,0,1-3.2.91A2.25,2.25,0,0,1,133,52.67a2.13,2.13,0,0,1-.24-1.66c.2-.68.73-1.27,1.91-1.93l2.66-1.47c.9-.5,1-.63.64-1.42l.15-.08,1.12,2-.15.08c-.42-.7-.68-.63-1.52-.16l-2.33,1.29c-1.86,1-2.3,2.16-1.67,3.3s2.2,1.06,4,0l.56-.31A13.94,13.94,0,0,0,140,51.27c.3-.25.34-.61.09-1.23l.14-.08L141.34,52l-.15.08c-.32-.43-.66-.6-1-.46a15.7,15.7,0,0,0-1.94,1Z" transform="translate(-1.4 -1.38)"/><path class="cls-7" d="M135.61,57.14c.23.51.55.69.89.65a12,12,0,0,0,2.14-.63l2.46-.86c1-.35.94-.37,1.13-.62a1.05,1.05,0,0,0,.14-1l.15-.06.39,1.12L138.38,62v0l3.23-1.12c2.21-.77,2.51-.88,2.23-2l.16-.06.78,2.25-.16.05c-.24-.5-.53-.65-.89-.62a11.5,11.5,0,0,0-2,.6l-4.42,1.54,0-.1,4.49-6.25v0l-3,1a16.56,16.56,0,0,0-2,.81c-.33.2-.44.55-.28,1.17l-.16.06-.79-2.26Z" transform="translate(-1.4 -1.38)"/><path class="cls-7" d="M138.1,65c.22.8.44.84,1.36.64l4.68-1c.91-.2,1.1-.32,1-1.15l.16,0,.49,2.27-.17,0c-.23-.79-.44-.83-1.36-.64l-4.67,1c-.93.2-1.11.33-1,1.15l-.17,0L137.94,65Z" transform="translate(-1.4 -1.38)"/><path class="cls-7" d="M146.67,74.32c-.19-.67-.36-.72-1.44-1-.36-.12-3.85-1-6.32-1.59l0-.12c2.08-.83,4.12-1.74,6.19-2.62.82-.35,1-.51,1-1.1l.16,0,.2,2.07h-.17c-.11-.47-.17-.67-.46-.65a1.82,1.82,0,0,0-.41.13c-.67.28-3,1.24-5.31,2.29h0A55.29,55.29,0,0,0,146,73c.36,0,.37-.27.43-.78l.17,0,.2,2.15Z" transform="translate(-1.4 -1.38)"/><path class="cls-7" d="M139.5,76.44c0,.9.23,1,1.15,1l4.7.19c1,0,1.24,0,1.32-.83h.17L146.67,81c-.42,0-1.13,0-1.83,0l0-.16c1.23-.15,1.6-.32,1.64-1.48l0-.9c0-.26,0-.27-.33-.28l-2.81-.12,0,1.13c0,.75.08.94.88,1.12v.16L142,80.38v-.16c.93-.12,1-.32,1-1l.05-1.13L140.68,78c-1.13,0-1.14.35-1.17,1.15,0,.58,0,1.16.39,1.48a4.05,4.05,0,0,0,1.17.58v.17c-.44-.11-1.5-.33-1.9-.42l.17-4.49Z" transform="translate(-1.4 -1.38)"/><path class="cls-7" d="M139.18,82.69c-.09.85.1,1,1,1.11l4.76.74c.93.15,1.08.09,1.27-.69l.18,0-.35,2.23a1.74,1.74,0,0,1-2.18,1.67,2.12,2.12,0,0,1-1.84-1.47,15,15,0,0,0-1.75.59c-.77.35-1.9.85-2.12,1.31l-.15,0c.14-.86.27-1.31,3.42-2.28.47-.17.52-.46.65-1.26l-2-.31c-.94-.15-1.15-.1-1.32.7l-.17,0,.36-2.33Zm3.08,2.54a1.52,1.52,0,0,0,.17,1.22,2,2,0,0,0,1.38.72c1.27.2,1.92-.37,2.07-1.36a4.06,4.06,0,0,0,.06-.5s0-.1-.25-.13l-3.34-.53Z" transform="translate(-1.4 -1.38)"/><path class="cls-7" d="M142.66,93.84c.72,0,1.69,0,1.92-.88.17-.67-.29-1.14-1-1.34a2,2,0,0,0-2,.73,2.54,2.54,0,0,1-2.6,1,2,2,0,0,1-1.62-2.45,3.29,3.29,0,0,1,.43-.9,1.52,1.52,0,0,1,.32-.34,15.21,15.21,0,0,1,1.89.25l0,.15c-.67,0-2.08,0-2.36,1.14-.19.71.19,1.28,1.22,1.54A2.22,2.22,0,0,0,141,92a2.42,2.42,0,0,1,2.4-.93,1.81,1.81,0,0,1,1.43,2.21,2.7,2.7,0,0,1-.52,1c-.41-.06-.85-.12-1.66-.26Z" transform="translate(-1.4 -1.38)"/><path class="cls-7" d="M136.78,94c-.21.81,0,.94.86,1.23l4.55,1.46c.89.29,1.11.28,1.42-.5l.16,0-.71,2.22-.16-.06c.19-.8,0-.94-.87-1.23l-4.54-1.46c-.91-.29-1.13-.27-1.42.5l-.16,0,.71-2.21Z" transform="translate(-1.4 -1.38)"/><path class="cls-7" d="M135.23,98.55c-.29.91-.13,1,.72,1.38l5.47,2.16.22-.55c.46-1.17.26-1.38-.81-2.11l.06-.15c.64.32,1.3.61,1.92.87l-.06.15a.45.45,0,0,0-.31.1.68.68,0,0,0-.15.27l-1.42,3.6c-.1.23-.06.32.1.53l-.07.14c-.52-.22-1.24-.44-1.93-.67v-.16c1.35.28,1.64,0,1.94-.76l.31-.79-5.46-2.16c-.85-.34-1.07-.35-1.49.56l-.16-.06,1-2.42Z" transform="translate(-1.4 -1.38)"/><path class="cls-7" d="M132.75,104.42c-.37.87-.22,1,.6,1.43l1.55.75a1.68,1.68,0,0,0,.81.1c.69,0,1.6,0,2.81,0,.83,0,1.07,0,1.34-.51l.15.08-.91,1.86-.15-.07c.15-.49.12-.7-.07-.79a.85.85,0,0,0-.35-.06c-1,0-2.25,0-3.21,0a22.35,22.35,0,0,0,2.28,2.65c.23.11.4,0,.72-.52l.15.08-.93,1.92-.15-.08c.2-.64,0-.89-.54-1.61a26.35,26.35,0,0,0-1.63-2.13,1.31,1.31,0,0,0-.46-.45l-1.63-.79c-.82-.4-1-.42-1.52.45l-.15-.07,1.14-2.33Z" transform="translate(-1.4 -1.38)"/><circle class="cls-7" cx="47.02" cy="43.48" r="0.62"/><circle class="cls-7" cx="50.6" cy="40.49" r="0.62"/><circle class="cls-7" cx="56.09" cy="41.87" r="0.62"/><circle class="cls-7" cx="50.71" cy="44.55" r="0.62"/><circle class="cls-7" cx="46.36" cy="48.3" r="0.62"/><circle class="cls-7" cx="44.19" cy="51.73" r="0.62"/><circle class="cls-7" cx="40.8" cy="50.23" r="0.62"/><circle class="cls-7" cx="51.67" cy="49.51" r="0.62"/><circle class="cls-7" cx="37.28" cy="56.96" r="0.62"/><circle class="cls-7" cx="42.94" cy="58.89" r="0.62"/><circle class="cls-7" cx="34.47" cy="63.35" r="0.62"/><circle class="cls-7" cx="41.44" cy="64.02" r="0.62"/><circle class="cls-7" cx="42.25" cy="59.79" r="0.62"/><circle class="cls-7" cx="39.17" cy="64.64" r="0.62"/><circle class="cls-7" cx="38.08" cy="68.55" r="0.62"/><circle class="cls-7" cx="34.4" cy="68.09" r="0.62"/><circle class="cls-7" cx="32.98" cy="75.56" r="0.62"/><circle class="cls-7" cx="38.96" cy="75.76" r="0.62"/><circle class="cls-7" cx="32.14" cy="82.48" r="0.62"/><circle class="cls-7" cx="39.01" cy="81.11" r="0.62"/><circle class="cls-7" cx="41.78" cy="86.38" r="0.62"/><circle class="cls-7" cx="41.24" cy="92.1" r="0.62"/><circle class="cls-7" cx="42.04" cy="96.07" r="0.62"/><circle class="cls-7" cx="38.56" cy="97.34" r="0.62"/><circle class="cls-7" cx="40.68" cy="104.64" r="0.62"/><circle class="cls-7" cx="46.1" cy="102.1" r="0.62"/><circle class="cls-7" cx="43.09" cy="111.19" r="0.62"/><circle class="cls-7" cx="48.57" cy="106.84" r="0.62"/><circle class="cls-7" cx="81.13" cy="37.18" r="0.62"/><circle class="cls-7" cx="75.44" cy="36.34" r="0.62"/><circle class="cls-7" cx="71.43" cy="36.94" r="0.62"/><circle class="cls-7" cx="70.35" cy="33.39" r="0.62"/><circle class="cls-7" cx="62.95" cy="35.13" r="0.62"/><circle class="cls-7" cx="65.2" cy="40.67" r="0.62"/><circle class="cls-7" cx="56.28" cy="37.18" r="0.62"/><circle class="cls-7" cx="60.33" cy="42.89" r="0.62"/><circle class="cls-7" cx="107.39" cy="45.42" r="0.62"/><circle class="cls-7" cx="99.28" cy="40.09" r="0.62"/><circle class="cls-7" cx="100.24" cy="36.5" r="0.62"/><circle class="cls-7" cx="93.03" cy="34.07" r="0.62"/><circle class="cls-7" cx="92.02" cy="39.97" r="0.62"/><circle class="cls-7" cx="86.29" cy="32.3" r="0.62"/><circle class="cls-7" cx="86.71" cy="39.28" r="0.62"/><circle class="cls-7" cx="118.77" cy="67.35" r="0.62"/><circle class="cls-7" cx="117.27" cy="61.8" r="0.62"/><circle class="cls-7" cx="115.13" cy="58.36" r="0.62"/><circle class="cls-7" cx="117.96" cy="55.95" r="0.62"/><circle class="cls-7" cx="113.42" cy="49.85" r="0.62"/><circle class="cls-7" cx="109.23" cy="54.12" r="0.62"/><circle class="cls-7" cx="108.88" cy="44.56" r="0.62"/><circle class="cls-7" cx="105.26" cy="50.55" r="0.62"/><circle class="cls-7" cx="113.26" cy="95.63" r="0.62"/><circle class="cls-7" cx="116.87" cy="91.15" r="0.62"/><circle class="cls-7" cx="118.4" cy="87.4" r="0.62"/><circle class="cls-7" cx="122.01" cy="88.27" r="0.62"/><circle class="cls-7" cx="124.27" cy="81.01" r="0.62"/><circle class="cls-7" cx="118.35" cy="80.13" r="0.62"/><circle class="cls-7" cx="125.88" cy="74.23" r="0.62"/><circle class="cls-7" cx="118.91" cy="74.81" r="0.62"/><circle class="cls-7" cx="107.03" cy="114.31" r="0.62"/><circle class="cls-7" cx="104.28" cy="109.75" r="0.62"/><circle class="cls-7" cx="107.47" cy="107.25" r="0.62"/><circle class="cls-7" cx="110.16" cy="109.81" r="0.62"/><circle class="cls-7" cx="115.75" cy="104.65" r="0.62"/><circle class="cls-7" cx="111.06" cy="100.93" r="0.62"/><circle class="cls-7" cx="120.53" cy="99.58" r="0.62"/><circle class="cls-7" cx="114.2" cy="96.6" r="0.62"/></svg>