<svg id="图层_1" data-name="图层 1" xmlns="http://www.w3.org/2000/svg" viewBox="0 0 155.97 155.97"><defs><style>.cls-1{fill:#fcfcfc;stroke-width:3.05px;}.cls-1,.cls-2,.cls-3,.cls-4{stroke:blue;}.cls-2,.cls-3{fill:none;}.cls-2{stroke-width:2px;}.cls-4{fill:blue;}.cls-5{fill:#180aff;}.cls-6{fill:#3535ff;}.cls-7{fill:#0014f4;}</style></defs><circle class="cls-1" cx="77.99" cy="77.99" r="76.46"/><circle class="cls-2" cx="77.99" cy="77.99" r="50.48"/><circle class="cls-3" cx="77.99" cy="77.99" r="36.6"/><polygon class="cls-4" points="25.13 89.23 113 35.67 61.23 88.63 25.13 89.23"/><polygon class="cls-4" points="66.98 107.87 114.58 37.85 62.81 89.23 66.98 107.87"/><path class="cls-4" d="M59,109.55c5.08,0,13.69.8,22.31-4.86,7.58-5,7.26-9.59,12.8-15.32,2.08-2.16,7.81-1.23,9.55,2.34,1.57,3.2-1.08,8.9-6.17,5.58-1.71-1.12-2.6-.74-2,1.86,1.25,5.15,9.87,1.93,11.86-.26,4.88-5.36,7.82-12.69,7.92-12.65s-2.6,15.29-15.64,23.66a36.69,36.69,0,0,1-32.43,3.82C66.36,113.38,57.42,109.55,59,109.55Z" transform="translate(-1.4 -1.38)"/><path class="cls-5" d="M56.47,120.64l.88.44a1.8,1.8,0,0,0,1.43.22,2,2,0,0,0,1-1.09l1.92-3.8a5.16,5.16,0,0,0,.38-.93,1.07,1.07,0,0,0,0-.61,1.9,1.9,0,0,0-1-1l-.65-.33.1-.22a14.79,14.79,0,0,0,1.4.55,7.82,7.82,0,0,0,1.22.28,10,10,0,0,0,1.29.07l.42.2-3.46,6.85a1.53,1.53,0,0,0,.84,2.28l.82.41-.12.23-6.52-3.3Z" transform="translate(-1.4 -1.38)"/><path class="cls-5" d="M74.79,123.54,75,122h0a2.71,2.71,0,0,1-1.13.8,2.8,2.8,0,0,1-1.43.09,3.5,3.5,0,0,1-1.23-.41,3.45,3.45,0,0,1-1-.78,3,3,0,0,1-.56-1,2.48,2.48,0,0,1-.08-1.15,2.84,2.84,0,0,1,.72-1.52,3.25,3.25,0,0,1,1.51-.91,4.56,4.56,0,0,1,2-.12,4,4,0,0,1,3.31,2.89,5.85,5.85,0,0,1,.15,2.59,5,5,0,0,1-1.91,3.42,4.53,4.53,0,0,1-1.63.77,4.65,4.65,0,0,1-1.78.08,3,3,0,0,1-2.08-1.13,1.72,1.72,0,0,1-.39-1.33,1.17,1.17,0,0,1,.43-.78,1.08,1.08,0,0,1,.82-.21,1.13,1.13,0,0,1,.75.42,1,1,0,0,1,.19.8.92.92,0,0,1-.23.52,1.3,1.3,0,0,1-.55.31c-.24.08-.37.17-.39.29s.11.33.4.5a2.85,2.85,0,0,0,1,.35,2.05,2.05,0,0,0,1.89-.57A4.28,4.28,0,0,0,74.79,123.54Zm-.86-6.29a1.47,1.47,0,0,0-1.45.46,2.29,2.29,0,0,0-.3.55,3.6,3.6,0,0,0-.13.42c0,.18-.09.41-.14.69s-.1.53-.13.74a5.94,5.94,0,0,0-.08,1.1,1.87,1.87,0,0,0,.17.74,1.26,1.26,0,0,0,1.06.71,1.79,1.79,0,0,0,1.39-.31,1.94,1.94,0,0,0,.62-.78,4.63,4.63,0,0,0,.36-1.3,5.36,5.36,0,0,0,0-1.58,1.82,1.82,0,0,0-.45-1A1.66,1.66,0,0,0,73.93,117.25Z" transform="translate(-1.4 -1.38)"/><path class="cls-5" d="M86.45,121.38v0a7.1,7.1,0,0,1,1.59.11,3.59,3.59,0,0,1,1,.39,2,2,0,0,1,.7.62,1.94,1.94,0,0,1,.34.84,2.09,2.09,0,0,1-.31,1.5,3.56,3.56,0,0,1-1.41,1.21,7.07,7.07,0,0,1-2.22.72,7.19,7.19,0,0,1-1.46.08,4.11,4.11,0,0,1-1.19-.19,2.24,2.24,0,0,1-.84-.57,1.72,1.72,0,0,1-.41-.82,1.13,1.13,0,0,1,.19-.88,1.1,1.1,0,0,1,.75-.46,1,1,0,0,1,.83.17,1,1,0,0,1,.42.7.83.83,0,0,1,0,.52,1.45,1.45,0,0,1-.36.49c-.18.15-.25.28-.24.37s.26.34.67.41a4.85,4.85,0,0,0,1.5,0,2.53,2.53,0,0,0,1.71-.85,2.36,2.36,0,0,0,.23-1.93A2.81,2.81,0,0,0,87,122a2.12,2.12,0,0,0-1.65-.27,9.17,9.17,0,0,0-.9.2l-.36.09q-.39.06-.42-.18t.39-.3l.46,0a6.92,6.92,0,0,0,.8-.08,2,2,0,0,0,.93-.35,1.14,1.14,0,0,0,.43-.69,3.37,3.37,0,0,0,0-1.18,4.56,4.56,0,0,0-.19-.73,3,3,0,0,0-.29-.57,1.77,1.77,0,0,0-.38-.39,1.85,1.85,0,0,0-1.39-.24,4.15,4.15,0,0,0-.94.27,2.42,2.42,0,0,0-.67.42.53.53,0,0,0-.21.43.22.22,0,0,0,.1.17,1.07,1.07,0,0,0,.27.14,1.16,1.16,0,0,1,.52.29.93.93,0,0,1,.23.52,1,1,0,0,1-.85,1.18,1.09,1.09,0,0,1-.84-.19,1.1,1.1,0,0,1-.44-.73,1.78,1.78,0,0,1,.26-1.24,2.94,2.94,0,0,1,1.13-1,5.77,5.77,0,0,1,1.8-.58,5.33,5.33,0,0,1,1.91,0,2.77,2.77,0,0,1,1.37.63,2,2,0,0,1,.65,1.2,2,2,0,0,1,0,.88,1.94,1.94,0,0,1-.46.76,3.33,3.33,0,0,1-1.13.71Z" transform="translate(-1.4 -1.38)"/><path class="cls-5" d="M96,119a4.23,4.23,0,0,1-1.91-.24,2.19,2.19,0,0,1-1.08-1.1,2.38,2.38,0,0,1-.24-1.49,2.86,2.86,0,0,1,.75-1.42,5.9,5.9,0,0,1,1.65-1.17,3.75,3.75,0,0,1,2.85-.41,1.7,1.7,0,0,1,.68.38,1.82,1.82,0,0,1,.48.6,1.86,1.86,0,0,1,.19.82,2.15,2.15,0,0,1-.25.88,5.31,5.31,0,0,1-.72,1,6.09,6.09,0,0,1,1.91,0,2.32,2.32,0,0,1,1.65,1.23,2.49,2.49,0,0,1,.23.89,2.43,2.43,0,0,1-.14.92,5,5,0,0,1-2.71,2.59,7.64,7.64,0,0,1-1.72.63,4.08,4.08,0,0,1-1.48.1,1.82,1.82,0,0,1-1.64-2,2.47,2.47,0,0,1,.42-1.06A9,9,0,0,1,96,119Zm2-2.08a2.3,2.3,0,0,0,.28-1.06,2.68,2.68,0,0,0-.3-1.09,2,2,0,0,0-1.18-1.15,2.36,2.36,0,0,0-1.7.26,3.56,3.56,0,0,0-1,.74,1.94,1.94,0,0,0-.51.89,1.38,1.38,0,0,0,.11.91,1.36,1.36,0,0,0,.35.44,1.3,1.3,0,0,0,.48.25,2.59,2.59,0,0,0,.48.08,13.25,13.25,0,0,0,2.21-.16ZM96.31,119a3.67,3.67,0,0,0-.44.89,2,2,0,0,0-.09.83,2.74,2.74,0,0,0,.28.87q.93,1.89,3.31.72a3.74,3.74,0,0,0,1.15-.83,2.23,2.23,0,0,0,.59-1,1.48,1.48,0,0,0-.09-1,1.22,1.22,0,0,0-.78-.66,3.41,3.41,0,0,0-.48-.09c-.42,0-.91,0-1.47,0l-.51,0-.48,0-.34,0-.32,0Z" transform="translate(-1.4 -1.38)"/><path class="cls-6" d="M23.63,126.77l-.41-.37c-.63-.94-.58-1.59.14-2a1.06,1.06,0,0,1,.36-.19,2.14,2.14,0,0,1,.59-.24,1.69,1.69,0,0,1,.55.11,1.05,1.05,0,0,0,.78.07c-.49-.28-.42-.9.23-1.87a.47.47,0,0,1,.15-.26c.39-.42.46-.74.23-1-.43-.14-1,.18-1.81,1a2.21,2.21,0,0,0-.6.75,5,5,0,0,0-.52,1.08c-.15-.05-.29,0-.43.26s-.36.32-.43.26a6.21,6.21,0,0,1,1.3-4,3.71,3.71,0,0,1,3-1.66l-.13.14a.44.44,0,0,1,.39.09.69.69,0,0,1-.11.42,3.74,3.74,0,0,0-2.26,1.84,3.25,3.25,0,0,1,1.22-.71c.09-.43.46-.7,1.11-.8.07,0,.16,0,.26.12a.47.47,0,0,0,.27.11c.1.09.26,0,.49-.33l.13-.14a21.2,21.2,0,0,1,2-1.33c.44-.28.75-.34.92-.19s.09.21.06.45,0,.38.05.44a.71.71,0,0,1-.49.33c0-.56-.37-.61-1-.13a10.14,10.14,0,0,0-1.27,1.18l.83.5a5.45,5.45,0,0,1,1.67-.8,4.91,4.91,0,0,1,1.38-.18,5.29,5.29,0,0,0,.9-.07,1.54,1.54,0,0,0,.3-.12c.16-.11.3-.12.4,0s.19.53,0,1a5.58,5.58,0,0,1-1.69,1.83A1.8,1.8,0,0,1,33.41,124c0,.61-.46,1.23-1.36,1.88-2.11,1.54-3.68,2.18-4.74,1.9a1.23,1.23,0,0,1-1.48.2A7.87,7.87,0,0,1,23.63,126.77Zm4.06-.17-.16.37c.52.39,1.45.12,2.8-.81,1.19-.82,1.53-1.47,1-1.93a2.52,2.52,0,0,0-.84-.51,9.45,9.45,0,0,1-5.1,1.3,4.28,4.28,0,0,0,1.39,1A10,10,0,0,0,27.69,126.6Zm-2.15-2.51.1.09.34-.07A6.35,6.35,0,0,0,29.49,123l-1.87-1.2c-.1-.1-.36.15-.77.73l-.14.26A2.81,2.81,0,0,1,25.54,124.09Zm11.81-3.74L37,120a3,3,0,0,0-1.61-.57,2.65,2.65,0,0,1-1.72-.67l.13-.14,1.59-.1a18.13,18.13,0,0,0-6.41-3.56l-.33,0c-.55-.07-.87-.2-1-.37s.06-.47.45-.89l.07-.07a.34.34,0,0,1,.3-.12c.06.06.25.06.56,0a3.68,3.68,0,0,1,.56,0l1.8.88a31.69,31.69,0,0,1,3.19,1.89,36.22,36.22,0,0,1,3,2.27c0,.16.09.34.32.56.39.45.52.82.37,1.12C37.89,120.51,37.59,120.57,37.35,120.35Zm-7.6.57a4,4,0,0,0,.84.51,5.9,5.9,0,0,0,.73.42l.13-.14a3.22,3.22,0,0,0,1.43-1.56A4.41,4.41,0,0,0,29.75,120.92Z" transform="translate(-1.4 -1.38)"/><path class="cls-6" d="M52.68,133.42l-.18.34a22.89,22.89,0,0,0-2.63.55,3.67,3.67,0,0,0-.81,1.52l-.46.85c-.67,1.16-.83,2-.45,2.58.9.93,1.66,1.05,2.29.36a2.56,2.56,0,0,0,.08-1.59,3.17,3.17,0,0,1,0-.55l.37.19-.06-.47a.23.23,0,0,0,.13.19c.31.38.63.51,1,.4a2.19,2.19,0,0,1,0,1.51,5.43,5.43,0,0,1-1.39,1.43,5.26,5.26,0,0,0-.8.33,2.13,2.13,0,0,1-.59.23,1.83,1.83,0,0,1-.45,0,2,2,0,0,0-.46,0l-.6-.32a2,2,0,0,1-1-1.63,5.36,5.36,0,0,1,.85-3l1.09-2c-1.16.33-2,.57-2.5.74l-1,.23-.09.17,1.21-.22.12.06-.75.25a6,6,0,0,0-2.21,1.21.39.39,0,0,1-.39,0l-.18-.09a5.89,5.89,0,0,0-1.67.63l-.57.35-.12-.07a1.38,1.38,0,0,1-.32-.28c-.41-.29-.54-.62-.4-1,.85-1.5,1.75-2.11,2.69-1.82l0,.63a1.1,1.1,0,0,0,1.26-.62l1.64-3.05a1.58,1.58,0,0,1-.46,0,1,1,0,0,0-1.17.46,1.19,1.19,0,0,1-.21-.76s0-.1,0-.24a1.69,1.69,0,0,1,.18-1.21c1.06-1.1,1.82-1,2.29.36.25.13.48-.22.71-1l.14-.26a4.18,4.18,0,0,0,1.12-1.79c.44-.64.9-.9,1.36-.8q.39.44-.15,1.44a.9.9,0,0,1-.41.33,1.14,1.14,0,0,0-.2.22,1.76,1.76,0,0,0-.33.48,4.9,4.9,0,0,1-.51.81,5.62,5.62,0,0,1-.9,1.81c-.28.43-.47.73-.56.9a9.62,9.62,0,0,0-.44,1,6.48,6.48,0,0,1-1.1,1.91l4-1.11a.67.67,0,0,0,.3-.27l1.18-2.21A6.36,6.36,0,0,1,51,129.9c.25-.38.47-.69.66-1A3.53,3.53,0,0,0,52,128c0-.06.15-.22.34-.48a3,3,0,0,1,.45-.41,1.14,1.14,0,0,1,.54-.14,1.12,1.12,0,0,1,.15,1.17,11.29,11.29,0,0,1-1,1.42,9.94,9.94,0,0,0-1,1.43c-.17.41-.35.83-.52,1.25a2.65,2.65,0,0,0,1-.21q1-.44,1.38-.24a.87.87,0,0,1,.45.9A1.41,1.41,0,0,1,52.68,133.42Zm-8,2.23c.18-.05.28-.14.3-.28A.63.63,0,0,0,44.65,135.65Z" transform="translate(-1.4 -1.38)"/><path class="cls-6" d="M70,141l-.18,1.14q-.79,3.68-2.49,3.49a1,1,0,0,1-.83-.9c-.41-.07-1,.23-1.74.89a4.46,4.46,0,0,1-.86.64l.54.08a9,9,0,0,0,3.27-.06,12.68,12.68,0,0,1,3.27-.07l.67.11c.3.18.42.59.36,1.22a1.78,1.78,0,0,1-1.12,1,10.74,10.74,0,0,1-2.7,0l-.91,0c-.61,0-1.12.05-1.53.05a8.6,8.6,0,0,1-1.1-.07l-.54-.09c-.89-.21-1.31-.5-1.25-.88l.3-1a1.83,1.83,0,0,1,.8-.65l.16-.17.33-.34c1.13-1,2-1.43,2.57-1.34l.55.09c.45.07.81-.46,1.08-1.58a3.48,3.48,0,0,0-.48-2.22l-.31-.24a.61.61,0,0,1-.25-.62,4.09,4.09,0,0,1,1.94-2.61,1.61,1.61,0,0,0,.47-.32l1.42-1.13,0-.19a1,1,0,0,1-.42,0c-1.44.1-3,.26-4.79.5-.61,0-.89-.2-.86-.72.2-.94.87-1.41,2-1.42a.76.76,0,0,0,.24.23c.2.22.37.32.51.27l.68.11.27,0a7.7,7.7,0,0,1,1.05,0,9,9,0,0,0,1.64-.33l.14,0a1.67,1.67,0,0,1,.87-.25c.67.1.89.46.66,1.07A.87.87,0,0,0,73,135l-.32.24a2.34,2.34,0,0,0-1.13.6,3.37,3.37,0,0,0-.4.33,4.52,4.52,0,0,1-1,.71c-.21.16-.39.3-.54.4a2.5,2.5,0,0,0,.12,1.38c.09.34.16.61.22.81A9.07,9.07,0,0,1,70,141Z" transform="translate(-1.4 -1.38)"/><path class="cls-6" d="M90.8,131.4l.28,1.51c.13-.09.19-.36.2-.82a1.4,1.4,0,0,1,.09-.6c.33-.45.68-.33,1,.39.11.56-.23,1-1,1.17l-.27,0c0,.27-.09.64-.14,1.1,0,.21-.09.38-.11.51l.54-.1a7.63,7.63,0,0,0,1.31-.44,6.78,6.78,0,0,1,1.31-.45c.53-.1.84,0,.91.42s0,.71-.26.83a5.89,5.89,0,0,1-1.74.72l-.61.11a3.59,3.59,0,0,1-1,2.16c-.19.23-.33.39-.4.46l0,.19.14,0a3.65,3.65,0,0,1,1.14-.61.7.7,0,0,1,.78.44,1.81,1.81,0,0,1-.73,1.31,3.58,3.58,0,0,0-.57.69l0,.19.67-.13A.65.65,0,0,1,93,141a1.34,1.34,0,0,1-.45,1,1.69,1.69,0,0,0-.28.35l.07.38a1.72,1.72,0,0,0,.57-.31c.66-.45,1.17-.55,1.55-.29s.35.65.08,1.16a1.57,1.57,0,0,1-1,.58l-.54.1c-.21.11-.27.38-.19.82a2.36,2.36,0,0,0,0,.39,7.34,7.34,0,0,1-.44,2.82c-.65,1.43-1.2,1.73-1.64.9a.92.92,0,0,1-.12-.27.62.62,0,0,0-.29-.44,7.28,7.28,0,0,0-.88-.22c-.13,0-.23.14-.28.35-.05,0-.06,0-.05.1-.72,1.12-1.29,1.29-1.71.52-.1-.5.26-1,1.09-1.57.58-.37,1-.46,1.35-.26l-.24.24a.91.91,0,0,0,.6.18,2,2,0,0,1,.55,0,.6.6,0,0,0,.31.14q.39.23.57.09c.36-.07.53-.62.52-1.66a11,11,0,0,0-.19-1.73A15.75,15.75,0,0,0,88.9,146c-.33.2-.65.38-.94.57a.32.32,0,0,1-.42,0,1,1,0,0,1,0-.68,2.13,2.13,0,0,1,.55-.79s.08-.05.12-.12a10.79,10.79,0,0,1,1.2-1,6.3,6.3,0,0,0,1.2-1l0-.19c-.22.11-.47.22-.78.34a2.43,2.43,0,0,1-1.17.42c-.18,0-.28,0-.31-.14-.07-.38.18-.78.75-1.21a1.72,1.72,0,0,0,.35-.36.54.54,0,0,0,.18-.14,1.52,1.52,0,0,0,.68-1.2,16.8,16.8,0,0,1-1.52.78,1.26,1.26,0,0,1-.79.24c-.33,0-.42-.24-.28-.73a.89.89,0,0,1,.48-.38c.14,0,.22-.07.25-.15a10.45,10.45,0,0,0,3-3.89l-.17-.16a9.09,9.09,0,0,1-1.16.51,7.24,7.24,0,0,0-1.79.83l0,.19a.24.24,0,0,0,.22.05.54.54,0,0,1,.7.36c.07.64-.14,1-.63,1.09s-.6-.21-.72-.84a.78.78,0,0,1,0-.29,2.33,2.33,0,0,0,0-.49,15.89,15.89,0,0,0-3,1.75c-.36.07-.57-.09-.65-.47s.31-.8,1-1.26a.51.51,0,0,0,.25-.15l2.24-1.4a5.58,5.58,0,0,1-.54-3.61c0-.53.21-.82.53-.88s.29.07.34.32,0,.43-.08.7a4.35,4.35,0,0,0,0,1.86c.25.6.54.94.88,1l.64-.31.2,0a1.19,1.19,0,0,0,.46-.87,4.85,4.85,0,0,0,.08-1.78.45.45,0,0,0-.2-.35l-.2,0q-.21,0-.24-.15c-.13-.69,0-1.11.46-1.26C90.44,130.75,90.67,131,90.8,131.4Zm-4,2.92-.06.4c.26-.11.41,0,.47.3,0,.71-.15,1.14-.59,1.29s-.74-.38-.72-1.23S86.28,134,86.75,134.32Zm3.92,13.33,0-.19-.27,0,0,.19Zm4.77-2.08c-.31,1.1-.87,1.08-1.69-.07-.11-.56.09-.86.6-.89A1.24,1.24,0,0,1,95.44,145.57Z" transform="translate(-1.4 -1.38)"/><path class="cls-6" d="M108,127.49l-.44-.85a5.81,5.81,0,0,1-.42-1.08c.06-.1,0-.34-.07-.72a4.75,4.75,0,0,1-.1-.49c.34-1.12.79-1.35,1.33-.7a3.09,3.09,0,0,1,.28,1.26,1.52,1.52,0,0,0,.07.29,10.41,10.41,0,0,0,1,3.14c.34.76.72,1,1.14.71a2.5,2.5,0,0,0,.44-.34,1.8,1.8,0,0,1,.44-.34,1.51,1.51,0,0,1,1.72.61.62.62,0,0,1,0,.41l-.94,1.14c-.22.27-.58.67-1.07,1.21a.81.81,0,0,1-.27.36,2.44,2.44,0,0,0,.08,1.05,9.21,9.21,0,0,0,.21,1,10,10,0,0,1,.32,1.79,8.46,8.46,0,0,1-.19,1.72,8,8,0,0,0-.17.85c0,.16,0,.35-.08.58a22.44,22.44,0,0,1-1.53,5.47,14.13,14.13,0,0,1,.41-3,22.46,22.46,0,0,0,.25-5.12,13.72,13.72,0,0,0-.64-2.69l-.09-.17a2.19,2.19,0,0,0-.64.55c-.23.34-.45.52-.64.55q-.9.48-1.23,0c-.42-.79-.16-1.62.78-2.48a.41.41,0,0,0,.14-.18l.3-.15c.45-.24.65-.49.61-.76a6.07,6.07,0,0,0-.49-2.12A9,9,0,0,0,108,127.49Zm12.12,10.12a.69.69,0,0,0-.4.11q-4.78,1.64-7.19-1.32a.94.94,0,0,1,.42-.66.79.79,0,0,1,.53.26.49.49,0,0,0,.32.16,2.07,2.07,0,0,0,1.14.27,1.23,1.23,0,0,0,.51-.05,16.7,16.7,0,0,0,2.39-.17l.45,0a5.05,5.05,0,0,1,2.84-.19,3.51,3.51,0,0,1-.51.49A1,1,0,0,0,120.12,137.61Z" transform="translate(-1.4 -1.38)"/><path class="cls-6" d="M122.22,117.67a.69.69,0,0,0-.2-.34,1.25,1.25,0,0,1-.19-.34c-.24-.63-.38-1-.43-1.14q-.59-1,.09-1.59c.21-.18.44,0,.7.41.32-.19.64-.38,1-.56l.15-.14a1.58,1.58,0,0,1,.7-.34c.63,1.24.53,1.9-.28,2a.23.23,0,0,1-.22.06c-.53,0-.85,0-1,.21Q123.1,117.55,122.22,117.67Zm4.86-2.11,0-.23.26-.22a.36.36,0,0,0,.24-.46l.37-.31a4.08,4.08,0,0,0,.24-.45l.13.14c.08-.32.25-.47.52-.44l.08-.32.23,0,.09-.32a2.89,2.89,0,0,1,1.47,1.52c.33.9.34,1.47,0,1.74a.62.62,0,0,1-.9,0,5.93,5.93,0,0,0-.2-1.09.43.43,0,0,0-.33,0,8.14,8.14,0,0,0-1,1.36c-.06.14-.12.27-.19.41a.77.77,0,0,1-.19.41,1.3,1.3,0,0,1-.35.43,2.72,2.72,0,0,0-.57.61c-.16.3-.19.37-.09.2-.1.17-.23.4-.39.71l-.13-.15a2.89,2.89,0,0,1-.39.59c-1,1-1.19,1.92-.56,2.73a2.35,2.35,0,0,0,.19.22,1.17,1.17,0,0,1,.2.46,2,2,0,0,0,.08.31c.15.38.11.62-.1.72s-.59.08-.92-.23l-.74-.88a11.53,11.53,0,0,0-.43-1.15,5.8,5.8,0,0,1-.47-1.61c-.16-.54-.12-.91.13-1.12s.52,0,.91.23a3.44,3.44,0,0,0,.44-.75,8.44,8.44,0,0,1,1.85-2.69Zm-1.58-.17c0-.15,0-.31,0-.47a7.9,7.9,0,0,0-.2-2.35.69.69,0,0,0-.19-.34,1.08,1.08,0,0,1-.2-.33.81.81,0,0,1-.11-.66.72.72,0,0,0,0-.28c.07-.14.13-.28.2-.41a.7.7,0,0,1,1.12,0,2.2,2.2,0,0,1,.32,1.23.93.93,0,0,1-.17.65,1.82,1.82,0,0,0-.18.41,3.94,3.94,0,0,0-.19,1.16,3.85,3.85,0,0,1-.12.61,1,1,0,0,0,0,.28Q125.73,115.33,125.5,115.39Zm6.84,5.54.41-.36c.33-.18.65-.37,1-.56.06-.06.18,0,.35.21s.28.26.35.2l0,.47.23.06a.58.58,0,0,0,.08.31,1,1,0,0,1,.08.3,1.11,1.11,0,0,1-.21.81.59.59,0,0,1-.15.25c-.06.14,0,.4.29.77a7,7,0,0,1,.44,2.64,6,6,0,0,1-.12,2.62c-.21.59-.46.72-.75.38l-.51-.82-.56,0a1.15,1.15,0,0,1,1-1.12,2.47,2.47,0,0,0,.3-1.76,3,3,0,0,0-.8-1.59,5,5,0,0,1-1.22,1.53l-.94.8a1.37,1.37,0,0,1-.42.24s-.08,0-.12,0l-.44.12a.45.45,0,0,1-.43.12c-.44-1.23-.1-2.52,1-3.89-.63-.31-.91-1-.85-2a6.43,6.43,0,0,0,0-1c-.15-.46-.35-.62-.6-.5a1.05,1.05,0,0,0-.18.53.53.53,0,0,1-.09.21c-.27.47-.52.94-.78,1.41s-.47.65-.38.83a1.52,1.52,0,0,0,.26.41c.33.39.43.68.29.88a.71.71,0,0,1-.66.06,1.81,1.81,0,0,1-.48-.35,1.44,1.44,0,0,0-.6-.5c-.21-.25-.2-.63,0-1.15,0,0,0,0,0-.12a6.57,6.57,0,0,1,.61-2,2.28,2.28,0,0,1,.51-.56,1.49,1.49,0,0,0,.41-.48l.05,0c.07-.14.15-.29.25-.46a1.8,1.8,0,0,1,1.91.14,2.38,2.38,0,0,1,.37,1.08c.06.28.09.46.1.54a.36.36,0,0,0,.07.19C131.71,120.79,132,121.22,132.34,120.93Z" transform="translate(-1.4 -1.38)"/><path class="cls-7" d="M18.76,108.59,18.14,107l4.16-5.77L18,102.86a2,2,0,0,0-.81.45.63.63,0,0,0,0,.6l.08.21-.2.08-.8-2.07.2-.07.08.21a.6.6,0,0,0,.49.42,2.19,2.19,0,0,0,.84-.21l6.24-2.42.07.16-4.46,6.22,4.56-1.77a1.92,1.92,0,0,0,.81-.44.65.65,0,0,0,0-.61l-.08-.21.2-.07.8,2.06-.2.08-.08-.21a.64.64,0,0,0-.49-.43,2.46,2.46,0,0,0-.84.22l-5.15,2a3.44,3.44,0,0,0-.35.58,1.28,1.28,0,0,0-.07.48,1.1,1.1,0,0,0,.1.4Z" transform="translate(-1.4 -1.38)"/><path class="cls-7" d="M14.69,96.84a2.7,2.7,0,0,1,.66-2.36A4.73,4.73,0,0,1,18,92.93a4.83,4.83,0,0,1,3.13.21,2.66,2.66,0,0,1,1,4.3A4.87,4.87,0,0,1,19.43,99a4.53,4.53,0,0,1-3.24-.3A2.76,2.76,0,0,1,14.69,96.84Zm.44,0A1.57,1.57,0,0,0,16.21,98a5.25,5.25,0,0,0,2.95,0,5.56,5.56,0,0,0,2.77-1.33,1.53,1.53,0,0,0,.47-1.49,1.72,1.72,0,0,0-1.19-1.24,5,5,0,0,0-2.81,0,5.75,5.75,0,0,0-2.82,1.32A1.6,1.6,0,0,0,15.13,96.83Z" transform="translate(-1.4 -1.38)"/><path class="cls-7" d="M21.09,84.54l.17,1.69-3.48,2.51c0,.16,0,.29,0,.39a.53.53,0,0,1,0,.13s0,.09,0,.14l2.29-.23a2,2,0,0,0,.92-.22.59.59,0,0,0,.2-.56l0-.24.21,0,.27,2.71-.21,0,0-.23a.58.58,0,0,0-.38-.54,2.2,2.2,0,0,0-.87,0l-5.1.51a2,2,0,0,0-.92.23.63.63,0,0,0-.2.56l0,.24-.21,0-.23-2.3a4.4,4.4,0,0,1,0-1.5,1.67,1.67,0,0,1,.6-.88,2,2,0,0,1,1.14-.45,2.09,2.09,0,0,1,1.3.25,2,2,0,0,1,.88,1.1l2.13-1.53a3.8,3.8,0,0,0,1-.87,1.72,1.72,0,0,0,.24-.88Zm-3.61,4.9a.86.86,0,0,1,0-.15c0-.05,0-.08,0-.11a1.79,1.79,0,0,0-.63-1.32,1.75,1.75,0,0,0-1.29-.33,1.9,1.9,0,0,0-1.17.49,1.21,1.21,0,0,0-.36,1,3.72,3.72,0,0,0,.18.72Z" transform="translate(-1.4 -1.38)"/><path class="cls-7" d="M13.2,79.12l1.86-.06v.18a2.47,2.47,0,0,0-.7.14,1.07,1.07,0,0,0-.51.38,1.19,1.19,0,0,0-.16.64v.89l6.07,0a2,2,0,0,0,.91-.12.62.62,0,0,0,.25-.55v-.22h.22v2.7h-.22v-.23a.6.6,0,0,0-.3-.57,2.1,2.1,0,0,0-.86-.11l-6.07,0V83a1.91,1.91,0,0,0,.08.64,1,1,0,0,0,.43.42,2.24,2.24,0,0,0,.85.21v.17l-1.86-.08Z" transform="translate(-1.4 -1.38)"/><path class="cls-7" d="M17.15,75.84l.34-2.94-2.25-.26a3.65,3.65,0,0,0-.81,0,.5.5,0,0,0-.27.17.74.74,0,0,0-.19.41l0,.22-.21,0,.31-2.7.22,0,0,.22a.76.76,0,0,0,.09.44.44.44,0,0,0,.26.24,3.18,3.18,0,0,0,.76.14l5.09.6a2.87,2.87,0,0,0,.8,0,.48.48,0,0,0,.27-.16.68.68,0,0,0,.19-.41l0-.22.21,0-.31,2.7-.22,0,0-.23a.61.61,0,0,0-.22-.59,2.08,2.08,0,0,0-.88-.22L17.92,73l-.34,2.94,2.4.28a2.87,2.87,0,0,0,.8,0,.48.48,0,0,0,.27-.16.7.7,0,0,0,.19-.41l0-.23.22,0-.32,2.7-.22,0,0-.22a.61.61,0,0,0-.22-.6,2.19,2.19,0,0,0-.88-.22l-5.09-.6a4.13,4.13,0,0,0-.81,0,.48.48,0,0,0-.27.16.77.77,0,0,0-.19.41l0,.23-.21,0,.31-2.7.22,0,0,.23a.76.76,0,0,0,.09.44.46.46,0,0,0,.26.23,3,3,0,0,0,.76.15Z" transform="translate(-1.4 -1.38)"/><path class="cls-7" d="M16.59,60l.21.06a.71.71,0,0,0,0,.41,1.21,1.21,0,0,0,.33.4,9.27,9.27,0,0,0,.88.53l5.75,3.31,0,.19L18.43,65,23,67.66l0,.16L16.09,68c-.51,0-.82,0-.91,0a.7.7,0,0,0-.39.17.72.72,0,0,0-.21.39l-.21,0L15,66.27l.21,0,0,.12a.49.49,0,0,0,0,.4.5.5,0,0,0,.3.21,5,5,0,0,0,1,0l4.63-.1-3.4-2H17l-.55,0a3,3,0,0,0-.56.08.51.51,0,0,0-.21.1.78.78,0,0,0-.21.19,1,1,0,0,0-.11.26l-.21-.05.63-2.4.21.05-.05.17a.51.51,0,0,0,0,.41.59.59,0,0,0,.34.21,4.59,4.59,0,0,0,1.06.06l4.49-.1L17.9,61.76a4.21,4.21,0,0,0-.92-.45.57.57,0,0,0-.26,0,.37.37,0,0,0-.2.13,1,1,0,0,0-.2.42l-.21,0Z" transform="translate(-1.4 -1.38)"/><path class="cls-7" d="M18.31,56.75l2.92,1.15.51-1.3a1,1,0,0,0,.08-.75,1.5,1.5,0,0,0-.79-.6l.07-.17,2.57,1-.06.16a2.94,2.94,0,0,0-.74-.14.59.59,0,0,0-.4.14,1.2,1.2,0,0,0-.33.5l-.51,1.3,2.44,1a3.42,3.42,0,0,0,.61.2.43.43,0,0,0,.22-.06.63.63,0,0,0,.19-.31l.4-1a2.29,2.29,0,0,0,.19-.76,1.09,1.09,0,0,0-.17-.57,4.56,4.56,0,0,0-.8-1l.07-.17,1.65,1.23-1.78,4.57-.21-.08.08-.21a.76.76,0,0,0,0-.45.51.51,0,0,0-.19-.29,3.6,3.6,0,0,0-.7-.33l-4.8-1.88a2.08,2.08,0,0,0-.92-.23.66.66,0,0,0-.42.44l-.08.21-.2-.08L19,53.72l1.65.57-.07.17a2.79,2.79,0,0,0-.88-.11.79.79,0,0,0-.46.19,1.68,1.68,0,0,0-.32.59Z" transform="translate(-1.4 -1.38)"/><path class="cls-7" d="M21.55,48,24,49.22l-.08.16a4,4,0,0,0-1.26-.29,1.8,1.8,0,0,0-.95.22,1.42,1.42,0,0,0-.61.63,1,1,0,0,0,0,.88,1.24,1.24,0,0,0,.62.67,1.21,1.21,0,0,0,.68.11,5.13,5.13,0,0,0,1.66-.72,9.71,9.71,0,0,1,1.37-.68,2,2,0,0,1,.89-.11,2.36,2.36,0,0,1,.9.24,2.3,2.3,0,0,1,1.14,1.2,1.79,1.79,0,0,1-.06,1.58,2.2,2.2,0,0,1-.28.44,3.54,3.54,0,0,1-.45.45,2.27,2.27,0,0,0-.43.43.26.26,0,0,0,0,.21.79.79,0,0,0,.28.25l-.08.15-2.44-1.21.08-.15a4.47,4.47,0,0,0,1.29.27,1.67,1.67,0,0,0,.91-.25,1.59,1.59,0,0,0,.67-.71,1.18,1.18,0,0,0,.07-1,1.4,1.4,0,0,0-.67-.71,1.6,1.6,0,0,0-.59-.15,1.86,1.86,0,0,0-.68.11c-.15.06-.53.25-1.11.57a8.87,8.87,0,0,1-1.33.63,2.43,2.43,0,0,1-.91.14,2.25,2.25,0,0,1-.88-.25,2.2,2.2,0,0,1-1.09-1.12,1.68,1.68,0,0,1,0-1.47,2.19,2.19,0,0,1,.76-.83,1,1,0,0,0,.29-.26.25.25,0,0,0,0-.22.83.83,0,0,0-.27-.28Z" transform="translate(-1.4 -1.38)"/><path class="cls-7" d="M25.53,41.56l1.63.92-.09.15a2.78,2.78,0,0,0-.68-.25,1.17,1.17,0,0,0-.63.07,1.07,1.07,0,0,0-.46.46l-.47.76L30,46.84a2.2,2.2,0,0,0,.85.37.63.63,0,0,0,.49-.35l.12-.18.18.11-1.4,2.3L30.06,49l.12-.19a.62.62,0,0,0,0-.65,2.21,2.21,0,0,0-.68-.54l-5.18-3.16-.4.65a2,2,0,0,0-.26.58.94.94,0,0,0,.15.58,2.15,2.15,0,0,0,.62.63l-.09.15-1.55-1Z" transform="translate(-1.4 -1.38)"/><path class="cls-7" d="M27.9,39l2.51,1.88.84-1.12a1,1,0,0,0,.27-.71,1.55,1.55,0,0,0-.6-.78l.11-.14,2.21,1.66-.1.13a4,4,0,0,0-.68-.34.76.76,0,0,0-.42,0,1.17,1.17,0,0,0-.45.41l-.84,1.11,2.1,1.57a3.28,3.28,0,0,0,.54.36.41.41,0,0,0,.22,0c.08,0,.16-.1.27-.24l.65-.87a2.53,2.53,0,0,0,.39-.68,1.13,1.13,0,0,0,0-.6,4.28,4.28,0,0,0-.52-1.13l.12-.15L35.76,41l-2.93,3.92-.17-.12.13-.19a.76.76,0,0,0,.15-.42.46.46,0,0,0-.11-.33,3.14,3.14,0,0,0-.58-.5l-4.13-3.09a2.17,2.17,0,0,0-.82-.47.69.69,0,0,0-.53.32l-.13.18-.17-.13,2.93-3.93,1.44,1-.11.15a3.43,3.43,0,0,0-.82-.35.85.85,0,0,0-.5.07,1.92,1.92,0,0,0-.47.48Z" transform="translate(-1.4 -1.38)"/><path class="cls-7" d="M40.92,35.24l-1.15,1.24-4.19-.93-.25.29-.09.1-.11.1,1.7,1.56a2,2,0,0,0,.77.54.61.61,0,0,0,.55-.22l.17-.18.16.14-1.85,2-.15-.15.16-.18a.6.6,0,0,0,.15-.64,2.51,2.51,0,0,0-.57-.66l-3.77-3.48a1.85,1.85,0,0,0-.78-.53.59.59,0,0,0-.55.22l-.17.18-.16-.15,1.57-1.7a4.61,4.61,0,0,1,1.15-1,1.75,1.75,0,0,1,1.05-.13,2.06,2.06,0,0,1,1.1.55,2.11,2.11,0,0,1,.67,1.14,2,2,0,0,1-.24,1.39l2.57.58a4,4,0,0,0,1.29.14,1.71,1.71,0,0,0,.81-.4Zm-6.06.55.11-.11L35,35.6a1.81,1.81,0,0,0,.57-1.34A1.75,1.75,0,0,0,35,33.07a1.88,1.88,0,0,0-1.14-.55,1.18,1.18,0,0,0-1,.41,2.73,2.73,0,0,0-.42.62Z" transform="translate(-1.4 -1.38)"/><path class="cls-7" d="M36.05,28.89l1.31-1.12,6.82,2-3-3.49c-.32-.37-.55-.58-.69-.61a.61.61,0,0,0-.58.17l-.17.14-.14-.17,1.69-1.43.14.17-.17.14a.59.59,0,0,0-.24.6,2.22,2.22,0,0,0,.48.72l4.34,5.1-.13.11L38.4,29.09l3.17,3.72c.32.37.55.58.69.61a.63.63,0,0,0,.58-.16l.17-.15.14.17-1.69,1.43-.13-.16.16-.15a.58.58,0,0,0,.24-.6,2,2,0,0,0-.47-.72l-3.58-4.21a3.5,3.5,0,0,0-.67-.13,1.11,1.11,0,0,0-.47.09,1,1,0,0,0-.35.22Z" transform="translate(-1.4 -1.38)"/><path class="cls-7" d="M48.93,24.39l1.18,2a1.87,1.87,0,0,0,.59.73.6.6,0,0,0,.59-.05l.21-.12.11.18-2.34,1.39-.11-.18.21-.13a.57.57,0,0,0,.32-.57,2.22,2.22,0,0,0-.36-.79l-2.62-4.41a2,2,0,0,0-.58-.74.6.6,0,0,0-.6.06l-.21.12-.11-.19,2-1.19a3.48,3.48,0,0,1,1.26-.5,1.92,1.92,0,0,1,1.1.22,2.24,2.24,0,0,1,.92.89,2.34,2.34,0,0,1,.36,1.62A1.74,1.74,0,0,1,49.93,24a2.36,2.36,0,0,1-.45.22C49.31,24.27,49.13,24.33,48.93,24.39Zm-.18-.29.43-.15a2.15,2.15,0,0,0,.3-.14A1,1,0,0,0,50,23a2.06,2.06,0,0,0-.32-1.24A2.67,2.67,0,0,0,49,21a1.33,1.33,0,0,0-.74-.33,1.2,1.2,0,0,0-.72.17,2.27,2.27,0,0,0-.47.41Z" transform="translate(-1.4 -1.38)"/><path class="cls-7" d="M54.44,16.64a2.64,2.64,0,0,1,2.43.25,4.71,4.71,0,0,1,2,2.35,4.79,4.79,0,0,1,.32,3.12,2.65,2.65,0,0,1-4.06,1.75,4.85,4.85,0,0,1-2-2.44,4.56,4.56,0,0,1-.25-3.24A2.72,2.72,0,0,1,54.44,16.64Zm.09.43a1.56,1.56,0,0,0-1,1.26,5.29,5.29,0,0,0,.53,2.9,5.62,5.62,0,0,0,1.77,2.51,1.59,1.59,0,0,0,1.56.21,1.75,1.75,0,0,0,1-1.38,5.07,5.07,0,0,0-.53-2.77,5.78,5.78,0,0,0-1.77-2.55A1.59,1.59,0,0,0,54.53,17.07Z" transform="translate(-1.4 -1.38)"/><path class="cls-7" d="M66.74,19.24h.16l-.08,2.23L62,22.5l0-.21.23-.05a.6.6,0,0,0,.5-.44,2.21,2.21,0,0,0-.09-.87l-1.06-5a2.12,2.12,0,0,0-.33-.88.62.62,0,0,0-.58-.14l-.24,0,0-.21,2.81-.6.05.21a1.56,1.56,0,0,0-.67.26.61.61,0,0,0-.21.37,3.15,3.15,0,0,0,.11.89l1,4.88a1.89,1.89,0,0,0,.22.64.35.35,0,0,0,.2.14,2.64,2.64,0,0,0,.73-.09l.45-.1a2.64,2.64,0,0,0,1-.35,1.32,1.32,0,0,0,.43-.58A4.35,4.35,0,0,0,66.74,19.24Z" transform="translate(-1.4 -1.38)"/><path class="cls-7" d="M71.14,13l2.21-.19v.22h-.12a.8.8,0,0,0-.34.17,1.32,1.32,0,0,0-.39.42,5.24,5.24,0,0,0-.41.85l-1.27,3.14.17,2a2,2,0,0,0,.2.9.64.64,0,0,0,.58.2H72l0,.21-2.69.23,0-.22.22,0a.61.61,0,0,0,.55-.35,2.09,2.09,0,0,0,0-.86l-.16-1.87-2-3.17a5.86,5.86,0,0,0-.47-.7,2,2,0,0,0-.49-.31.55.55,0,0,0-.28,0v-.21l2.71-.23v.21l-.14,0a.67.67,0,0,0-.39.16.44.44,0,0,0-.15.4,2.11,2.11,0,0,0,.35.74l1.53,2.44,1-2.55a1.92,1.92,0,0,0,.21-.84.66.66,0,0,0-.09-.29.46.46,0,0,0-.21-.18.73.73,0,0,0-.38,0Z" transform="translate(-1.4 -1.38)"/><path class="cls-7" d="M80.62,13.06v1.87h-.18a2.92,2.92,0,0,0-.11-.71A1.06,1.06,0,0,0,80,13.7a1,1,0,0,0-.63-.19l-.89,0-.23,6.06a2,2,0,0,0,.09.92.63.63,0,0,0,.54.27h.22V21l-2.69-.1v-.21h.23a.59.59,0,0,0,.58-.28,2.09,2.09,0,0,0,.14-.85l.23-6.07-.76,0a1.77,1.77,0,0,0-.64.06,1,1,0,0,0-.43.41,1.91,1.91,0,0,0-.24.85h-.18l.15-1.86Z" transform="translate(-1.4 -1.38)"/><path class="cls-7" d="M84.06,13.88,83.64,17l1.38.18a1,1,0,0,0,.75-.1,1.58,1.58,0,0,0,.39-.91l.18,0L86,18.94l-.18,0a3.4,3.4,0,0,0,0-.75.64.64,0,0,0-.23-.36,1.11,1.11,0,0,0-.57-.19l-1.38-.19L83.23,20a2.52,2.52,0,0,0,0,.64.35.35,0,0,0,.1.19.7.7,0,0,0,.35.12l1.07.14a2.38,2.38,0,0,0,.79,0,1.23,1.23,0,0,0,.51-.31,5,5,0,0,0,.74-1l.18,0-.81,1.9-4.85-.66,0-.21.22,0a.7.7,0,0,0,.44-.08.45.45,0,0,0,.24-.25,4.14,4.14,0,0,0,.16-.75L83,14.7a2,2,0,0,0,0-.94.62.62,0,0,0-.52-.3l-.23,0,0-.22,4.86.66L87,15.6l-.18,0a3.12,3.12,0,0,0-.1-.88.88.88,0,0,0-.3-.41,1.82,1.82,0,0,0-.64-.17Z" transform="translate(-1.4 -1.38)"/><path class="cls-7" d="M94.74,15.29,94.27,18l-.14,0A3.68,3.68,0,0,0,93.72,16a1.87,1.87,0,0,0-1.15-.81,1.79,1.79,0,0,0-1.2.14,2.63,2.63,0,0,0-1.07,1.06,7.23,7.23,0,0,0-.78,2.07,5.73,5.73,0,0,0-.15,1.88,2.49,2.49,0,0,0,.54,1.37,2.07,2.07,0,0,0,1.14.7,1.92,1.92,0,0,0,1.14-.08,4,4,0,0,0,1.31-1.05l.12.15a4,4,0,0,1-1.44,1.26,2.45,2.45,0,0,1-1.59.14,2.72,2.72,0,0,1-2-2,4.89,4.89,0,0,1-.06-2.64,5.49,5.49,0,0,1,.91-2A3.71,3.71,0,0,1,90.88,15a2.69,2.69,0,0,1,1.72-.16,2.59,2.59,0,0,1,1.23.71.63.63,0,0,0,.24.19.28.28,0,0,0,.24-.06,1,1,0,0,0,.27-.39Z" transform="translate(-1.4 -1.38)"/><path class="cls-7" d="M97.16,20,100,21l.72-2.16a2.92,2.92,0,0,0,.19-.78.45.45,0,0,0-.1-.3.78.78,0,0,0-.36-.27l-.22-.07.07-.2,2.58.86-.07.2-.21-.07a.76.76,0,0,0-.45,0,.48.48,0,0,0-.28.21,4.26,4.26,0,0,0-.3.72L99.91,24a2.92,2.92,0,0,0-.19.78.51.51,0,0,0,.1.3.78.78,0,0,0,.36.27l.22.07-.07.2-2.58-.86.07-.2.21.07a.63.63,0,0,0,.63-.09,2.06,2.06,0,0,0,.4-.82l.76-2.3L97,20.45l-.76,2.29a3.18,3.18,0,0,0-.2.78.53.53,0,0,0,.11.3.78.78,0,0,0,.36.27l.22.07-.07.21-2.59-.86.07-.21.22.07a.63.63,0,0,0,.63-.09,2.16,2.16,0,0,0,.39-.82L97,17.6a3.22,3.22,0,0,0,.2-.79.51.51,0,0,0-.1-.3.81.81,0,0,0-.37-.27l-.21-.07.07-.2,2.58.86-.07.21L98.91,17a.77.77,0,0,0-.45,0,.43.43,0,0,0-.28.2,3,3,0,0,0-.3.72Z" transform="translate(-1.4 -1.38)"/><path class="cls-7" d="M104.08,18.51l1.57.71,1.12,7,1.87-4.18a1.9,1.9,0,0,0,.25-.89.62.62,0,0,0-.4-.45l-.2-.09.09-.2,2,.91-.09.2-.2-.1a.6.6,0,0,0-.65,0,2,2,0,0,0-.44.74l-2.74,6.11-.15-.07-1.22-7.55-2,4.47a1.93,1.93,0,0,0-.26.88.62.62,0,0,0,.4.45l.2.09-.09.2-2-.9.08-.2.21.09a.61.61,0,0,0,.65,0,2.36,2.36,0,0,0,.44-.74L104.8,20a3.29,3.29,0,0,0-.17-.65,1.44,1.44,0,0,0-.28-.39,1.12,1.12,0,0,0-.36-.22Z" transform="translate(-1.4 -1.38)"/><path class="cls-7" d="M110.21,30.05l-.1.19-2.4-1.3.1-.19.2.11a.64.64,0,0,0,.64,0,2.1,2.1,0,0,0,.53-.74l2.43-4.52a3.92,3.92,0,0,0,.33-.73.53.53,0,0,0,0-.32.8.8,0,0,0-.31-.32l-.2-.11.1-.19,2.4,1.29-.11.19-.2-.11a.6.6,0,0,0-.63,0,2,2,0,0,0-.53.74L110,28.56a3,3,0,0,0-.32.74.5.5,0,0,0,0,.31.83.83,0,0,0,.31.33Z" transform="translate(-1.4 -1.38)"/><path class="cls-7" d="M119.81,26.67,118.49,29l-.13-.08A3.55,3.55,0,0,0,118.6,27a1.77,1.77,0,0,0-.8-1.14,1.81,1.81,0,0,0-1.18-.28,2.68,2.68,0,0,0-1.37.65A7.16,7.16,0,0,0,113.83,28a5.63,5.63,0,0,0-.77,1.73,2.51,2.51,0,0,0,0,1.47,2,2,0,0,0,.85,1,1.82,1.82,0,0,0,1.09.31,4.21,4.21,0,0,0,1.59-.55l.06.17a4,4,0,0,1-1.78.72,2.42,2.42,0,0,1-1.54-.4,2.73,2.73,0,0,1-1.28-2.55,5.05,5.05,0,0,1,.83-2.51,5.56,5.56,0,0,1,1.54-1.62,3.57,3.57,0,0,1,1.82-.67,2.76,2.76,0,0,1,1.67.41,2.55,2.55,0,0,1,.92,1.09.6.6,0,0,0,.17.26.28.28,0,0,0,.24,0,.8.8,0,0,0,.38-.28Z" transform="translate(-1.4 -1.38)"/><path class="cls-7" d="M121.5,34.81l-1.92-1.53-1.13.71a2.19,2.19,0,0,0-.55.44.38.38,0,0,0-.09.33,1,1,0,0,0,.35.51l-.13.17-1.57-1.25.14-.17a.91.91,0,0,0,.54.15,4.17,4.17,0,0,0,1.13-.56l5.83-3.71.13.1-2.4,6.55a2.92,2.92,0,0,0-.27,1.11.84.84,0,0,0,.31.58l-.14.17-2-1.57.14-.16a.78.78,0,0,0,.5.19.42.42,0,0,0,.31-.17,2.59,2.59,0,0,0,.36-.75Zm.16-.41,1.17-3.18L120,33Z" transform="translate(-1.4 -1.38)"/><path class="cls-7" d="M127.67,41.26l.08.14-1.91,1.13L122.38,39l.15-.15.17.17a.61.61,0,0,0,.64.18,2.31,2.31,0,0,0,.68-.54l3.65-3.61a2.07,2.07,0,0,0,.57-.75.63.63,0,0,0-.2-.56l-.17-.17.15-.16,2,2.05-.16.15a1.45,1.45,0,0,0-.58-.42.67.67,0,0,0-.42,0,3.09,3.09,0,0,0-.69.58l-3.54,3.51a2,2,0,0,0-.42.52.31.31,0,0,0,0,.25,2,2,0,0,0,.47.56L125,41a2.64,2.64,0,0,0,.82.64,1.37,1.37,0,0,0,.71,0A4.41,4.41,0,0,0,127.67,41.26Z" transform="translate(-1.4 -1.38)"/><path class="cls-7" d="M137.1,44.37l.18-.13,1.3,1.84-.18.13-.14-.2a.63.63,0,0,0-.65-.24,2.07,2.07,0,0,0-.74.4L134.24,48a7.21,7.21,0,0,1-1.63.91,2.29,2.29,0,0,1-1.35,0A2.27,2.27,0,0,1,130,48a2.41,2.41,0,0,1-.54-1.55,2.44,2.44,0,0,1,.54-1.33,8.54,8.54,0,0,1,1.51-1.25l2.54-1.79a2,2,0,0,0,.69-.69.6.6,0,0,0-.12-.56l-.13-.2.17-.12,1.59,2.24-.18.13-.14-.2a.57.57,0,0,0-.58-.28,1.92,1.92,0,0,0-.78.41l-2.83,2a8.4,8.4,0,0,0-.82.67,2.58,2.58,0,0,0-.62.74,1.3,1.3,0,0,0-.15.73,1.43,1.43,0,0,0,.29.8,1.94,1.94,0,0,0,.93.72,1.7,1.7,0,0,0,1.09,0,5.79,5.79,0,0,0,1.57-.89l2.63-1.86a2,2,0,0,0,.68-.64.63.63,0,0,0-.1-.6Z" transform="translate(-1.4 -1.38)"/><path class="cls-7" d="M139.64,47.8l.77,1.55-3.59,6.14,4.1-2.05a1.94,1.94,0,0,0,.76-.53.64.64,0,0,0,0-.6l-.1-.2.2-.09,1,2-.2.09-.1-.2a.59.59,0,0,0-.53-.37,2.1,2.1,0,0,0-.81.29l-6,3-.07-.15L138.89,50l-4.38,2.19a2,2,0,0,0-.76.52.62.62,0,0,0,0,.6l.1.21-.2.09-1-2,.2-.09.09.19a.6.6,0,0,0,.53.38,2.07,2.07,0,0,0,.82-.29l4.94-2.47a4.08,4.08,0,0,0,.29-.61,1.51,1.51,0,0,0,0-.49,1.33,1.33,0,0,0-.13-.39Z" transform="translate(-1.4 -1.38)"/><path class="cls-7" d="M137.05,61l-.21.08-.93-2.56.2-.08.08.22a.65.65,0,0,0,.47.44,2.45,2.45,0,0,0,.88-.21l4.83-1.75a3.14,3.14,0,0,0,.72-.33.59.59,0,0,0,.18-.27.76.76,0,0,0,0-.45l-.08-.21.21-.08.93,2.56-.21.08-.07-.22a.65.65,0,0,0-.47-.44,2.2,2.2,0,0,0-.89.2l-4.82,1.76a3.07,3.07,0,0,0-.73.33.53.53,0,0,0-.17.27.69.69,0,0,0,0,.45Z" transform="translate(-1.4 -1.38)"/><path class="cls-7" d="M146.49,66.55l-.21,0a1,1,0,0,0-.38-.44,2.66,2.66,0,0,0-1-.22l-7.09-.59,0-.17,6.11-3.9a4.19,4.19,0,0,0,.57-.4.91.91,0,0,0,.21-.35,1.07,1.07,0,0,0,0-.48l.21,0,.6,2.53-.21,0a1,1,0,0,0-.31-.52.47.47,0,0,0-.37,0,2.89,2.89,0,0,0-.84.42l-4.16,2.65,4.83.39a3.65,3.65,0,0,0,1,0,.49.49,0,0,0,.29-.21.86.86,0,0,0,.11-.5v-.08l.21,0Z" transform="translate(-1.4 -1.38)"/><path class="cls-7" d="M146.53,70.65l-3.13.28.13,1.39a1,1,0,0,0,.26.71,1.53,1.53,0,0,0,1,.18l0,.18-2.76.24v-.17a4.19,4.19,0,0,0,.73-.2.72.72,0,0,0,.3-.3,1.32,1.32,0,0,0,.06-.6L143,71l-2.61.23a3.36,3.36,0,0,0-.64.09.35.35,0,0,0-.17.15.6.6,0,0,0,0,.36l.09,1.07a2.44,2.44,0,0,0,.16.77,1.29,1.29,0,0,0,.41.44,4.79,4.79,0,0,0,1.15.49v.19l-2-.37-.43-4.88.22,0,0,.22a.77.77,0,0,0,.17.42.51.51,0,0,0,.3.18,3.49,3.49,0,0,0,.77,0l5.14-.45a2.08,2.08,0,0,0,.92-.2.67.67,0,0,0,.18-.58l0-.23.22,0,.43,4.88-1.73.23,0-.19a3.35,3.35,0,0,0,.84-.29.81.81,0,0,0,.33-.38,2.11,2.11,0,0,0,0-.67Z" transform="translate(-1.4 -1.38)"/><path class="cls-7" d="M139.14,82.31l.07-1.69,3.8-2c0-.16,0-.29,0-.39a.62.62,0,0,1,0-.13s0-.09,0-.14l-2.3-.1a1.78,1.78,0,0,0-.94.09.59.59,0,0,0-.28.52v.25h-.22l.12-2.72h.22v.24a.59.59,0,0,0,.3.59,2.34,2.34,0,0,0,.86.13l5.12.22a2.06,2.06,0,0,0,.94-.09.61.61,0,0,0,.28-.53v-.24h.22l-.1,2.31a4.43,4.43,0,0,1-.25,1.49,1.79,1.79,0,0,1-.72.78,2,2,0,0,1-1.19.29,2.17,2.17,0,0,1-1.25-.44,2,2,0,0,1-.71-1.22l-2.34,1.22a3.89,3.89,0,0,0-1.07.73,1.73,1.73,0,0,0-.37.82ZM143.41,78a.81.81,0,0,1,0,.16.31.31,0,0,1,0,.1,1.79,1.79,0,0,0,.44,1.39,1.7,1.7,0,0,0,1.23.52,1.94,1.94,0,0,0,1.23-.32,1.19,1.19,0,0,0,.5-1,3.32,3.32,0,0,0-.08-.74Z" transform="translate(-1.4 -1.38)"/><path class="cls-7" d="M146.39,88.4,143.67,88l0-.18a3.83,3.83,0,0,0,1.29-.1,1.82,1.82,0,0,0,.84-.49,1.53,1.53,0,0,0,.4-.79,1,1,0,0,0-.24-.85,1.3,1.3,0,0,0-.79-.45,1.17,1.17,0,0,0-.69.1,5.32,5.32,0,0,0-1.37,1.18,8.85,8.85,0,0,1-1.09,1.06,2.25,2.25,0,0,1-.83.38,2.37,2.37,0,0,1-.92,0,2.29,2.29,0,0,1-1.45-.8,1.81,1.81,0,0,1-.42-1.52,2.72,2.72,0,0,1,.13-.51,5.84,5.84,0,0,1,.31-.56,2.06,2.06,0,0,0,.27-.54.24.24,0,0,0-.06-.2,1,1,0,0,0-.34-.16l0-.17,2.69.43,0,.17a4.14,4.14,0,0,0-1.31.13,1.72,1.72,0,0,0-.8.51,1.62,1.62,0,0,0-.42.87,1.15,1.15,0,0,0,.23,1A1.41,1.41,0,0,0,140,87a1.59,1.59,0,0,0,.61,0,1.68,1.68,0,0,0,.61-.31,11.44,11.44,0,0,0,.89-.87,8.32,8.32,0,0,1,1.09-1,2.24,2.24,0,0,1,.82-.4,2.17,2.17,0,0,1,.92,0,2.2,2.2,0,0,1,1.37.75,1.67,1.67,0,0,1,.4,1.42,2.25,2.25,0,0,1-.47,1,.85.85,0,0,0-.2.34.23.23,0,0,0,0,.21.91.91,0,0,0,.35.18Z" transform="translate(-1.4 -1.38)"/><path class="cls-7" d="M137.66,91.24l-.21,0,.62-2.65.21,0-.05.22a.61.61,0,0,0,.15.62,2,2,0,0,0,.85.32l5,1.17A3.27,3.27,0,0,0,145,91a.45.45,0,0,0,.29-.13.73.73,0,0,0,.23-.38l.05-.22.22,0L145.18,93,145,93l.06-.23a.62.62,0,0,0-.15-.61,2.09,2.09,0,0,0-.86-.32l-5-1.17a3.08,3.08,0,0,0-.79-.13.49.49,0,0,0-.29.14.77.77,0,0,0-.24.38Z" transform="translate(-1.4 -1.38)"/><path class="cls-7" d="M143.31,99.34l-1.8-.48.05-.17a2.65,2.65,0,0,0,.71.07,1.08,1.08,0,0,0,.6-.22,1.14,1.14,0,0,0,.34-.56l.27-.85-5.8-1.81a2.12,2.12,0,0,0-.91-.15.67.67,0,0,0-.4.45l-.06.21-.21-.06.8-2.57.21.06-.07.22a.59.59,0,0,0,.12.63,2.19,2.19,0,0,0,.79.35l5.79,1.81.23-.73a1.63,1.63,0,0,0,.11-.63,1,1,0,0,0-.28-.53,2.15,2.15,0,0,0-.76-.45l.05-.17,1.76.63Z" transform="translate(-1.4 -1.38)"/><path class="cls-7" d="M141.1,104.94l-.85,2-.2-.09,0-.11a.84.84,0,0,0,0-.38,1.49,1.49,0,0,0-.2-.54,5.13,5.13,0,0,0-.58-.75l-2.2-2.57-1.84-.77a1.88,1.88,0,0,0-.89-.22.6.6,0,0,0-.44.42l-.08.19-.2-.08,1-2.5.2.09-.09.21a.59.59,0,0,0,.07.64,2.22,2.22,0,0,0,.75.42l1.73.72,3.75-.34a7.21,7.21,0,0,0,.83-.1,1.61,1.61,0,0,0,.5-.29.47.47,0,0,0,.16-.23l.2.08-1,2.52-.2-.09.06-.13a.74.74,0,0,0,0-.42.45.45,0,0,0-.28-.32,2.35,2.35,0,0,0-.82,0l-2.87.25,1.78,2.09a2.23,2.23,0,0,0,.65.57.68.68,0,0,0,.3,0,.46.46,0,0,0,.26-.1.85.85,0,0,0,.22-.32Z" transform="translate(-1.4 -1.38)"/><circle class="cls-7" cx="47.02" cy="43.48" r="0.62"/><circle class="cls-7" cx="50.6" cy="40.49" r="0.62"/><circle class="cls-7" cx="56.09" cy="41.87" r="0.62"/><circle class="cls-7" cx="50.71" cy="44.55" r="0.62"/><circle class="cls-7" cx="46.36" cy="48.3" r="0.62"/><circle class="cls-7" cx="46.57" cy="53.21" r="0.62"/><circle class="cls-7" cx="40.8" cy="50.23" r="0.62"/><circle class="cls-7" cx="51.67" cy="49.51" r="0.62"/><circle class="cls-7" cx="37.28" cy="56.96" r="0.62"/><circle class="cls-7" cx="43.52" cy="56.15" r="0.62"/><circle class="cls-7" cx="34.47" cy="63.35" r="0.62"/><circle class="cls-7" cx="41.44" cy="64.02" r="0.62"/><circle class="cls-7" cx="42.25" cy="59.79" r="0.62"/><circle class="cls-7" cx="36.99" cy="65.93" r="0.62"/><circle class="cls-7" cx="38.43" cy="69.74" r="0.62"/><circle class="cls-7" cx="33.01" cy="69.14" r="0.62"/><circle class="cls-7" cx="32.98" cy="75.56" r="0.62"/><circle class="cls-7" cx="38.96" cy="75.76" r="0.62"/><circle class="cls-7" cx="32.14" cy="82.48" r="0.62"/><circle class="cls-7" cx="39.01" cy="81.11" r="0.62"/><circle class="cls-7" cx="41.78" cy="86.38" r="0.62"/><circle class="cls-7" cx="41.24" cy="92.1" r="0.62"/><circle class="cls-7" cx="42.04" cy="96.07" r="0.62"/><circle class="cls-7" cx="38.56" cy="97.34" r="0.62"/><circle class="cls-7" cx="40.68" cy="104.64" r="0.62"/><circle class="cls-7" cx="46.1" cy="102.1" r="0.62"/><circle class="cls-7" cx="43.09" cy="111.19" r="0.62"/><circle class="cls-7" cx="48.57" cy="106.84" r="0.62"/><circle class="cls-7" cx="52.16" cy="109.03" r="0.62"/><circle class="cls-7" cx="49.85" cy="113.09" r="0.62"/><circle class="cls-7" cx="81.13" cy="37.18" r="0.62"/><circle class="cls-7" cx="75.48" cy="38.82" r="0.62"/><circle class="cls-7" cx="77.03" cy="33.13" r="0.62"/><circle class="cls-7" cx="70.8" cy="38.23" r="0.62"/><circle class="cls-7" cx="70.35" cy="33.39" r="0.62"/><circle class="cls-7" cx="62.95" cy="35.13" r="0.62"/><circle class="cls-7" cx="65.2" cy="40.67" r="0.62"/><circle class="cls-7" cx="56.28" cy="37.18" r="0.62"/><circle class="cls-7" cx="60.33" cy="42.89" r="0.62"/><circle class="cls-7" cx="107.39" cy="45.42" r="0.62"/><circle class="cls-7" cx="99.28" cy="40.09" r="0.62"/><circle class="cls-7" cx="100.24" cy="36.5" r="0.62"/><circle class="cls-7" cx="93.03" cy="34.07" r="0.62"/><circle class="cls-7" cx="92.02" cy="39.97" r="0.62"/><circle class="cls-7" cx="86.29" cy="32.3" r="0.62"/><circle class="cls-7" cx="86.71" cy="39.28" r="0.62"/><circle class="cls-7" cx="118.77" cy="67.35" r="0.62"/><circle class="cls-7" cx="117.27" cy="61.8" r="0.62"/><circle class="cls-7" cx="115.13" cy="58.36" r="0.62"/><circle class="cls-7" cx="117.96" cy="55.95" r="0.62"/><circle class="cls-7" cx="121.83" cy="61.21" r="0.62"/><circle class="cls-7" cx="113.42" cy="49.85" r="0.62"/><circle class="cls-7" cx="109.23" cy="54.12" r="0.62"/><circle class="cls-7" cx="108.88" cy="44.56" r="0.62"/><circle class="cls-7" cx="105.26" cy="50.55" r="0.62"/><circle class="cls-7" cx="113.26" cy="95.63" r="0.62"/><circle class="cls-7" cx="119.03" cy="93.08" r="0.62"/><circle class="cls-7" cx="117.8" cy="88.54" r="0.62"/><circle class="cls-7" cx="122.6" cy="89.12" r="0.62"/><circle class="cls-7" cx="124.27" cy="81.01" r="0.62"/><circle class="cls-7" cx="118.35" cy="80.13" r="0.62"/><circle class="cls-7" cx="125.88" cy="74.23" r="0.62"/><circle class="cls-7" cx="123.08" cy="69.06" r="0.62"/><circle class="cls-7" cx="118.91" cy="74.81" r="0.62"/><circle class="cls-7" cx="107.03" cy="114.31" r="0.62"/><circle class="cls-7" cx="104.28" cy="109.75" r="0.62"/><circle class="cls-7" cx="107.47" cy="107.25" r="0.62"/><circle class="cls-7" cx="110.16" cy="109.81" r="0.62"/><circle class="cls-7" cx="115.75" cy="104.65" r="0.62"/><circle class="cls-7" cx="111.06" cy="100.93" r="0.62"/><circle class="cls-7" cx="120.53" cy="99.58" r="0.62"/><circle class="cls-7" cx="114.9" cy="98.57" r="0.62"/></svg>