<?xml version="1.0" encoding="UTF-8"?>
<!DOCTYPE svg PUBLIC "-//W3C//DTD SVG 1.1//EN" "http://www.w3.org/Graphics/SVG/1.1/DTD/svg11.dtd">
<svg xmlns="http://www.w3.org/2000/svg" version="1.1" width="500px" height="500px" style="shape-rendering:geometricPrecision; text-rendering:geometricPrecision; image-rendering:optimizeQuality; fill-rule:evenodd; clip-rule:evenodd" xmlns:xlink="http://www.w3.org/1999/xlink">
<g><path style="opacity:1" fill="#f8fafa" d="M 239.5,89.5 C 255.617,88.9403 271.617,89.9403 287.5,92.5C 295.892,94.6308 304.225,96.9641 312.5,99.5C 318.374,102.351 324.374,105.018 330.5,107.5C 390.484,143.106 419.484,196.106 417.5,266.5C 416.049,271.959 415.049,277.626 414.5,283.5C 395.272,359.671 346.605,403.504 268.5,415C 192.328,418.014 137.495,385.514 104,317.5C 101.566,310.685 99.0661,304.018 96.5,297.5C 96.7062,294.505 96.0395,291.838 94.5,289.5C 81.3934,214.438 106.06,155.438 168.5,112.5C 190.538,99.375 214.205,91.7084 239.5,89.5 Z"/></g>
<g><path style="opacity:1" fill="#3162a2" d="M 309.5,91.5 C 312.647,91.7366 315.647,92.5699 318.5,94C 325.005,96.4166 331.005,99.5833 336.5,103.5C 334.516,103.383 332.85,104.05 331.5,105.5C 330.396,104.369 330.729,103.535 332.5,103C 331.338,102.173 330.171,101.34 329,100.5C 327.174,101.01 327.007,101.844 328.5,103C 327.5,103.333 326.5,103.667 325.5,104C 327.431,104.902 329.097,106.069 330.5,107.5C 324.374,105.018 318.374,102.351 312.5,99.5C 316.195,100.46 319.861,100.46 323.5,99.5C 321.058,98.5536 319.058,97.0536 317.5,95C 315.22,94.7883 313.22,93.9549 311.5,92.5C 310.056,93.981 309.389,93.6477 309.5,91.5 Z"/></g>
<g><path style="opacity:1" fill="#8098cb" d="M 263.5,111.5 C 263.44,110.957 263.107,110.624 262.5,110.5C 261.831,112.631 261.165,114.631 260.5,116.5C 260.5,114.167 260.5,111.833 260.5,109.5C 263.833,109.5 267.167,109.5 270.5,109.5C 270.649,110.552 270.483,111.552 270,112.5C 267.959,111.577 265.792,111.244 263.5,111.5 Z"/></g>
<g><path style="opacity:1" fill="#28489c" d="M 244.5,109.5 C 253.243,109.546 255.576,109.88 251.5,110.5C 250.833,127.833 250.167,127.833 249.5,110.5C 247.856,110.286 246.356,110.62 245,111.5C 244.536,110.906 244.369,110.239 244.5,109.5 Z"/></g>
<g><path style="opacity:1" fill="#264192" d="M 263.5,111.5 C 263.5,113.167 263.5,114.833 263.5,116.5C 262.612,119.054 262.279,121.721 262.5,124.5C 261.448,124.649 260.448,124.483 259.5,124C 260.435,121.619 260.768,119.119 260.5,116.5C 261.165,114.631 261.831,112.631 262.5,110.5C 263.107,110.624 263.44,110.957 263.5,111.5 Z"/></g>
<g><path style="opacity:1" fill="#1d59a1" d="M 336.5,103.5 C 371.2,122.711 396.366,150.711 412,187.5C 414.007,192.02 415.507,196.687 416.5,201.5C 416.853,207.026 417.853,212.359 419.5,217.5C 419.16,219.512 418.827,221.512 418.5,223.5C 419.5,223.5 420.5,223.5 421.5,223.5C 421.527,229.051 422.194,234.384 423.5,239.5C 424.749,250.019 424.749,260.686 423.5,271.5C 422.069,272.082 420.736,272.915 419.5,274C 421.282,276.243 421.782,278.743 421,281.5C 417.992,276.984 416.826,271.984 417.5,266.5C 419.484,196.106 390.484,143.106 330.5,107.5C 329.097,106.069 327.431,104.902 325.5,104C 326.5,103.667 327.5,103.333 328.5,103C 327.007,101.844 327.174,101.01 329,100.5C 330.171,101.34 331.338,102.173 332.5,103C 330.729,103.535 330.396,104.369 331.5,105.5C 332.85,104.05 334.516,103.383 336.5,103.5 Z"/></g>
<g><path style="opacity:1" fill="#6b7eb4" d="M 276.5,123.5 C 275.686,121.369 275.186,119.036 275,116.5C 274.617,117.056 274.117,117.389 273.5,117.5C 273.859,115.629 274.859,114.129 276.5,113C 279.817,112.502 283.15,112.335 286.5,112.5C 286.66,114.199 286.494,115.866 286,117.5C 283.805,113.128 280.805,112.461 277,115.5C 276.503,118.146 276.336,120.813 276.5,123.5 Z"/></g>
<g><path style="opacity:1" fill="#859cc1" d="M 216.5,119.5 C 215.842,118.602 215.176,117.602 214.5,116.5C 213.893,116.624 213.56,116.957 213.5,117.5C 212.624,117.631 211.957,117.298 211.5,116.5C 213.045,115.548 214.712,115.215 216.5,115.5C 216.5,116.833 216.5,118.167 216.5,119.5 Z"/></g>
<g><path style="opacity:1" fill="#5a7baf" d="M 236.5,123.5 C 235.715,121.626 235.048,119.626 234.5,117.5C 236.585,115.316 237.585,112.649 237.5,109.5C 238.675,109.281 239.675,109.614 240.5,110.5C 237.727,114.381 236.394,118.715 236.5,123.5 Z"/></g>
<g><path style="opacity:1" fill="#233f8f" d="M 234.5,117.5 C 235.048,119.626 235.715,121.626 236.5,123.5C 236.631,124.376 236.298,125.043 235.5,125.5C 234.831,123.369 234.165,121.369 233.5,119.5C 231.523,117.186 229.523,114.853 227.5,112.5C 228.325,111.614 229.325,111.281 230.5,111.5C 231.203,113.873 232.536,115.873 234.5,117.5 Z"/></g>
<g><path style="opacity:1" fill="#6287b5" d="M 205.5,119.5 C 204.833,119.5 204.5,119.833 204.5,120.5C 200.006,121.159 198.339,123.825 199.5,128.5C 198.833,126.833 198.167,125.167 197.5,123.5C 199.002,119.414 201.669,118.081 205.5,119.5 Z"/></g>
<g><path style="opacity:1" fill="#2a4896" d="M 204.5,120.5 C 204.5,119.833 204.833,119.5 205.5,119.5C 211.195,121.321 212.861,124.987 210.5,130.5C 209.833,128.5 209.167,126.5 208.5,124.5C 207.833,122.5 206.5,121.167 204.5,120.5 Z"/></g>
<g><path style="opacity:1" fill="#2a4593" d="M 276.5,123.5 C 277.975,125.41 279.975,126.576 282.5,127C 275.394,127.987 272.394,124.82 273.5,117.5C 274.117,117.389 274.617,117.056 275,116.5C 275.186,119.036 275.686,121.369 276.5,123.5 Z"/></g>
<g><path style="opacity:1" fill="#374e9c" d="M 298.5,132.5 C 297.325,132.719 296.325,132.386 295.5,131.5C 296.18,130.14 296.847,128.807 297.5,127.5C 298.735,124.67 299.735,121.67 300.5,118.5C 301.675,118.281 302.675,118.614 303.5,119.5C 301.209,123.725 299.542,128.058 298.5,132.5 Z"/></g>
<g><path style="opacity:1" fill="#6481a3" d="M 293.5,119.5 C 293.561,122.05 294.894,123.55 297.5,124C 296.552,124.483 295.552,124.649 294.5,124.5C 293.791,123.596 292.791,123.263 291.5,123.5C 291.989,122.005 292.655,120.671 293.5,119.5 Z"/></g>
<g><path style="opacity:1" fill="#e5eef2" d="M 325.5,129.5 C 322.931,133.635 320.597,137.968 318.5,142.5C 316.426,141.486 314.426,140.486 312.5,139.5C 313.833,139.5 314.5,138.833 314.5,137.5C 315.458,137.047 316.292,136.381 317,135.5C 318.167,133 319.333,130.5 320.5,128C 319.668,127.312 319.002,127.479 318.5,128.5C 317.392,131.059 316.059,133.392 314.5,135.5C 313.94,130.927 312.607,126.594 310.5,122.5C 309.702,122.957 309.369,123.624 309.5,124.5C 307.133,127.904 305.133,131.571 303.5,135.5C 301.712,134.64 300.045,133.64 298.5,132.5C 299.542,128.058 301.209,123.725 303.5,119.5C 302.675,118.614 301.675,118.281 300.5,118.5C 299.735,121.67 298.735,124.67 297.5,127.5C 296.1,126.9 295.1,125.9 294.5,124.5C 295.552,124.649 296.552,124.483 297.5,124C 294.894,123.55 293.561,122.05 293.5,119.5C 295.087,117.381 294.754,115.714 292.5,114.5C 291.83,116.291 291.163,117.958 290.5,119.5C 290.338,117.473 290.505,115.473 291,113.5C 292.113,112.289 293.28,112.289 294.5,113.5C 295.192,112.975 295.692,112.308 296,111.5C 296.511,113.878 297.178,116.212 298,118.5C 298.388,117.572 299.055,116.905 300,116.5C 302.929,116.909 305.262,118.243 307,120.5C 308.314,119.687 309.481,118.687 310.5,117.5C 312.513,120.669 314.68,123.669 317,126.5C 317.414,126.043 317.914,125.709 318.5,125.5C 321.163,126.476 323.496,127.81 325.5,129.5 Z"/></g>
<g><path style="opacity:1" fill="#f4f8f7" d="M 204.5,120.5 C 206.5,121.167 207.833,122.5 208.5,124.5C 208.663,126.857 208.497,129.19 208,131.5C 206.644,132.38 205.144,132.714 203.5,132.5C 201.806,131.473 200.473,130.139 199.5,128.5C 198.339,123.825 200.006,121.159 204.5,120.5 Z"/></g>
<g><path style="opacity:1" fill="#7495c0" d="M 262.5,124.5 C 262.279,121.721 262.612,119.054 263.5,116.5C 265.262,116.643 266.929,116.309 268.5,115.5C 269.833,116.833 269.833,118.167 268.5,119.5C 266.929,118.691 265.262,118.357 263.5,118.5C 263.5,120.167 263.5,121.833 263.5,123.5C 266.144,123.84 268.477,123.173 270.5,121.5C 271.59,122.391 271.59,123.391 270.5,124.5C 267.801,125.729 265.135,125.729 262.5,124.5 Z"/></g>
<g><path style="opacity:1" fill="#a1b6cd" d="M 233.5,119.5 C 234.165,121.369 234.831,123.369 235.5,125.5C 236.298,125.043 236.631,124.376 236.5,123.5C 237.478,123.811 238.145,124.478 238.5,125.5C 236.5,126.833 234.5,126.833 232.5,125.5C 233.348,123.591 233.682,121.591 233.5,119.5 Z"/></g>
<g><path style="opacity:1" fill="#354c9a" d="M 293.5,119.5 C 292.655,120.671 291.989,122.005 291.5,123.5C 290.85,125.435 290.517,127.435 290.5,129.5C 289.325,129.719 288.325,129.386 287.5,128.5C 288.801,125.573 289.801,122.573 290.5,119.5C 291.163,117.958 291.83,116.291 292.5,114.5C 294.754,115.714 295.087,117.381 293.5,119.5 Z"/></g>
<g><path style="opacity:1" fill="#5d76a8" d="M 218.5,129.5 C 218.5,129.167 218.5,128.833 218.5,128.5C 222.255,128.663 224.755,126.997 226,123.5C 226.72,125.112 226.554,126.612 225.5,128C 223.323,129.202 220.989,129.702 218.5,129.5 Z"/></g>
<g><path style="opacity:1" fill="#234198" d="M 213.5,117.5 C 213.56,116.957 213.893,116.624 214.5,116.5C 215.176,117.602 215.842,118.602 216.5,119.5C 217.461,122.426 218.127,125.426 218.5,128.5C 218.5,128.833 218.5,129.167 218.5,129.5C 217.414,129.38 216.747,128.713 216.5,127.5C 215.787,123.957 214.787,120.623 213.5,117.5 Z"/></g>
<g><path style="opacity:1" fill="#2d4795" d="M 197.5,123.5 C 198.167,125.167 198.833,126.833 199.5,128.5C 200.473,130.139 201.806,131.473 203.5,132.5C 203.158,133.338 202.492,133.672 201.5,133.5C 199.413,132.415 198.08,130.749 197.5,128.5C 197.5,126.833 197.5,125.167 197.5,123.5 Z"/></g>
<g><path style="opacity:1" fill="#4e71aa" d="M 309.5,124.5 C 309.833,125.167 310.167,125.833 310.5,126.5C 308.388,129.75 306.055,132.75 303.5,135.5C 305.133,131.571 307.133,127.904 309.5,124.5 Z"/></g>
<g><path style="opacity:1" fill="#37479d" d="M 314.5,135.5 C 314.5,136.167 314.5,136.833 314.5,137.5C 314.5,138.833 313.833,139.5 312.5,139.5C 312.574,135.016 311.907,130.683 310.5,126.5C 310.167,125.833 309.833,125.167 309.5,124.5C 309.369,123.624 309.702,122.957 310.5,122.5C 312.607,126.594 313.94,130.927 314.5,135.5 Z"/></g>
<g><path style="opacity:1" fill="#2a4896" d="M 192.5,125.5 C 194.512,127.567 194.846,129.9 193.5,132.5C 193.295,128.625 191.295,126.959 187.5,127.5C 188.2,131.879 189.867,135.879 192.5,139.5C 192.137,140.183 191.804,140.85 191.5,141.5C 189.464,137.101 187.131,132.767 184.5,128.5C 186.578,126.014 189.245,125.014 192.5,125.5 Z"/></g>
<g><path style="opacity:1" fill="#6f90b5" d="M 208.5,124.5 C 209.167,126.5 209.833,128.5 210.5,130.5C 208.351,134.348 205.351,135.348 201.5,133.5C 202.492,133.672 203.158,133.338 203.5,132.5C 205.144,132.714 206.644,132.38 208,131.5C 208.497,129.19 208.663,126.857 208.5,124.5 Z"/></g>
<g><path style="opacity:1" fill="#4e6ca8" d="M 314.5,137.5 C 314.5,136.833 314.5,136.167 314.5,135.5C 316.059,133.392 317.392,131.059 318.5,128.5C 319.002,127.479 319.668,127.312 320.5,128C 319.333,130.5 318.167,133 317,135.5C 316.292,136.381 315.458,137.047 314.5,137.5 Z"/></g>
<g><path style="opacity:1" fill="#4b73a7" d="M 133.5,131.5 C 133.649,132.552 133.483,133.552 133,134.5C 131.494,136.174 129.661,137.174 127.5,137.5C 129.167,135.167 131.167,133.167 133.5,131.5 Z"/></g>
<g><path style="opacity:1" fill="#d7e2ee" d="M 197.5,123.5 C 197.5,125.167 197.5,126.833 197.5,128.5C 196.883,128.389 196.383,128.056 196,127.5C 195.704,130.706 195.204,133.872 194.5,137C 195.863,139.833 194.863,141.333 191.5,141.5C 191.804,140.85 192.137,140.183 192.5,139.5C 189.867,135.879 188.2,131.879 187.5,127.5C 191.295,126.959 193.295,128.625 193.5,132.5C 194.846,129.9 194.512,127.567 192.5,125.5C 193.583,125.539 194.583,125.873 195.5,126.5C 196.176,125.398 196.842,124.398 197.5,123.5 Z"/></g>
<g><path style="opacity:1" fill="#23368f" d="M 325.5,129.5 C 326.289,129.783 326.956,130.283 327.5,131C 324.842,135.175 321.842,139.008 318.5,142.5C 320.597,137.968 322.931,133.635 325.5,129.5 Z"/></g>
<g><path style="opacity:1" fill="#5574a6" d="M 179.5,145.5 C 177.901,145.768 176.568,145.434 175.5,144.5C 176.239,144.631 176.906,144.464 177.5,144C 175.548,141.926 173.715,139.759 172,137.5C 171.312,136.668 171.479,136.002 172.5,135.5C 174.884,138.869 177.217,142.203 179.5,145.5 Z"/></g>
<g><path style="opacity:1" fill="#3d4e95" d="M 335.5,136.5 C 334.167,137.167 332.833,137.833 331.5,138.5C 326.64,141.85 326.307,145.683 330.5,150C 328.232,150.09 326.732,148.923 326,146.5C 325.057,138.946 328.224,135.612 335.5,136.5 Z"/></g>
<g><path style="opacity:1" fill="#768cbf" d="M 335.5,136.5 C 338.069,137.396 340.069,139.062 341.5,141.5C 340.855,142.646 340.022,143.646 339,144.5C 338.888,139.616 336.388,137.616 331.5,138.5C 332.833,137.833 334.167,137.167 335.5,136.5 Z"/></g>
<g><path style="opacity:1" fill="#2a4998" d="M 175.5,144.5 C 176.568,145.434 177.901,145.768 179.5,145.5C 182.297,146.808 182.131,147.475 179,147.5C 175.534,146.591 172.034,145.924 168.5,145.5C 167.791,144.596 166.791,144.263 165.5,144.5C 166.695,143.025 170.028,143.025 175.5,144.5 Z"/></g>
<g><path style="opacity:1" fill="#5375a4" d="M 165.5,144.5 C 166.791,144.263 167.791,144.596 168.5,145.5C 168.062,145.435 167.728,145.601 167.5,146C 169.62,148.409 171.62,150.909 173.5,153.5C 169.725,152.034 167.059,149.034 165.5,144.5 Z"/></g>
<g><path style="opacity:1" fill="#e3eef5" d="M 156.5,156.5 C 155.5,156.167 154.833,155.5 154.5,154.5C 155.048,151.916 156.715,150.916 159.5,151.5C 160.084,154.285 159.084,155.952 156.5,156.5 Z"/></g>
<g><path style="opacity:1" fill="#6684b5" d="M 348.5,149.5 C 348.737,150.791 348.404,151.791 347.5,152.5C 346.292,151.218 344.958,151.218 343.5,152.5C 344.005,153.919 345.005,154.585 346.5,154.5C 346.011,155.995 345.345,157.329 344.5,158.5C 344.31,154.643 342.31,152.976 338.5,153.5C 338.322,157.102 337.322,157.102 335.5,153.5C 339.704,151.7 344.038,150.366 348.5,149.5 Z"/></g>
<g><path style="opacity:1" fill="#e3f4f8" d="M 347.5,152.5 C 346.662,152.842 346.328,153.508 346.5,154.5C 345.005,154.585 344.005,153.919 343.5,152.5C 344.958,151.218 346.292,151.218 347.5,152.5 Z"/></g>
<g><path style="opacity:1" fill="#4d6ba7" d="M 158.5,157.5 C 157.508,157.672 156.842,157.338 156.5,156.5C 159.084,155.952 160.084,154.285 159.5,151.5C 156.715,150.916 155.048,151.916 154.5,154.5C 153.609,153.89 152.609,153.557 151.5,153.5C 153.59,150.125 156.59,148.959 160.5,150C 161.406,151.699 161.739,153.533 161.5,155.5C 164.518,155.335 167.518,155.502 170.5,156C 169.833,156.667 169.167,157.333 168.5,158C 165.174,158.172 161.841,158.005 158.5,157.5 Z"/></g>
<g><path style="opacity:1" fill="#2b4090" d="M 344.5,158.5 C 345.345,157.329 346.011,155.995 346.5,154.5C 346.328,153.508 346.662,152.842 347.5,152.5C 348.404,151.791 348.737,150.791 348.5,149.5C 349.251,148.427 350.251,148.26 351.5,149C 349.406,153.891 347.24,158.725 345,163.5C 343.372,162.038 343.205,160.372 344.5,158.5 Z"/></g>
<g><path style="opacity:1" fill="#1f4292" d="M 151.5,153.5 C 152.609,153.557 153.609,153.89 154.5,154.5C 154.833,155.5 155.5,156.167 156.5,156.5C 156.842,157.338 157.508,157.672 158.5,157.5C 160.2,159.21 161.533,161.21 162.5,163.5C 158.483,161.18 154.817,157.847 151.5,153.5 Z"/></g>
<g><path style="opacity:1" fill="#2a3989" d="M 350.5,168.5 C 349.833,168.5 349.167,168.5 348.5,168.5C 351.401,165.078 354.901,161.412 359,157.5C 359.692,158.025 360.192,158.692 360.5,159.5C 357.094,162.517 353.76,165.517 350.5,168.5 Z"/></g>
<g><path style="opacity:1" fill="#1b59a1" d="M 309.5,91.5 C 309.389,93.6477 310.056,93.981 311.5,92.5C 313.22,93.9549 315.22,94.7883 317.5,95C 319.058,97.0536 321.058,98.5536 323.5,99.5C 319.861,100.46 316.195,100.46 312.5,99.5C 304.225,96.9641 295.892,94.6308 287.5,92.5C 287.082,91.7784 286.416,91.2784 285.5,91C 270.071,88.5189 254.737,88.0189 239.5,89.5C 214.205,91.7084 190.538,99.375 168.5,112.5C 106.06,155.438 81.3934,214.438 94.5,289.5C 94.7989,291.604 94.4656,293.604 93.5,295.5C 92.1575,294.098 91.3242,294.431 91,296.5C 89.9179,294.382 88.7512,292.382 87.5,290.5C 85.7425,283.62 84.7425,276.62 84.5,269.5C 84.3241,255.482 84.6574,241.482 85.5,227.5C 90.3808,193.08 104.381,163.08 127.5,137.5C 129.661,137.174 131.494,136.174 133,134.5C 133.483,133.552 133.649,132.552 133.5,131.5C 178.348,88.8627 231.348,73.696 292.5,86C 298.497,87.1668 304.164,89.0001 309.5,91.5 Z"/></g>
<g><path style="opacity:1" fill="#4d79a6" d="M 239.5,89.5 C 254.737,88.0189 270.071,88.5189 285.5,91C 286.416,91.2784 287.082,91.7784 287.5,92.5C 271.617,89.9403 255.617,88.9403 239.5,89.5 Z"/></g>
<g><path style="opacity:1" fill="#617aab" d="M 148.5,167.5 C 148.892,165.821 149.392,164.154 150,162.5C 151.907,164.719 151.407,166.386 148.5,167.5 Z"/></g>
<g><path style="opacity:1" fill="#4866a2" d="M 148.5,167.5 C 152.438,173.256 155.271,172.59 157,165.5C 157.692,166.025 158.192,166.692 158.5,167.5C 156.902,170.601 154.735,173.268 152,175.5C 148.404,172.282 144.904,168.949 141.5,165.5C 142.63,161.844 144.964,160.011 148.5,160C 141.999,163.039 141.999,165.539 148.5,167.5 Z"/></g>
<g><path style="opacity:1" fill="#586ea2" d="M 348.5,168.5 C 349.167,168.5 349.833,168.5 350.5,168.5C 351.899,171.39 354.232,172.89 357.5,173C 356.5,173.5 355.5,174 354.5,174.5C 352.146,172.812 350.146,170.812 348.5,168.5 Z"/></g>
<g><path style="opacity:1" fill="#c9d6e6" d="M 370.5,179.5 C 373.499,175.824 372.832,174.824 368.5,176.5C 368.384,173.09 370.05,171.756 373.5,172.5C 373.247,174.827 373.914,176.827 375.5,178.5C 373.955,179.452 372.288,179.785 370.5,179.5 Z"/></g>
<g><path style="opacity:1" fill="#364091" d="M 370.5,179.5 C 367.63,180.433 365.296,182.1 363.5,184.5C 362.833,185.167 362.167,185.833 361.5,186.5C 361.343,185.127 361.51,183.793 362,182.5C 364.335,180.6 366.502,178.6 368.5,176.5C 372.832,174.824 373.499,175.824 370.5,179.5 Z"/></g>
<g><path style="opacity:1" fill="#46619f" d="M 136.5,170.5 C 137.552,170.351 138.552,170.517 139.5,171C 137.671,172.113 136.837,173.613 137,175.5C 140.078,177.955 143.244,180.289 146.5,182.5C 146.167,182.833 145.833,183.167 145.5,183.5C 141.714,180.941 137.714,178.941 133.5,177.5C 133.66,179.199 133.494,180.866 133,182.5C 132.13,181.892 131.63,181.059 131.5,180C 133.299,176.901 134.966,173.735 136.5,170.5 Z"/></g>
<g><path style="opacity:1" fill="#e5eff3" d="M 328.5,161.5 C 328.56,160.957 328.893,160.624 329.5,160.5C 330.429,161.689 330.762,163.022 330.5,164.5C 332.635,164.147 333.968,164.98 334.5,167C 331.485,168.877 330.819,171.377 332.5,174.5C 328.804,172.262 328.804,169.762 332.5,167C 331.833,166.333 331.167,166.333 330.5,167C 312.546,184.451 295.212,202.284 278.5,220.5C 258.388,239.61 239.055,259.277 220.5,279.5C 214.406,278.208 208.073,277.542 201.5,277.5C 195.324,277.5 189.324,277.834 183.5,278.5C 182.957,278.44 182.624,278.107 182.5,277.5C 194.152,276.667 205.819,276.167 217.5,276C 248.119,245.883 278.119,215.383 307.5,184.5C 314.798,177.703 321.965,170.703 329,163.5C 329.692,162.563 329.525,161.897 328.5,161.5 Z"/></g>
<g><path style="opacity:1" fill="#4f6ba3" d="M 361.5,186.5 C 362.167,185.833 362.833,185.167 363.5,184.5C 363.352,187.352 364.686,189.019 367.5,189.5C 371.127,188.019 374.46,186.019 377.5,183.5C 377.833,183.833 378.167,184.167 378.5,184.5C 375.302,187.597 371.636,189.931 367.5,191.5C 364.28,191.232 362.28,189.565 361.5,186.5 Z"/></g>
<g><path style="opacity:1" fill="#4363a4" d="M 128.5,184.5 C 134.313,184.344 134.646,185.011 129.5,186.5C 128.571,187.689 128.238,189.022 128.5,190.5C 131.718,189.812 134.884,188.812 138,187.5C 140.744,187.412 141.91,188.745 141.5,191.5C 141.393,194.281 140.059,196.281 137.5,197.5C 136.692,197.192 136.025,196.692 135.5,196C 139.428,195.446 140.761,193.446 139.5,190C 136.839,189.938 134.505,190.938 132.5,193C 126.229,192.863 124.896,190.029 128.5,184.5 Z"/></g>
<g><path style="opacity:1" fill="#2c3888" d="M 376.5,204.5 C 376.167,205.167 375.833,205.833 375.5,206.5C 374.698,207.885 374.031,207.718 373.5,206C 374.882,202.014 376.549,198.18 378.5,194.5C 379.404,193.791 379.737,192.791 379.5,191.5C 380.363,190.537 381.03,190.537 381.5,191.5C 380.023,195.935 378.356,200.269 376.5,204.5 Z"/></g>
<g><path style="opacity:1" fill="#4c6ba2" d="M 379.5,191.5 C 379.737,192.791 379.404,193.791 378.5,194.5C 375.466,194.829 372.466,196.162 369.5,198.5C 369.167,198.167 368.833,197.833 368.5,197.5C 372.061,195.221 375.727,193.221 379.5,191.5 Z"/></g>
<g><path style="opacity:1" fill="#7893b6" d="M 122.5,202.5 C 121.833,202.5 121.167,202.5 120.5,202.5C 120.459,198.651 122.125,196.485 125.5,196C 123.829,197.843 122.829,200.009 122.5,202.5 Z"/></g>
<g><path style="opacity:1" fill="#7698cb" d="M 128.5,205.5 C 127.005,205.011 125.671,204.345 124.5,203.5C 125.5,203.5 126.5,203.5 127.5,203.5C 127.5,201.833 127.5,200.167 127.5,198.5C 128.5,198.5 129.5,198.5 130.5,198.5C 129.833,200.833 129.167,203.167 128.5,205.5 Z"/></g>
<g><path style="opacity:1" fill="#4a6896" d="M 375.5,206.5 C 375.833,205.833 376.167,205.167 376.5,204.5C 379.634,203.099 382.634,201.432 385.5,199.5C 385.833,199.833 386.167,200.167 386.5,200.5C 382.939,202.779 379.273,204.779 375.5,206.5 Z"/></g>
<g><path style="opacity:1" fill="#244a95" d="M 120.5,202.5 C 121.167,202.5 121.833,202.5 122.5,202.5C 122.842,203.338 123.508,203.672 124.5,203.5C 125.671,204.345 127.005,205.011 128.5,205.5C 129.791,205.263 130.791,205.596 131.5,206.5C 131.5,207.167 131.167,207.5 130.5,207.5C 126.508,206.838 123.175,205.171 120.5,202.5 Z"/></g>
<g><path style="opacity:1" fill="#5576ab" d="M 130.5,207.5 C 131.167,207.5 131.5,207.167 131.5,206.5C 132.496,206.586 133.329,206.252 134,205.5C 134.833,203.5 135.667,201.5 136.5,199.5C 136.833,200 137.167,200.5 137.5,201C 136.12,204.258 134.62,207.425 133,210.5C 132.302,209.309 131.469,208.309 130.5,207.5 Z"/></g>
<g><path style="opacity:1" fill="#242f86" d="M 375.5,212.5 C 376.791,212.737 377.791,212.404 378.5,211.5C 382.074,209.408 385.74,208.408 389.5,208.5C 385.295,210.769 380.962,212.769 376.5,214.5C 375.702,214.043 375.369,213.376 375.5,212.5 Z"/></g>
<g><path style="opacity:1" fill="#7385bc" d="M 378.5,211.5 C 377.791,212.404 376.791,212.737 375.5,212.5C 374.475,212.103 374.308,211.437 375,210.5C 376.011,211.337 377.178,211.67 378.5,211.5 Z"/></g>
<g><path style="opacity:1" fill="#6b8fb3" d="M 128.5,216.5 C 127.609,217.11 126.609,217.443 125.5,217.5C 123.832,215.142 121.499,213.476 118.5,212.5C 117.167,211.833 117.167,211.167 118.5,210.5C 122.156,212.196 125.489,214.196 128.5,216.5 Z"/></g>
<g><path style="opacity:1" fill="#2f5a9c" d="M 128.5,216.5 C 130.705,216.846 130.872,217.513 129,218.5C 127.234,219.233 125.401,219.567 123.5,219.5C 121.192,220.714 118.859,220.714 116.5,219.5C 116.624,218.893 116.957,218.56 117.5,218.5C 120.096,217.735 122.763,217.401 125.5,217.5C 126.609,217.443 127.609,217.11 128.5,216.5 Z"/></g>
<g><path style="opacity:1" fill="#87aad2" d="M 117.5,218.5 C 116.957,218.56 116.624,218.893 116.5,219.5C 118.859,220.714 121.192,220.714 123.5,219.5C 124.306,220.728 125.306,221.728 126.5,222.5C 125.448,224.256 123.781,224.923 121.5,224.5C 122.263,223.732 123.263,223.232 124.5,223C 121.649,221.711 118.649,221.211 115.5,221.5C 115.238,220.022 115.571,218.689 116.5,217.5C 117.107,217.624 117.44,217.957 117.5,218.5 Z"/></g>
<g><path style="opacity:1" fill="#25317f" d="M 382.5,224.5 C 381.209,224.737 380.209,224.404 379.5,223.5C 383.757,220.749 387.59,217.416 391,213.5C 391.781,214.944 391.614,216.277 390.5,217.5C 387.15,219.192 384.483,221.525 382.5,224.5 Z"/></g>
<g><path style="opacity:1" fill="#3f6ea7" d="M 416.5,201.5 C 421.029,213.646 423.363,226.313 423.5,239.5C 422.194,234.384 421.527,229.051 421.5,223.5C 420.5,223.5 419.5,223.5 418.5,223.5C 418.827,221.512 419.16,219.512 419.5,217.5C 417.853,212.359 416.853,207.026 416.5,201.5 Z"/></g>
<g><path style="opacity:1" fill="#1d4992" d="M 126.5,222.5 C 127.643,222.908 128.643,223.575 129.5,224.5C 126.346,226.026 123.013,226.693 119.5,226.5C 118.127,226.657 116.793,226.49 115.5,226C 117.382,225.802 119.048,225.302 120.5,224.5C 120.833,224.5 121.167,224.5 121.5,224.5C 123.781,224.923 125.448,224.256 126.5,222.5 Z"/></g>
<g><path style="opacity:1" fill="#5177aa" d="M 379.5,223.5 C 380.209,224.404 381.209,224.737 382.5,224.5C 386.555,224.176 390.555,224.509 394.5,225.5C 389.126,226.497 383.792,226.164 378.5,224.5C 378.624,223.893 378.957,223.56 379.5,223.5 Z"/></g>
<g><path style="opacity:1" fill="#6c8eba" d="M 120.5,224.5 C 119.048,225.302 117.382,225.802 115.5,226C 116.793,226.49 118.127,226.657 119.5,226.5C 116.183,229.682 114.517,229.015 114.5,224.5C 116.5,224.5 118.5,224.5 120.5,224.5 Z"/></g>
<g><path style="opacity:1" fill="#10237e" d="M 394.5,234.5 C 392.265,234.205 390.265,234.539 388.5,235.5C 385.941,235.198 383.607,235.532 381.5,236.5C 380.957,236.44 380.624,236.107 380.5,235.5C 382.631,234.831 384.631,234.165 386.5,233.5C 389.365,233.945 391.865,233.278 394,231.5C 394.483,232.448 394.649,233.448 394.5,234.5 Z"/></g>
<g><path style="opacity:1" fill="#305aa0" d="M 127.5,236.5 C 124.833,236.5 122.167,236.5 119.5,236.5C 117.167,236.5 114.833,236.5 112.5,236.5C 112.343,235.127 112.51,233.793 113,232.5C 113.5,233 114,233.5 114.5,234C 119.28,233.892 123.614,234.725 127.5,236.5 Z"/></g>
<g><path style="opacity:1" fill="#6e85b9" d="M 388.5,235.5 C 390.265,234.539 392.265,234.205 394.5,234.5C 395.388,237.054 395.721,239.721 395.5,242.5C 394.325,242.719 393.325,242.386 392.5,241.5C 393.348,239.591 393.682,237.591 393.5,235.5C 391.833,235.5 390.167,235.5 388.5,235.5 Z"/></g>
<g><path style="opacity:1" fill="#7692c1" d="M 386.5,233.5 C 384.631,234.165 382.631,234.831 380.5,235.5C 380.624,236.107 380.957,236.44 381.5,236.5C 380.959,239.652 381.959,242.152 384.5,244C 383.216,244.684 382.049,244.517 381,243.5C 379.957,240.243 379.457,236.91 379.5,233.5C 381.833,233.5 384.167,233.5 386.5,233.5 Z"/></g>
<g><path style="opacity:1" fill="#5069a0" d="M 381.5,236.5 C 383.607,235.532 385.941,235.198 388.5,235.5C 388.357,237.262 388.691,238.929 389.5,240.5C 389.167,240.833 388.833,241.167 388.5,241.5C 387.548,239.955 387.215,238.288 387.5,236.5C 385.5,236.5 383.5,236.5 381.5,236.5 Z"/></g>
<g><path style="opacity:1" fill="#8fa7c8" d="M 119.5,236.5 C 122.167,236.5 124.833,236.5 127.5,236.5C 127.649,237.552 127.483,238.552 127,239.5C 125.246,237.75 123.079,237.083 120.5,237.5C 120.5,239.5 120.5,241.5 120.5,243.5C 119.833,243.5 119.167,243.5 118.5,243.5C 118.448,241.097 118.781,238.764 119.5,236.5 Z"/></g>
<g><path style="opacity:1" fill="#99b1d5" d="M 113.5,243.5 C 112.957,243.56 112.624,243.893 112.5,244.5C 116.982,245.167 121.316,245.834 125.5,246.5C 121.098,246.228 116.765,246.561 112.5,247.5C 111.167,245.5 111.167,243.5 112.5,241.5C 113.298,241.957 113.631,242.624 113.5,243.5 Z"/></g>
<g><path style="opacity:1" fill="#7699c1" d="M 126.5,246.5 C 124.844,244.94 122.844,243.94 120.5,243.5C 122.792,243.756 124.959,243.423 127,242.5C 127.765,244.066 127.598,245.399 126.5,246.5 Z"/></g>
<g><path style="opacity:1" fill="#1b4895" d="M 113.5,243.5 C 115.167,243.5 116.833,243.5 118.5,243.5C 119.167,243.5 119.833,243.5 120.5,243.5C 122.844,243.94 124.844,244.94 126.5,246.5C 126.167,246.5 125.833,246.5 125.5,246.5C 121.316,245.834 116.982,245.167 112.5,244.5C 112.624,243.893 112.957,243.56 113.5,243.5 Z"/></g>
<g><path style="opacity:0.729" fill="#5788b7" d="M 85.5,227.5 C 84.6574,241.482 84.3241,255.482 84.5,269.5C 83.8338,263.843 83.5005,258.01 83.5,252C 83.2983,243.608 83.9649,235.441 85.5,227.5 Z"/></g>
<g><path style="opacity:1" fill="#404d93" d="M 383.5,258.5 C 381.797,259.66 381.131,258.993 381.5,256.5C 383.878,255.308 385.878,253.641 387.5,251.5C 391.61,256.017 393.943,255.35 394.5,249.5C 389.881,250.314 385.214,250.647 380.5,250.5C 380.5,249.5 380.5,248.5 380.5,247.5C 385.43,247.803 390.263,247.469 395,246.5C 395.667,249.5 395.667,252.5 395,255.5C 394.261,256.574 393.261,257.241 392,257.5C 390.374,256.711 388.874,255.711 387.5,254.5C 385.625,255.409 384.292,256.743 383.5,258.5 Z"/></g>
<g><path style="opacity:1" fill="#89a7c8" d="M 112.5,254.5 C 114.397,255.805 116.731,256.471 119.5,256.5C 121.833,256.167 124.167,255.833 126.5,255.5C 125.311,254.571 123.978,254.238 122.5,254.5C 123.919,253.549 125.585,253.216 127.5,253.5C 127.785,255.288 127.452,256.955 126.5,258.5C 122.235,257.561 117.902,257.228 113.5,257.5C 113.48,259.143 114.147,260.476 115.5,261.5C 114.349,262.731 113.183,262.731 112,261.5C 111.501,257.514 111.334,253.514 111.5,249.5C 112.552,249.351 113.552,249.517 114.5,250C 112.963,251.11 112.297,252.61 112.5,254.5 Z"/></g>
<g><path style="opacity:1" fill="#24539a" d="M 112.5,254.5 C 115.833,254.5 119.167,254.5 122.5,254.5C 123.978,254.238 125.311,254.571 126.5,255.5C 124.167,255.833 121.833,256.167 119.5,256.5C 116.731,256.471 114.397,255.805 112.5,254.5 Z"/></g>
<g><path style="opacity:1" fill="#738fb9" d="M 126.5,266.5 C 126.672,265.508 126.338,264.842 125.5,264.5C 125.281,263.325 125.614,262.325 126.5,261.5C 127.788,263.299 127.788,264.965 126.5,266.5 Z"/></g>
<g><path style="opacity:1" fill="#e6edf3" d="M 381.5,256.5 C 381.131,258.993 381.797,259.66 383.5,258.5C 384.34,260.853 385.674,262.853 387.5,264.5C 386.89,266.434 385.89,268.101 384.5,269.5C 383.5,269.5 382.5,269.5 381.5,269.5C 381.085,266.632 382.085,264.465 384.5,263C 383.207,262.51 381.873,262.343 380.5,262.5C 378.713,266.122 379.38,269.122 382.5,271.5C 383.873,271.657 385.207,271.49 386.5,271C 387.833,269 389.167,267 390.5,265C 391.749,264.26 392.749,264.427 393.5,265.5C 394.833,266.833 394.833,268.167 393.5,269.5C 390.814,270.988 391.147,271.655 394.5,271.5C 390.979,272.371 387.312,273.205 383.5,274C 387.026,275.337 390.692,275.837 394.5,275.5C 393.867,280.36 392.867,285.027 391.5,289.5C 391.336,283.833 391.003,283.5 390.5,288.5C 389.5,288.5 388.5,288.5 387.5,288.5C 383.566,286.843 379.566,286.51 375.5,287.5C 378.953,288.513 382.287,289.513 385.5,290.5C 382.079,290.026 378.745,290.026 375.5,290.5C 373.099,287.231 372.099,283.565 372.5,279.5C 374.39,279.703 375.89,279.037 377,277.5C 377.141,273.09 376.807,268.757 376,264.5C 376.915,265.328 377.581,266.328 378,267.5C 378.724,263.573 379.891,259.906 381.5,256.5 Z"/></g>
<g><path style="opacity:1" fill="#536ca5" d="M 384.5,269.5 C 383.833,270.167 383.167,270.833 382.5,271.5C 379.38,269.122 378.713,266.122 380.5,262.5C 381.873,262.343 383.207,262.51 384.5,263C 382.085,264.465 381.085,266.632 381.5,269.5C 382.5,269.5 383.5,269.5 384.5,269.5 Z"/></g>
<g><path style="opacity:1" fill="#252f85" d="M 394.5,264.5 C 394.5,265.167 394.167,265.5 393.5,265.5C 392.749,264.427 391.749,264.26 390.5,265C 389.167,267 387.833,269 386.5,271C 385.207,271.49 383.873,271.657 382.5,271.5C 383.167,270.833 383.833,270.167 384.5,269.5C 385.89,268.101 386.89,266.434 387.5,264.5C 389.094,264.08 390.594,263.414 392,262.5C 393.301,262.639 394.134,263.305 394.5,264.5 Z"/></g>
<g><path style="opacity:1" fill="#2b3a8d" d="M 393.5,269.5 C 394.338,269.842 394.672,270.508 394.5,271.5C 391.147,271.655 390.814,270.988 393.5,269.5 Z"/></g>
<g><path style="opacity:1" fill="#7595be" d="M 394.5,264.5 C 395.833,266.833 395.833,269.167 394.5,271.5C 394.672,270.508 394.338,269.842 393.5,269.5C 394.833,268.167 394.833,266.833 393.5,265.5C 394.167,265.5 394.5,265.167 394.5,264.5 Z"/></g>
<g><path style="opacity:1" fill="#7a8bbe" d="M 381.5,275.5 C 380.167,275.5 379.5,276.167 379.5,277.5C 378.249,276.999 378.249,275.665 379.5,273.5C 380.522,273.855 381.189,274.522 381.5,275.5 Z"/></g>
<g><path style="opacity:1" fill="#345ba1" d="M 125.5,264.5 C 126.338,264.842 126.672,265.508 126.5,266.5C 119.719,271.646 120.219,273.313 128,271.5C 128.483,272.448 128.649,273.448 128.5,274.5C 123.777,274.84 119.11,275.507 114.5,276.5C 113.348,273.894 113.182,271.227 114,268.5C 116.12,265.92 118.287,265.92 120.5,268.5C 122.186,267.143 123.852,265.81 125.5,264.5 Z"/></g>
<g><path style="opacity:1" fill="#e2f1f3" d="M 114.5,269.5 C 117.288,269.077 119.288,270.077 120.5,272.5C 118.604,273.466 116.604,273.799 114.5,273.5C 114.5,272.167 114.5,270.833 114.5,269.5 Z"/></g>
<g><path style="opacity:1" fill="#1e2a7e" d="M 381.5,275.5 C 385.68,275.862 389.68,276.862 393.5,278.5C 393.167,278.833 392.833,279.167 392.5,279.5C 388.256,278.293 383.923,277.626 379.5,277.5C 379.5,276.167 380.167,275.5 381.5,275.5 Z"/></g>
<g><path style="opacity:1" fill="#3163a3" d="M 417.5,266.5 C 416.826,271.984 417.992,276.984 421,281.5C 421.782,278.743 421.282,276.243 419.5,274C 420.736,272.915 422.069,272.082 423.5,271.5C 422.903,278.763 421.57,285.763 419.5,292.5C 419.977,287.258 419.144,282.258 417,277.5C 416.76,279.852 415.927,281.852 414.5,283.5C 415.049,277.626 416.049,271.959 417.5,266.5 Z"/></g>
<g><path style="opacity:1" fill="#4469a3" d="M 120.5,279.5 C 128.212,278.715 131.712,282.048 131,289.5C 126.641,295.601 121.974,295.934 117,290.5C 115.662,285.96 116.829,282.293 120.5,279.5 Z"/></g>
<g><path style="opacity:1" fill="#f4f9f8" d="M 120.5,282.5 C 124.007,281.994 127.174,282.66 130,284.5C 130.926,288.253 129.426,290.42 125.5,291C 117.208,291.89 115.542,289.057 120.5,282.5 Z"/></g>
<g><path style="opacity:1" fill="#39428a" d="M 387.5,288.5 C 388.209,289.404 389.209,289.737 390.5,289.5C 390.326,291.861 389.993,294.194 389.5,296.5C 385.446,296.79 384.946,296.123 388,294.5C 388.49,293.207 388.657,291.873 388.5,290.5C 387.5,290.5 386.5,290.5 385.5,290.5C 382.287,289.513 378.953,288.513 375.5,287.5C 379.566,286.51 383.566,286.843 387.5,288.5 Z"/></g>
<g><path style="opacity:1" fill="#4c659f" d="M 391.5,289.5 C 391.167,289.5 390.833,289.5 390.5,289.5C 389.209,289.737 388.209,289.404 387.5,288.5C 388.5,288.5 389.5,288.5 390.5,288.5C 391.003,283.5 391.336,283.833 391.5,289.5 Z"/></g>
<g><path style="opacity:1" fill="#3768a5" d="M 94.5,289.5 C 96.0395,291.838 96.7062,294.505 96.5,297.5C 95.6909,299.292 95.1909,301.292 95,303.5C 94.7811,302.062 94.2811,300.729 93.5,299.5C 93.1667,300.167 92.8333,300.833 92.5,301.5C 93.2692,304.115 93.6025,306.781 93.5,309.5C 90.726,303.507 88.726,297.174 87.5,290.5C 88.7512,292.382 89.9179,294.382 91,296.5C 91.3242,294.431 92.1575,294.098 93.5,295.5C 94.4656,293.604 94.7989,291.604 94.5,289.5 Z"/></g>
<g><path style="opacity:1" fill="#6581b0" d="M 129.5,295.5 C 129.5,295.833 129.5,296.167 129.5,296.5C 126.58,297.878 123.746,299.545 121,301.5C 120.308,300.975 119.808,300.308 119.5,299.5C 122.854,298.154 126.187,296.821 129.5,295.5 Z"/></g>
<g><path style="opacity:1" fill="#345c9d" d="M 129.5,296.5 C 129.5,296.167 129.5,295.833 129.5,295.5C 131.109,295.094 132.443,295.094 133.5,295.5C 131.5,299.167 129.5,302.833 127.5,306.5C 127.833,306.833 128.167,307.167 128.5,307.5C 131.503,305.445 134.503,304.445 137.5,304.5C 134.081,306.541 130.414,308.041 126.5,309C 125.874,309.75 125.374,310.584 125,311.5C 124.333,309.833 124.333,308.167 125,306.5C 126.833,303.5 128.667,300.5 130.5,297.5C 130.376,296.893 130.043,296.56 129.5,296.5 Z"/></g>
<g><path style="opacity:1" fill="#1c589e" d="M 328.5,161.5 C 329.525,161.897 329.692,162.563 329,163.5C 321.965,170.703 314.798,177.703 307.5,184.5C 307.762,183.022 307.429,181.689 306.5,180.5C 304.84,179.828 303.507,178.828 302.5,177.5C 307.459,174.226 312.459,170.892 317.5,167.5C 317.023,166.522 316.357,165.689 315.5,165C 310.999,162.584 306.666,159.917 302.5,157C 301.216,156.316 300.049,156.483 299,157.5C 298.167,156 297,154.833 295.5,154C 292.475,153.867 289.808,152.867 287.5,151C 285.765,150.349 284.098,150.515 282.5,151.5C 278.735,148.475 274.401,146.809 269.5,146.5C 268.808,147.025 268.308,147.692 268,148.5C 267.29,147.027 266.124,146.36 264.5,146.5C 262.527,145.837 260.361,145.504 258,145.5C 255.39,145.533 253.223,146.2 251.5,147.5C 250.833,147.167 250.167,146.833 249.5,146.5C 248.726,145.853 247.726,145.52 246.5,145.5C 229.674,147.225 213.674,152.391 198.5,161C 194.025,163.65 190.025,166.817 186.5,170.5C 182.413,172.253 179.746,175.253 178.5,179.5C 175.708,179.622 173.708,180.956 172.5,183.5C 161.738,196.023 154.405,210.356 150.5,226.5C 150.5,226.833 150.5,227.167 150.5,227.5C 149.023,231.233 148.189,235.233 148,239.5C 147.271,249.527 147.437,259.527 148.5,269.5C 152.078,268.708 155.412,267.375 158.5,265.5C 156.947,269.784 158.614,271.617 163.5,271C 159.943,271.302 156.61,272.302 153.5,274C 156.051,274.002 158.051,274.836 159.5,276.5C 156.167,276.5 152.833,276.5 149.5,276.5C 149.263,277.791 149.596,278.791 150.5,279.5C 155.45,296.401 163.783,311.401 175.5,324.5C 176.167,325.833 177.167,326.833 178.5,327.5C 181.509,330.842 184.843,333.842 188.5,336.5C 189.708,337.234 191.041,337.567 192.5,337.5C 192.281,338.675 192.614,339.675 193.5,340.5C 226.871,361.388 261.871,364.221 298.5,349C 310.075,343.909 320.075,336.742 328.5,327.5C 330.806,325.861 332.806,323.861 334.5,321.5C 336.975,319.23 338.975,316.563 340.5,313.5C 345.955,306.161 350.288,298.161 353.5,289.5C 354.674,288.486 355.34,287.153 355.5,285.5C 356.703,282.827 356.703,280.16 355.5,277.5C 356.853,276.476 357.52,275.143 357.5,273.5C 359.213,272.365 359.88,270.698 359.5,268.5C 359.5,266.833 359.5,265.167 359.5,263.5C 360.77,257.296 360.77,250.963 359.5,244.5C 359.432,235.081 357.766,226.081 354.5,217.5C 350.664,206.162 344.998,195.828 337.5,186.5C 336.675,185.614 335.675,185.281 334.5,185.5C 333.849,180.011 330.849,177.178 325.5,177C 321.441,184.23 316.774,191.063 311.5,197.5C 323.402,210.304 330.736,225.304 333.5,242.5C 333.5,248.5 333.5,254.5 333.5,260.5C 330.832,273.518 326.165,285.851 319.5,297.5C 318.833,298.167 318.167,298.833 317.5,299.5C 317.446,297.368 316.446,296.035 314.5,295.5C 330.357,273.328 333.524,249.328 324,223.5C 320.409,215.31 315.576,207.976 309.5,201.5C 302.809,210.518 296.142,219.518 289.5,228.5C 287.394,224.001 287.228,219.334 289,214.5C 290.183,213.269 291.349,213.269 292.5,214.5C 291.294,216.516 291.294,218.516 292.5,220.5C 293.173,218.311 294.173,216.311 295.5,214.5C 294.833,213.167 294.167,211.833 293.5,210.5C 288.818,210.664 285.985,213.331 285,218.5C 284.586,218.043 284.086,217.709 283.5,217.5C 282.06,218.952 280.394,219.952 278.5,220.5C 295.212,202.284 312.546,184.451 330.5,167C 331.167,166.333 331.833,166.333 332.5,167C 328.804,169.762 328.804,172.262 332.5,174.5C 369.097,215.456 374.597,260.456 349,309.5C 319.327,352.907 278.494,369.741 226.5,360C 191.777,349.945 166.944,328.445 152,295.5C 149.545,289.677 147.712,283.677 146.5,277.5C 140.293,277.952 139.459,276.619 144,273.5C 138.326,229.055 152.493,192.555 186.5,164C 231.16,134.036 275.827,134.036 320.5,164C 321.833,164.667 323.167,164.667 324.5,164C 325.693,162.905 327.027,162.072 328.5,161.5 Z"/></g>
<g><path style="opacity:1" fill="#eff5f7" d="M 330.5,303.5 C 327.725,304.06 325.892,305.727 325,308.5C 322.914,300.958 320.58,300.625 318,307.5C 318.689,306.643 319.522,305.977 320.5,305.5C 321.833,307.833 323.167,310.167 324.5,312.5C 326.197,311.636 327.363,310.303 328,308.5C 329.875,309.742 331.709,311.076 333.5,312.5C 335.163,308.665 335.663,308.999 335,313.5C 333.315,315.017 331.815,316.684 330.5,318.5C 332.332,319.057 333.665,320.057 334.5,321.5C 333.417,321.461 332.417,321.127 331.5,320.5C 330.667,321.5 329.833,322.5 329,323.5C 327.989,322.663 326.822,322.33 325.5,322.5C 326.174,320.976 327.174,319.642 328.5,318.5C 327.038,317.529 325.705,317.862 324.5,319.5C 321.914,320.48 319.247,320.813 316.5,320.5C 316.5,319.5 316.5,318.5 316.5,317.5C 315.178,317.33 314.011,317.663 313,318.5C 311.77,317.725 311.437,316.725 312,315.5C 313.5,314.667 314.667,313.5 315.5,312C 317.384,311.784 319.051,311.117 320.5,310C 316.939,309.272 314.939,307.106 314.5,303.5C 316.262,302.738 317.262,301.404 317.5,299.5C 318.167,298.833 318.833,298.167 319.5,297.5C 321.048,297.821 321.715,298.821 321.5,300.5C 323.766,300.859 325.599,300.192 327,298.5C 327.893,299.711 328.726,299.711 329.5,298.5C 326.922,296.365 327.088,294.365 330,292.5C 330.5,293.5 331,294.5 331.5,295.5C 331.477,298.018 331.144,300.684 330.5,303.5 Z"/></g>
<g><path style="opacity:1" fill="#0955a1" d="M 244.5,173.5 C 245.5,173.5 246.5,173.5 247.5,173.5C 252.5,173.5 257.5,173.5 262.5,173.5C 262.833,173.5 263.167,173.5 263.5,173.5C 273.102,175.255 282.435,178.255 291.5,182.5C 295.32,181.649 298.654,179.983 301.5,177.5C 301.833,177.5 302.167,177.5 302.5,177.5C 303.507,178.828 304.84,179.828 306.5,180.5C 307.429,181.689 307.762,183.022 307.5,184.5C 278.119,215.383 248.119,245.883 217.5,276C 205.819,276.167 194.152,276.667 182.5,277.5C 182.624,278.107 182.957,278.44 183.5,278.5C 189.528,295.185 200.194,307.851 215.5,316.5C 219.97,317.486 224.637,317.819 229.5,317.5C 229.768,315.901 229.434,314.568 228.5,313.5C 226.458,301.998 223.791,290.665 220.5,279.5C 239.055,259.277 258.388,239.61 278.5,220.5C 280.394,219.952 282.06,218.952 283.5,217.5C 284.086,217.709 284.586,218.043 285,218.5C 285.985,213.331 288.818,210.664 293.5,210.5C 294.167,211.833 294.833,213.167 295.5,214.5C 294.173,216.311 293.173,218.311 292.5,220.5C 291.294,218.516 291.294,216.516 292.5,214.5C 291.349,213.269 290.183,213.269 289,214.5C 287.228,219.334 287.394,224.001 289.5,228.5C 270.276,257.738 250.609,286.738 230.5,315.5C 233.446,316.655 236.446,316.821 239.5,316C 252.407,311.964 263.24,304.797 272,294.5C 275.521,288.927 278.855,283.26 282,277.5C 288.251,270.989 295.418,269.823 303.5,274C 307.749,278.546 308.582,283.713 306,289.5C 300.796,294.795 295.629,294.795 290.5,289.5C 289.013,293.241 289.68,296.574 292.5,299.5C 300.453,301.343 307.786,300.009 314.5,295.5C 316.446,296.035 317.446,297.368 317.5,299.5C 317.262,301.404 316.262,302.738 314.5,303.5C 313.026,304.436 312.026,305.77 311.5,307.5C 309.273,308.401 308.273,310.067 308.5,312.5C 307.07,312.421 305.736,312.754 304.5,313.5C 295.076,320.711 284.743,326.045 273.5,329.5C 264.248,331.125 254.915,331.792 245.5,331.5C 232.355,330.218 220.355,325.885 209.5,318.5C 195.439,308.339 185.106,294.672 178.5,277.5C 172.355,276.51 166.022,276.177 159.5,276.5C 158.051,274.836 156.051,274.002 153.5,274C 156.61,272.302 159.943,271.302 163.5,271C 158.614,271.617 156.947,269.784 158.5,265.5C 163.313,262.183 168.313,258.85 173.5,255.5C 174.167,251.353 174.834,247.353 175.5,243.5C 176.117,243.389 176.617,243.056 177,242.5C 177.173,246.541 177.673,250.541 178.5,254.5C 179.522,254.145 180.189,253.478 180.5,252.5C 215.267,229.94 250.6,208.107 286.5,187C 286.957,186.586 287.291,186.086 287.5,185.5C 281.312,181.948 274.645,179.615 267.5,178.5C 257.884,176.687 247.884,175.854 237.5,176C 239.382,175.802 241.048,175.302 242.5,174.5C 243.492,174.672 244.158,174.338 244.5,173.5 Z"/></g>
<g><path style="opacity:1" fill="#eaeff2" d="M 178.5,277.5 C 185.106,294.672 195.439,308.339 209.5,318.5C 206.354,318.656 203.854,319.989 202,322.5C 197.962,320.77 195.462,322.103 194.5,326.5C 195.391,327.59 196.391,327.59 197.5,326.5C 198.521,327.002 198.688,327.668 198,328.5C 196.307,329.184 194.807,330.184 193.5,331.5C 192.269,330.349 192.269,329.183 193.5,328C 192.833,327.333 192.167,327.333 191.5,328C 187.301,332.037 188.301,334.204 194.5,334.5C 193.319,335.309 191.986,335.309 190.5,334.5C 189.287,334.747 188.62,335.414 188.5,336.5C 184.843,333.842 181.509,330.842 178.5,327.5C 178.414,326.504 178.748,325.671 179.5,325C 182.063,323.921 184.729,323.421 187.5,323.5C 187.5,322.167 187.5,320.833 187.5,319.5C 192.522,318.93 196.522,316.597 199.5,312.5C 199,312.167 198.5,311.833 198,311.5C 196.779,312.272 195.779,313.272 195,314.5C 193.92,311.517 192.087,310.183 189.5,310.5C 189.833,309.833 190.167,309.167 190.5,308.5C 187.894,307.348 185.227,307.182 182.5,308C 181.134,311.19 179.134,314.024 176.5,316.5C 179.982,317.823 181.815,316.49 182,312.5C 182.617,315.035 182.117,317.368 180.5,319.5C 180.833,319.833 181.167,320.167 181.5,320.5C 182.5,319.833 183.5,319.167 184.5,318.5C 185.336,321.676 184.17,322.676 181,321.5C 180.055,321.905 179.388,322.572 179,323.5C 178.667,322.167 178.333,320.833 178,319.5C 177.95,321.744 177.117,323.411 175.5,324.5C 163.783,311.401 155.45,296.401 150.5,279.5C 159.44,277.528 168.773,276.861 178.5,277.5 Z"/></g>
<g><path style="opacity:1" fill="#82a4bd" d="M 355.5,285.5 C 355.34,287.153 354.674,288.486 353.5,289.5C 353.316,287.075 352.649,287.075 351.5,289.5C 350.41,288.609 350.41,287.609 351.5,286.5C 352.689,285.571 354.022,285.238 355.5,285.5 Z"/></g>
<g><path style="opacity:1" fill="#ecf2f3" d="M 357.5,273.5 C 357.52,275.143 356.853,276.476 355.5,277.5C 356.703,280.16 356.703,282.827 355.5,285.5C 354.022,285.238 352.689,285.571 351.5,286.5C 350.41,287.609 350.41,288.609 351.5,289.5C 352.649,287.075 353.316,287.075 353.5,289.5C 350.288,298.161 345.955,306.161 340.5,313.5C 339.414,313.38 338.747,312.713 338.5,311.5C 339.357,307.18 340.357,302.846 341.5,298.5C 340.5,297.167 339.5,297.167 338.5,298.5C 336.51,301.488 334.177,304.155 331.5,306.5C 330.614,305.675 330.281,304.675 330.5,303.5C 332.146,301.188 334.146,299.188 336.5,297.5C 336.154,296.304 335.654,296.304 335,297.5C 334.691,296.234 334.191,295.067 333.5,294C 335.611,288.233 337.444,282.066 339,275.5C 339.9,276.77 341.066,277.77 342.5,278.5C 341.675,282.151 342.341,282.318 344.5,279C 343.349,276.536 342.349,274.036 341.5,271.5C 342.833,271.5 344.167,271.5 345.5,271.5C 345.5,272.833 345.5,274.167 345.5,275.5C 349.243,275.459 349.41,276.126 346,277.5C 345.312,278.332 345.479,278.998 346.5,279.5C 350.179,277.398 353.846,275.398 357.5,273.5 Z"/></g>
<g><path style="opacity:1" fill="#fafcfb" d="M 220.5,279.5 C 223.791,290.665 226.458,301.998 228.5,313.5C 228.5,314.5 228.5,315.5 228.5,316.5C 224.167,316.5 219.833,316.5 215.5,316.5C 200.194,307.851 189.528,295.185 183.5,278.5C 189.324,277.834 195.324,277.5 201.5,277.5C 208.073,277.542 214.406,278.208 220.5,279.5 Z"/></g>
<g><path style="opacity:1" fill="#5b8ebc" d="M 159.5,276.5 C 166.022,276.177 172.355,276.51 178.5,277.5C 168.773,276.861 159.44,277.528 150.5,279.5C 149.596,278.791 149.263,277.791 149.5,276.5C 152.833,276.5 156.167,276.5 159.5,276.5 Z"/></g>
<g><path style="opacity:1" fill="#dbe3ea" d="M 359.5,244.5 C 360.77,250.963 360.77,257.296 359.5,263.5C 359.666,258.156 359.499,252.823 359,247.5C 357.716,250.282 355.883,252.615 353.5,254.5C 354.105,256.481 355.105,256.815 356.5,255.5C 357.521,256.002 357.688,256.668 357,257.5C 355.47,258.636 354.137,259.636 353,260.5C 352,259.833 351,259.167 350,258.5C 350.077,257.262 349.911,256.262 349.5,255.5C 347.953,256.768 346.953,258.435 346.5,260.5C 347.687,260.554 349.02,260.887 350.5,261.5C 349.529,262.962 349.862,264.295 351.5,265.5C 352.132,263.263 353.465,261.597 355.5,260.5C 356.812,262.736 356.479,264.736 354.5,266.5C 356.139,267.322 357.805,267.989 359.5,268.5C 359.88,270.698 359.213,272.365 357.5,273.5C 353.846,275.398 350.179,277.398 346.5,279.5C 345.479,278.998 345.312,278.332 346,277.5C 349.41,276.126 349.243,275.459 345.5,275.5C 345.5,274.167 345.5,272.833 345.5,271.5C 344.167,271.5 342.833,271.5 341.5,271.5C 342.349,274.036 343.349,276.536 344.5,279C 342.341,282.318 341.675,282.151 342.5,278.5C 341.066,277.77 339.9,276.77 339,275.5C 337.444,282.066 335.611,288.233 333.5,294C 334.191,295.067 334.691,296.234 335,297.5C 335.654,296.304 336.154,296.304 336.5,297.5C 334.146,299.188 332.146,301.188 330.5,303.5C 331.144,300.684 331.477,298.018 331.5,295.5C 331,294.5 330.5,293.5 330,292.5C 327.088,294.365 326.922,296.365 329.5,298.5C 328.726,299.711 327.893,299.711 327,298.5C 325.599,300.192 323.766,300.859 321.5,300.5C 321.715,298.821 321.048,297.821 319.5,297.5C 326.165,285.851 330.832,273.518 333.5,260.5C 333.268,265.046 334.101,269.379 336,273.5C 336.925,272.953 337.758,272.287 338.5,271.5C 336.777,269.132 336.11,266.466 336.5,263.5C 337.5,263.5 338.5,263.5 339.5,263.5C 339.368,269.234 342.035,271.234 347.5,269.5C 348.34,265.461 347.007,262.461 343.5,260.5C 344.929,258.045 346.262,255.545 347.5,253C 346.523,251.503 345.523,250.003 344.5,248.5C 345.991,246.459 345.658,244.959 343.5,244C 340.518,243.502 337.518,243.335 334.5,243.5C 334.34,241.801 334.506,240.134 335,238.5C 337.561,236.255 338.228,233.589 337,230.5C 339.27,232.315 339.936,234.648 339,237.5C 337.513,238.155 336.347,239.155 335.5,240.5C 338.717,241.296 341.883,240.963 345,239.5C 345.684,240.784 345.517,241.951 344.5,243C 346.235,243.651 347.902,243.485 349.5,242.5C 351.234,240.766 352.568,238.766 353.5,236.5C 355.773,237.375 356.773,239.042 356.5,241.5C 354.328,242.801 351.995,243.801 349.5,244.5C 349.281,245.675 349.614,246.675 350.5,247.5C 352.386,244.841 354.719,243.841 357.5,244.5C 356.5,245.167 355.5,245.833 354.5,246.5C 355,246.833 355.5,247.167 356,247.5C 357.599,246.929 358.766,245.929 359.5,244.5 Z"/></g>
<g><path style="opacity:1" fill="#f6fafa" d="M 359.5,263.5 C 359.5,265.167 359.5,266.833 359.5,268.5C 357.805,267.989 356.139,267.322 354.5,266.5C 356.479,264.736 356.812,262.736 355.5,260.5C 353.465,261.597 352.132,263.263 351.5,265.5C 349.862,264.295 349.529,262.962 350.5,261.5C 349.02,260.887 347.687,260.554 346.5,260.5C 346.953,258.435 347.953,256.768 349.5,255.5C 349.911,256.262 350.077,257.262 350,258.5C 351,259.167 352,259.833 353,260.5C 354.137,259.636 355.47,258.636 357,257.5C 357.688,256.668 357.521,256.002 356.5,255.5C 355.105,256.815 354.105,256.481 353.5,254.5C 355.883,252.615 357.716,250.282 359,247.5C 359.499,252.823 359.666,258.156 359.5,263.5 Z"/></g>
<g><path style="opacity:1" fill="#d4dde4" d="M 150.5,227.5 C 150.5,227.167 150.5,226.833 150.5,226.5C 152.861,226.326 155.194,225.993 157.5,225.5C 159.119,227.467 158.785,226.134 156.5,221.5C 156.833,221.167 157.167,220.833 157.5,220.5C 158.584,221.665 159.417,222.998 160,224.5C 160.219,223.062 160.719,221.729 161.5,220.5C 162.466,222.396 162.799,224.396 162.5,226.5C 164.604,226.201 166.604,226.534 168.5,227.5C 166.069,228.36 164.736,230.027 164.5,232.5C 165.93,232.579 167.264,232.246 168.5,231.5C 169.429,232.689 169.762,234.022 169.5,235.5C 168.127,235.343 166.793,235.51 165.5,236C 169.648,240.573 168.981,244.406 163.5,247.5C 162.751,244.772 163.418,242.272 165.5,240C 163.744,239.798 162.078,239.298 160.5,238.5C 161.09,237.201 162.09,236.368 163.5,236C 162.299,235.097 161.465,233.931 161,232.5C 159.585,234.961 158.085,237.294 156.5,239.5C 155.269,238.349 155.269,237.183 156.5,236C 153.094,235.397 152.761,234.231 155.5,232.5C 156.609,233.59 157.609,233.59 158.5,232.5C 156.851,231.352 155.351,230.019 154,228.5C 153.751,229.624 153.251,230.624 152.5,231.5C 151.828,230.051 151.161,228.718 150.5,227.5 Z"/></g>
<g><path style="opacity:1" fill="#ecf2f4" d="M 354.5,217.5 C 357.766,226.081 359.432,235.081 359.5,244.5C 358.766,245.929 357.599,246.929 356,247.5C 355.5,247.167 355,246.833 354.5,246.5C 355.5,245.833 356.5,245.167 357.5,244.5C 354.719,243.841 352.386,244.841 350.5,247.5C 349.614,246.675 349.281,245.675 349.5,244.5C 351.995,243.801 354.328,242.801 356.5,241.5C 356.773,239.042 355.773,237.375 353.5,236.5C 352.568,238.766 351.234,240.766 349.5,242.5C 347.902,243.485 346.235,243.651 344.5,243C 345.517,241.951 345.684,240.784 345,239.5C 341.883,240.963 338.717,241.296 335.5,240.5C 336.347,239.155 337.513,238.155 339,237.5C 339.936,234.648 339.27,232.315 337,230.5C 338.228,233.589 337.561,236.255 335,238.5C 334.506,240.134 334.34,241.801 334.5,243.5C 337.518,243.335 340.518,243.502 343.5,244C 345.658,244.959 345.991,246.459 344.5,248.5C 345.523,250.003 346.523,251.503 347.5,253C 346.262,255.545 344.929,258.045 343.5,260.5C 347.007,262.461 348.34,265.461 347.5,269.5C 342.035,271.234 339.368,269.234 339.5,263.5C 338.5,263.5 337.5,263.5 336.5,263.5C 336.11,266.466 336.777,269.132 338.5,271.5C 337.758,272.287 336.925,272.953 336,273.5C 334.101,269.379 333.268,265.046 333.5,260.5C 333.5,254.5 333.5,248.5 333.5,242.5C 333.67,238.356 333.003,234.356 331.5,230.5C 332.167,229.833 332.833,229.167 333.5,228.5C 332.948,226.997 332.948,225.331 333.5,223.5C 335.199,223.34 336.866,223.506 338.5,224C 334.827,224.892 334.66,226.392 338,228.5C 338.661,226.084 340.161,224.418 342.5,223.5C 341.603,223.331 340.603,222.998 339.5,222.5C 341.51,221.935 343.176,220.935 344.5,219.5C 343.284,218.904 341.951,218.737 340.5,219C 341.38,217.644 341.714,216.144 341.5,214.5C 338.938,215.371 336.272,215.371 333.5,214.5C 333.5,213.5 333.5,212.5 333.5,211.5C 330.306,211.824 329.306,210.658 330.5,208C 333.372,207.685 336.205,207.185 339,206.5C 339.5,206.833 340,207.167 340.5,207.5C 339.675,208.386 338.675,208.719 337.5,208.5C 337.5,209.5 337.5,210.5 337.5,211.5C 339.144,211.714 340.644,211.38 342,210.5C 343.314,211.313 344.481,212.313 345.5,213.5C 346.192,212.975 346.692,212.308 347,211.5C 347.494,213.134 347.66,214.801 347.5,216.5C 351.243,216.459 351.41,217.126 348,218.5C 347.251,219.635 347.417,220.635 348.5,221.5C 349.736,220.754 351.07,220.421 352.5,220.5C 352.285,218.821 352.952,217.821 354.5,217.5 Z"/></g>
<g><path style="opacity:1" fill="#b0bcca" d="M 349.5,230.5 C 350.376,230.369 351.043,230.702 351.5,231.5C 349.829,233.51 349.162,235.843 349.5,238.5C 347.167,238.5 344.833,238.5 342.5,238.5C 342.5,237.5 342.5,236.5 342.5,235.5C 346.583,236.795 348.917,235.128 349.5,230.5 Z"/></g>
<g><path style="opacity:1" fill="#f9fbfb" d="M 314.5,295.5 C 307.786,300.009 300.453,301.343 292.5,299.5C 289.68,296.574 289.013,293.241 290.5,289.5C 295.629,294.795 300.796,294.795 306,289.5C 308.582,283.713 307.749,278.546 303.5,274C 295.418,269.823 288.251,270.989 282,277.5C 278.855,283.26 275.521,288.927 272,294.5C 263.24,304.797 252.407,311.964 239.5,316C 236.446,316.821 233.446,316.655 230.5,315.5C 250.609,286.738 270.276,257.738 289.5,228.5C 296.142,219.518 302.809,210.518 309.5,201.5C 315.576,207.976 320.409,215.31 324,223.5C 333.524,249.328 330.357,273.328 314.5,295.5 Z"/></g>
<g><path style="opacity:1" fill="#e4ebef" d="M 172.5,183.5 C 174.797,186.991 178.13,188.991 182.5,189.5C 181.619,190.971 180.286,191.804 178.5,192C 179.748,193.959 181.415,195.459 183.5,196.5C 183.167,197.167 182.833,197.833 182.5,198.5C 184.045,199.452 185.712,199.785 187.5,199.5C 188.063,197.09 188.563,194.757 189,192.5C 187.215,193.24 185.382,193.907 183.5,194.5C 182.344,193.424 182.511,192.424 184,191.5C 185.049,192.517 186.216,192.684 187.5,192C 184.398,190.386 184.064,188.553 186.5,186.5C 187.711,187.274 187.711,188.107 186.5,189C 188.035,189.496 189.535,189.33 191,188.5C 192,189.167 193,189.833 194,190.5C 194.5,190.167 195,189.833 195.5,189.5C 193.703,188.305 192.703,186.638 192.5,184.5C 193.978,184.238 195.311,184.571 196.5,185.5C 195.494,186.396 195.494,187.062 196.5,187.5C 197.429,186.311 197.762,184.978 197.5,183.5C 198.552,183.351 199.552,183.517 200.5,184C 199.396,185.131 199.729,185.965 201.5,186.5C 203.838,184.989 204.504,185.323 203.5,187.5C 204.325,188.386 205.325,188.719 206.5,188.5C 191.629,200.537 181.462,215.871 176,234.5C 175.502,237.482 175.335,240.482 175.5,243.5C 174.834,247.353 174.167,251.353 173.5,255.5C 168.313,258.85 163.313,262.183 158.5,265.5C 155.412,267.375 152.078,268.708 148.5,269.5C 147.437,259.527 147.271,249.527 148,239.5C 148.189,235.233 149.023,231.233 150.5,227.5C 151.161,228.718 151.828,230.051 152.5,231.5C 153.251,230.624 153.751,229.624 154,228.5C 155.351,230.019 156.851,231.352 158.5,232.5C 157.609,233.59 156.609,233.59 155.5,232.5C 152.761,234.231 153.094,235.397 156.5,236C 155.269,237.183 155.269,238.349 156.5,239.5C 158.085,237.294 159.585,234.961 161,232.5C 161.465,233.931 162.299,235.097 163.5,236C 162.09,236.368 161.09,237.201 160.5,238.5C 162.078,239.298 163.744,239.798 165.5,240C 163.418,242.272 162.751,244.772 163.5,247.5C 168.981,244.406 169.648,240.573 165.5,236C 166.793,235.51 168.127,235.343 169.5,235.5C 169.762,234.022 169.429,232.689 168.5,231.5C 167.264,232.246 165.93,232.579 164.5,232.5C 164.736,230.027 166.069,228.36 168.5,227.5C 166.604,226.534 164.604,226.201 162.5,226.5C 162.799,224.396 162.466,222.396 161.5,220.5C 160.719,221.729 160.219,223.062 160,224.5C 159.417,222.998 158.584,221.665 157.5,220.5C 157.167,220.833 156.833,221.167 156.5,221.5C 158.785,226.134 159.119,227.467 157.5,225.5C 155.194,225.993 152.861,226.326 150.5,226.5C 154.405,210.356 161.738,196.023 172.5,183.5 Z"/></g>
<g><path style="opacity:1" fill="#1f599e" d="M 235.5,174.5 C 237.833,174.5 240.167,174.5 242.5,174.5C 241.048,175.302 239.382,175.802 237.5,176C 247.884,175.854 257.884,176.687 267.5,178.5C 222.93,173.91 193.764,192.91 180,235.5C 179.537,239.838 179.037,244.171 178.5,248.5C 178.585,250.333 179.252,251.666 180.5,252.5C 180.189,253.478 179.522,254.145 178.5,254.5C 177.673,250.541 177.173,246.541 177,242.5C 176.617,243.056 176.117,243.389 175.5,243.5C 175.335,240.482 175.502,237.482 176,234.5C 181.462,215.871 191.629,200.537 206.5,188.5C 207.5,187.833 208.5,187.167 209.5,186.5C 211.882,185.649 213.882,184.316 215.5,182.5C 216.239,182.631 216.906,182.464 217.5,182C 218.738,181.31 218.738,180.81 217.5,180.5C 217.389,179.883 217.056,179.383 216.5,179C 218.135,178.46 219.468,178.96 220.5,180.5C 222.741,179.968 224.241,178.635 225,176.5C 226.714,177.925 228.047,177.592 229,175.5C 231.373,176.543 233.54,176.21 235.5,174.5 Z"/></g>
<g><path style="opacity:1" fill="#d9e3e9" d="M 354.5,217.5 C 352.952,217.821 352.285,218.821 352.5,220.5C 351.07,220.421 349.736,220.754 348.5,221.5C 347.417,220.635 347.251,219.635 348,218.5C 351.41,217.126 351.243,216.459 347.5,216.5C 347.66,214.801 347.494,213.134 347,211.5C 346.692,212.308 346.192,212.975 345.5,213.5C 344.481,212.313 343.314,211.313 342,210.5C 340.644,211.38 339.144,211.714 337.5,211.5C 337.5,210.5 337.5,209.5 337.5,208.5C 338.675,208.719 339.675,208.386 340.5,207.5C 340,207.167 339.5,206.833 339,206.5C 336.205,207.185 333.372,207.685 330.5,208C 329.306,210.658 330.306,211.824 333.5,211.5C 333.5,212.5 333.5,213.5 333.5,214.5C 336.272,215.371 338.938,215.371 341.5,214.5C 341.714,216.144 341.38,217.644 340.5,219C 341.951,218.737 343.284,218.904 344.5,219.5C 343.176,220.935 341.51,221.935 339.5,222.5C 340.603,222.998 341.603,223.331 342.5,223.5C 340.161,224.418 338.661,226.084 338,228.5C 334.66,226.392 334.827,224.892 338.5,224C 336.866,223.506 335.199,223.34 333.5,223.5C 332.948,225.331 332.948,226.997 333.5,228.5C 332.833,229.167 332.167,229.833 331.5,230.5C 333.003,234.356 333.67,238.356 333.5,242.5C 330.736,225.304 323.402,210.304 311.5,197.5C 316.774,191.063 321.441,184.23 325.5,177C 330.849,177.178 333.849,180.011 334.5,185.5C 335.675,185.281 336.675,185.614 337.5,186.5C 344.998,195.828 350.664,206.162 354.5,217.5 Z"/></g>
<g><path style="opacity:1" fill="#f1f7f7" d="M 215.5,164.5 C 215.611,166.648 214.944,166.981 213.5,165.5C 212.646,166.522 211.646,167.355 210.5,168C 210.833,168.333 211.167,168.667 211.5,169C 209.534,170.46 207.868,172.127 206.5,174C 206.667,174.5 206.833,175 207,175.5C 209.44,173.378 212.107,171.711 215,170.5C 216.404,170.509 217.57,171.009 218.5,172C 214.202,172.794 211.868,175.294 211.5,179.5C 212.822,179.67 213.989,179.337 215,178.5C 215.417,179.756 216.25,180.423 217.5,180.5C 218.738,180.81 218.738,181.31 217.5,182C 216.906,182.464 216.239,182.631 215.5,182.5C 213.958,181.699 212.292,181.366 210.5,181.5C 210.5,180.5 210.5,179.5 210.5,178.5C 208.876,178.64 207.71,177.973 207,176.5C 203.274,177.456 202.107,179.623 203.5,183C 205.108,183.658 206.275,183.158 207,181.5C 208.098,182.967 209.598,183.801 211.5,184C 210.244,184.417 209.577,185.25 209.5,186.5C 208.5,187.167 207.5,187.833 206.5,188.5C 205.325,188.719 204.325,188.386 203.5,187.5C 204.504,185.323 203.838,184.989 201.5,186.5C 199.729,185.965 199.396,185.131 200.5,184C 199.552,183.517 198.552,183.351 197.5,183.5C 197.762,184.978 197.429,186.311 196.5,187.5C 195.494,187.062 195.494,186.396 196.5,185.5C 195.311,184.571 193.978,184.238 192.5,184.5C 192.703,186.638 193.703,188.305 195.5,189.5C 195,189.833 194.5,190.167 194,190.5C 193,189.833 192,189.167 191,188.5C 189.535,189.33 188.035,189.496 186.5,189C 187.711,188.107 187.711,187.274 186.5,186.5C 184.064,188.553 184.398,190.386 187.5,192C 186.216,192.684 185.049,192.517 184,191.5C 182.511,192.424 182.344,193.424 183.5,194.5C 185.382,193.907 187.215,193.24 189,192.5C 188.563,194.757 188.063,197.09 187.5,199.5C 185.712,199.785 184.045,199.452 182.5,198.5C 182.833,197.833 183.167,197.167 183.5,196.5C 181.415,195.459 179.748,193.959 178.5,192C 180.286,191.804 181.619,190.971 182.5,189.5C 178.13,188.991 174.797,186.991 172.5,183.5C 173.708,180.956 175.708,179.622 178.5,179.5C 179.746,175.253 182.413,172.253 186.5,170.5C 187.767,169.913 188.767,169.913 189.5,170.5C 187.89,172.597 186.723,174.93 186,177.5C 184.901,174.956 183.735,174.956 182.5,177.5C 183.5,178.167 184.5,178.833 185.5,179.5C 182.083,180.639 178.75,181.972 175.5,183.5C 176.167,183.833 176.833,184.167 177.5,184.5C 181.012,183.025 184.679,181.858 188.5,181C 187.833,180.333 187.167,179.667 186.5,179C 189.788,177.642 191.288,175.142 191,171.5C 193.602,171.899 196.102,171.899 198.5,171.5C 196.807,172.228 195.307,173.228 194,174.5C 193.591,176.991 192.424,178.991 190.5,180.5C 190.833,180.833 191.167,181.167 191.5,181.5C 193.854,180.94 196.187,180.273 198.5,179.5C 197.355,178.109 197.355,176.776 198.5,175.5C 199.996,179.277 201.663,179.277 203.5,175.5C 202.319,173.802 202.319,172.135 203.5,170.5C 204.167,170.833 204.833,171.167 205.5,171.5C 209.088,168.262 210.755,164.262 210.5,159.5C 207.452,159.506 206.952,158.506 209,156.5C 210,159.167 211,159.167 212,156.5C 213.309,158.686 213.476,160.853 212.5,163C 213.244,164.039 214.244,164.539 215.5,164.5 Z"/></g>
<g><path style="opacity:1" fill="#fafcfc" d="M 267.5,178.5 C 274.645,179.615 281.312,181.948 287.5,185.5C 287.291,186.086 286.957,186.586 286.5,187C 250.6,208.107 215.267,229.94 180.5,252.5C 179.252,251.666 178.585,250.333 178.5,248.5C 179.037,244.171 179.537,239.838 180,235.5C 193.764,192.91 222.93,173.91 267.5,178.5 Z"/></g>
<g><path style="opacity:1" fill="#d1dee7" d="M 301.5,177.5 C 298.654,179.983 295.32,181.649 291.5,182.5C 282.435,178.255 273.102,175.255 263.5,173.5C 268.078,173.736 268.411,172.236 264.5,169C 264.833,168.5 265.167,168 265.5,167.5C 266.833,167.833 268.167,168.167 269.5,168.5C 269.289,170.29 269.289,171.956 269.5,173.5C 270.354,172.478 271.354,171.645 272.5,171C 270.842,170.275 270.342,169.108 271,167.5C 273.29,165.405 275.79,164.738 278.5,165.5C 277.516,167.48 276.183,169.147 274.5,170.5C 274.667,170.833 274.833,171.167 275,171.5C 278.221,168.272 279.721,168.938 279.5,173.5C 280.5,173.5 281.5,173.5 282.5,173.5C 282.077,170.712 283.077,168.712 285.5,167.5C 285.166,170.208 285.666,172.875 287,175.5C 290.569,168.915 292.235,169.582 292,177.5C 291.167,178.333 290.333,179.167 289.5,180C 291.579,180.808 293.579,180.641 295.5,179.5C 294.833,178.833 294.167,178.167 293.5,177.5C 293.833,177.167 294.167,176.833 294.5,176.5C 296.738,176.277 299.072,176.61 301.5,177.5 Z"/></g>
<g><path style="opacity:1" fill="#d1dde5" d="M 215.5,182.5 C 213.882,184.316 211.882,185.649 209.5,186.5C 209.577,185.25 210.244,184.417 211.5,184C 209.598,183.801 208.098,182.967 207,181.5C 206.275,183.158 205.108,183.658 203.5,183C 202.107,179.623 203.274,177.456 207,176.5C 207.71,177.973 208.876,178.64 210.5,178.5C 210.5,179.5 210.5,180.5 210.5,181.5C 212.292,181.366 213.958,181.699 215.5,182.5 Z"/></g>
<g><path style="opacity:1" fill="#e7edf2" d="M 235.5,174.5 C 233.54,176.21 231.373,176.543 229,175.5C 228.047,177.592 226.714,177.925 225,176.5C 224.241,178.635 222.741,179.968 220.5,180.5C 219.468,178.96 218.135,178.46 216.5,179C 217.056,179.383 217.389,179.883 217.5,180.5C 216.25,180.423 215.417,179.756 215,178.5C 213.989,179.337 212.822,179.67 211.5,179.5C 211.868,175.294 214.202,172.794 218.5,172C 217.57,171.009 216.404,170.509 215,170.5C 212.107,171.711 209.44,173.378 207,175.5C 206.833,175 206.667,174.5 206.5,174C 207.868,172.127 209.534,170.46 211.5,169C 211.167,168.667 210.833,168.333 210.5,168C 211.646,167.355 212.646,166.522 213.5,165.5C 214.944,166.981 215.611,166.648 215.5,164.5C 216.304,165.387 216.971,167.053 217.5,169.5C 220.076,167.122 221.076,164.122 220.5,160.5C 224.201,159.517 226.867,157.184 228.5,153.5C 230.167,152.167 231.833,152.167 233.5,153.5C 231.412,157.223 231.078,160.889 232.5,164.5C 233.354,163.478 234.354,162.645 235.5,162C 233.745,157.168 235.412,154.835 240.5,155C 239.272,155.779 238.272,156.779 237.5,158C 236.78,162.271 235.113,166.105 232.5,169.5C 230.473,171.674 228.14,172.008 225.5,170.5C 225.5,171.5 225.5,172.5 225.5,173.5C 227.857,173.663 230.19,173.497 232.5,173C 233.126,172.25 233.626,171.416 234,170.5C 234.5,171.667 235.333,172.5 236.5,173C 235.944,173.383 235.611,173.883 235.5,174.5 Z"/></g>
<g><path style="opacity:1" fill="#e7eef1" d="M 249.5,146.5 C 250.167,146.833 250.833,147.167 251.5,147.5C 255.735,146.564 260.069,146.231 264.5,146.5C 266.124,146.36 267.29,147.027 268,148.5C 268.308,147.692 268.808,147.025 269.5,146.5C 274.401,146.809 278.735,148.475 282.5,151.5C 284.098,150.515 285.765,150.349 287.5,151C 289.808,152.867 292.475,153.867 295.5,154C 297,154.833 298.167,156 299,157.5C 300.049,156.483 301.216,156.316 302.5,157C 306.666,159.917 310.999,162.584 315.5,165C 316.357,165.689 317.023,166.522 317.5,167.5C 312.459,170.892 307.459,174.226 302.5,177.5C 302.167,177.5 301.833,177.5 301.5,177.5C 299.072,176.61 296.738,176.277 294.5,176.5C 294.167,176.833 293.833,177.167 293.5,177.5C 294.167,178.167 294.833,178.833 295.5,179.5C 293.579,180.641 291.579,180.808 289.5,180C 290.333,179.167 291.167,178.333 292,177.5C 292.235,169.582 290.569,168.915 287,175.5C 285.666,172.875 285.166,170.208 285.5,167.5C 283.077,168.712 282.077,170.712 282.5,173.5C 281.5,173.5 280.5,173.5 279.5,173.5C 279.721,168.938 278.221,168.272 275,171.5C 274.833,171.167 274.667,170.833 274.5,170.5C 276.183,169.147 277.516,167.48 278.5,165.5C 275.79,164.738 273.29,165.405 271,167.5C 270.342,169.108 270.842,170.275 272.5,171C 271.354,171.645 270.354,172.478 269.5,173.5C 269.289,171.956 269.289,170.29 269.5,168.5C 268.167,168.167 266.833,167.833 265.5,167.5C 265.167,168 264.833,168.5 264.5,169C 268.411,172.236 268.078,173.736 263.5,173.5C 263.167,173.5 262.833,173.5 262.5,173.5C 259.254,172.069 255.92,171.735 252.5,172.5C 250.956,172.21 249.623,171.544 248.5,170.5C 247.614,171.325 247.281,172.325 247.5,173.5C 246.5,173.5 245.5,173.5 244.5,173.5C 242.712,173.785 241.045,173.452 239.5,172.5C 241.35,171.758 242.016,170.758 241.5,169.5C 242.167,170.5 242.833,171.5 243.5,172.5C 244.711,171.726 244.711,170.893 243.5,170C 244.308,169.692 244.975,169.192 245.5,168.5C 244.167,166.833 244.167,165.167 245.5,163.5C 244.132,162.406 242.965,162.74 242,164.5C 242,165.833 242,167.167 242,168.5C 240.989,167.663 239.822,167.33 238.5,167.5C 239.044,163.327 240.21,159.327 242,155.5C 242.826,157.405 243.993,157.739 245.5,156.5C 246.547,152.836 247.88,149.503 249.5,146.5 Z"/></g>
<g><path style="opacity:1" fill="#6d96bb" d="M 262.5,173.5 C 257.5,173.5 252.5,173.5 247.5,173.5C 247.281,172.325 247.614,171.325 248.5,170.5C 249.623,171.544 250.956,172.21 252.5,172.5C 255.92,171.735 259.254,172.069 262.5,173.5 Z"/></g>
<g><path style="opacity:1" fill="#dbe3e9" d="M 249.5,146.5 C 247.88,149.503 246.547,152.836 245.5,156.5C 243.993,157.739 242.826,157.405 242,155.5C 240.21,159.327 239.044,163.327 238.5,167.5C 239.822,167.33 240.989,167.663 242,168.5C 242,167.167 242,165.833 242,164.5C 242.965,162.74 244.132,162.406 245.5,163.5C 244.167,165.167 244.167,166.833 245.5,168.5C 244.975,169.192 244.308,169.692 243.5,170C 244.711,170.893 244.711,171.726 243.5,172.5C 242.833,171.5 242.167,170.5 241.5,169.5C 242.016,170.758 241.35,171.758 239.5,172.5C 241.045,173.452 242.712,173.785 244.5,173.5C 244.158,174.338 243.492,174.672 242.5,174.5C 240.167,174.5 237.833,174.5 235.5,174.5C 235.611,173.883 235.944,173.383 236.5,173C 235.333,172.5 234.5,171.667 234,170.5C 233.626,171.416 233.126,172.25 232.5,173C 230.19,173.497 227.857,173.663 225.5,173.5C 225.5,172.5 225.5,171.5 225.5,170.5C 228.14,172.008 230.473,171.674 232.5,169.5C 235.113,166.105 236.78,162.271 237.5,158C 238.272,156.779 239.272,155.779 240.5,155C 235.412,154.835 233.745,157.168 235.5,162C 234.354,162.645 233.354,163.478 232.5,164.5C 231.078,160.889 231.412,157.223 233.5,153.5C 231.833,152.167 230.167,152.167 228.5,153.5C 226.867,157.184 224.201,159.517 220.5,160.5C 221.076,164.122 220.076,167.122 217.5,169.5C 216.971,167.053 216.304,165.387 215.5,164.5C 214.244,164.539 213.244,164.039 212.5,163C 213.476,160.853 213.309,158.686 212,156.5C 211,159.167 210,159.167 209,156.5C 206.952,158.506 207.452,159.506 210.5,159.5C 210.755,164.262 209.088,168.262 205.5,171.5C 204.833,171.167 204.167,170.833 203.5,170.5C 202.319,172.135 202.319,173.802 203.5,175.5C 201.663,179.277 199.996,179.277 198.5,175.5C 197.355,176.776 197.355,178.109 198.5,179.5C 196.187,180.273 193.854,180.94 191.5,181.5C 191.167,181.167 190.833,180.833 190.5,180.5C 192.424,178.991 193.591,176.991 194,174.5C 195.307,173.228 196.807,172.228 198.5,171.5C 196.102,171.899 193.602,171.899 191,171.5C 191.288,175.142 189.788,177.642 186.5,179C 187.167,179.667 187.833,180.333 188.5,181C 184.679,181.858 181.012,183.025 177.5,184.5C 176.833,184.167 176.167,183.833 175.5,183.5C 178.75,181.972 182.083,180.639 185.5,179.5C 184.5,178.833 183.5,178.167 182.5,177.5C 183.735,174.956 184.901,174.956 186,177.5C 186.723,174.93 187.89,172.597 189.5,170.5C 188.767,169.913 187.767,169.913 186.5,170.5C 190.025,166.817 194.025,163.65 198.5,161C 213.674,152.391 229.674,147.225 246.5,145.5C 247.726,145.52 248.726,145.853 249.5,146.5 Z"/></g>
<g><path style="opacity:1" fill="#95b6d2" d="M 264.5,146.5 C 260.069,146.231 255.735,146.564 251.5,147.5C 253.223,146.2 255.39,145.533 258,145.5C 260.361,145.504 262.527,145.837 264.5,146.5 Z"/></g>
<g><path style="opacity:1" fill="#1c59a1" d="M 419.5,292.5 C 403.224,352.947 365.558,393.78 306.5,415C 299.961,417.135 293.294,418.635 286.5,419.5C 266.984,421.741 247.317,422.074 227.5,420.5C 172.751,411.238 131.585,382.572 104,334.5C 99.418,326.578 95.918,318.245 93.5,309.5C 93.6025,306.781 93.2692,304.115 92.5,301.5C 92.8333,300.833 93.1667,300.167 93.5,299.5C 94.2811,300.729 94.7811,302.062 95,303.5C 95.1909,301.292 95.6909,299.292 96.5,297.5C 99.0661,304.018 101.566,310.685 104,317.5C 137.495,385.514 192.328,418.014 268.5,415C 346.605,403.504 395.272,359.671 414.5,283.5C 415.927,281.852 416.76,279.852 417,277.5C 419.144,282.258 419.977,287.258 419.5,292.5 Z"/></g>
<g><path style="opacity:1" fill="#215598" d="M 279.5,396.5 C 283.56,395.848 285.56,397.515 285.5,401.5C 282.288,401.288 280.288,399.621 279.5,396.5 Z"/></g>
<g><path style="opacity:1" fill="#1c59a4" d="M 232.5,382.5 C 233.478,382.189 234.145,381.522 234.5,380.5C 232.604,379.534 230.604,379.201 228.5,379.5C 226.054,378.608 225.388,377.108 226.5,375C 232.148,375.03 237.815,375.197 243.5,375.5C 243.657,376.873 243.49,378.207 243,379.5C 238.232,381.969 234.398,385.469 231.5,390C 233.464,390.624 235.131,390.124 236.5,388.5C 237.833,390.5 237.833,392.5 236.5,394.5C 229.758,395.816 223.258,397.816 217,400.5C 214.704,399.372 212.871,397.705 211.5,395.5C 214.447,394.679 217.447,394.179 220.5,394C 225.029,390.636 229.029,386.803 232.5,382.5 Z"/></g>
<g><path style="opacity:1" fill="#255da5" d="M 281.5,371.5 C 280.549,372.919 280.216,374.585 280.5,376.5C 281.833,376.5 283.167,376.5 284.5,376.5C 285.404,377.209 285.737,378.209 285.5,379.5C 283.833,379.5 282.167,379.5 280.5,379.5C 278.355,379.738 276.688,380.738 275.5,382.5C 275.833,382.833 276.167,383.167 276.5,383.5C 277.622,382.37 278.956,381.703 280.5,381.5C 280.143,385.593 280.143,389.593 280.5,393.5C 279.389,394.611 278.722,395.945 278.5,397.5C 279.223,399.782 279.557,402.116 279.5,404.5C 277.131,404.149 274.797,403.982 272.5,404C 271.74,405.441 271.074,406.941 270.5,408.5C 266.508,409.539 265.675,408.205 268,404.5C 269.873,402.291 272.04,400.458 274.5,399C 273.552,398.517 272.552,398.351 271.5,398.5C 271.48,396.857 272.147,395.524 273.5,394.5C 272.949,391.944 271.949,389.611 270.5,387.5C 268.352,390.37 265.685,391.037 262.5,389.5C 261.614,388.675 261.281,387.675 261.5,386.5C 266.299,386.101 270.299,384.101 273.5,380.5C 274.474,378.915 275.974,377.915 278,377.5C 278.617,376.551 278.451,375.718 277.5,375C 278.308,374.692 278.975,374.192 279.5,373.5C 278.972,371.664 278.306,369.997 277.5,368.5C 277.167,365.5 278.5,364.167 281.5,364.5C 281.5,366.833 281.5,369.167 281.5,371.5 Z"/></g>
<g><path style="opacity:1" fill="#29579e" d="M 331.5,379.5 C 334.313,379.548 336.979,380.215 339.5,381.5C 340.452,383.045 340.785,384.712 340.5,386.5C 338.712,386.785 337.045,386.452 335.5,385.5C 334.653,384.155 333.487,383.155 332,382.5C 331.517,381.552 331.351,380.552 331.5,379.5 Z"/></g>
<g><path style="opacity:1" fill="#8db8d3" d="M 280.5,379.5 C 280.5,380.167 280.5,380.833 280.5,381.5C 278.956,381.703 277.622,382.37 276.5,383.5C 276.167,383.167 275.833,382.833 275.5,382.5C 276.688,380.738 278.355,379.738 280.5,379.5 Z"/></g>
<g><path style="opacity:1" fill="#2058a2" d="M 199.5,363.5 C 201.167,363.5 202.833,363.5 204.5,363.5C 204.785,365.288 204.452,366.955 203.5,368.5C 199.852,369.473 198.186,371.807 198.5,375.5C 195.059,375.301 191.726,375.801 188.5,377C 187.643,377.689 186.977,378.522 186.5,379.5C 189.376,382.716 188.71,384.216 184.5,384C 177.773,379.857 178.439,376.69 186.5,374.5C 187.429,373.311 187.762,371.978 187.5,370.5C 192.971,370.697 196.971,368.364 199.5,363.5 Z"/></g>
<g><path style="opacity:1" fill="#799abf" d="M 228.5,379.5 C 230.604,379.201 232.604,379.534 234.5,380.5C 234.145,381.522 233.478,382.189 232.5,382.5C 231.552,381.022 230.219,380.022 228.5,379.5 Z"/></g>
<g><path style="opacity:1" fill="#2059a1" d="M 317.5,356.5 C 318.981,357.421 320.314,358.588 321.5,360C 321.921,363.407 322.921,366.574 324.5,369.5C 325.833,368.833 326.833,367.833 327.5,366.5C 328.689,365.571 330.022,365.238 331.5,365.5C 330.736,368.787 328.903,371.454 326,373.5C 327.171,382.497 323.671,388.831 315.5,392.5C 315.167,392.167 314.833,391.833 314.5,391.5C 316.949,389.224 318.782,386.558 320,383.5C 320.667,381.833 320.667,380.167 320,378.5C 316.833,381.667 313.667,384.833 310.5,388C 308.075,388.986 306.409,388.319 305.5,386C 309.409,381.1 314.243,377.267 320,374.5C 319.827,369.145 318.327,364.145 315.5,359.5C 315.586,358.504 315.252,357.671 314.5,357C 315.448,356.517 316.448,356.351 317.5,356.5 Z"/></g>
<g><path style="opacity:1" fill="#3b6ea6" d="M 277.5,368.5 C 278.306,369.997 278.972,371.664 279.5,373.5C 278.975,374.192 278.308,374.692 277.5,375C 278.451,375.718 278.617,376.551 278,377.5C 275.974,377.915 274.474,378.915 273.5,380.5C 271.833,380.5 270.167,380.5 268.5,380.5C 269.328,377.023 270.328,373.69 271.5,370.5C 271.89,373.466 271.223,376.132 269.5,378.5C 270,378.833 270.5,379.167 271,379.5C 272.3,377.541 274.133,376.374 276.5,376C 275.584,375.722 274.918,375.222 274.5,374.5C 275.496,374.586 276.329,374.252 277,373.5C 277.494,371.866 277.66,370.199 277.5,368.5 Z"/></g>
<g><path style="opacity:1" fill="#1551a5" d="M 271.5,370.5 C 273.912,370.694 274.912,372.027 274.5,374.5C 274.918,375.222 275.584,375.722 276.5,376C 274.133,376.374 272.3,377.541 271,379.5C 270.5,379.167 270,378.833 269.5,378.5C 271.223,376.132 271.89,373.466 271.5,370.5 Z"/></g>
<g><path style="opacity:1" fill="#9cbde2" d="M 281.5,371.5 C 281.5,372.833 281.5,374.167 281.5,375.5C 282.791,375.263 283.791,375.596 284.5,376.5C 283.167,376.5 281.833,376.5 280.5,376.5C 280.216,374.585 280.549,372.919 281.5,371.5 Z"/></g>
<g><path style="opacity:1" fill="#21579f" d="M 165.5,372.5 C 168.976,373.643 172.642,373.81 176.5,373C 178.041,371.629 179.375,370.129 180.5,368.5C 185.168,362.833 190.168,357.5 195.5,352.5C 196.833,355.167 196.833,357.833 195.5,360.5C 188.024,364.809 182.024,370.642 177.5,378C 175.801,378.393 174.301,377.893 173,376.5C 169.686,378.307 166.186,378.807 162.5,378C 159.392,374.05 160.392,372.217 165.5,372.5 Z"/></g>
<g><path style="opacity:1" fill="#b5cce0" d="M 177.5,365.5 C 178.728,366.306 179.728,367.306 180.5,368.5C 179.375,370.129 178.041,371.629 176.5,373C 172.642,373.81 168.976,373.643 165.5,372.5C 166.167,371.833 166.833,371.167 167.5,370.5C 170.652,371.239 173.985,371.239 177.5,370.5C 177.5,368.833 177.5,367.167 177.5,365.5 Z"/></g>
<g><path style="opacity:1" fill="#23589f" d="M 177.5,365.5 C 177.5,367.167 177.5,368.833 177.5,370.5C 173.985,371.239 170.652,371.239 167.5,370.5C 169.216,369.029 171.216,368.029 173.5,367.5C 173.5,366.167 173.5,364.833 173.5,363.5C 175.38,363.229 176.713,363.896 177.5,365.5 Z"/></g>
<g><path style="opacity:1" fill="#8eb1d0" d="M 317.5,356.5 C 316.448,356.351 315.448,356.517 314.5,357C 315.252,357.671 315.586,358.504 315.5,359.5C 313.896,358.713 313.229,357.38 313.5,355.5C 315.099,355.232 316.432,355.566 317.5,356.5 Z"/></g>
<g><path style="opacity:1" fill="#3c6ba9" d="M 148.5,341.5 C 149.919,342.451 151.585,342.784 153.5,342.5C 150.972,343.166 148.306,343.832 145.5,344.5C 146,344.833 146.5,345.167 147,345.5C 152.116,346.425 157.283,346.758 162.5,346.5C 155.874,346.981 149.207,347.981 142.5,349.5C 139.493,349.037 138.493,347.537 139.5,345C 138.619,344.292 137.953,343.458 137.5,342.5C 141.056,342.665 144.723,342.331 148.5,341.5 Z"/></g>
<g><path style="opacity:1" fill="#1f5ba3" d="M 364.5,340.5 C 365.833,340.5 367.167,340.5 368.5,340.5C 368.414,342.677 367.747,344.677 366.5,346.5C 368.22,347.92 370.054,349.253 372,350.5C 372.443,356.04 369.943,357.873 364.5,356C 366.836,353.952 366.836,352.118 364.5,350.5C 363.02,353.397 361.686,356.397 360.5,359.5C 359.15,360.95 357.484,361.617 355.5,361.5C 355.34,359.801 355.506,358.134 356,356.5C 358.934,351.181 361.767,345.848 364.5,340.5 Z"/></g>
<g><path style="opacity:1" fill="#1c5ba4" d="M 162.5,346.5 C 157.283,346.758 152.116,346.425 147,345.5C 146.5,345.167 146,344.833 145.5,344.5C 148.306,343.832 150.972,343.166 153.5,342.5C 154.376,342.631 155.043,342.298 155.5,341.5C 153.141,340.286 150.808,340.286 148.5,341.5C 144.723,342.331 141.056,342.665 137.5,342.5C 140.458,338.965 139.958,335.965 136,333.5C 134.471,334.729 133.304,336.229 132.5,338C 131.207,338.49 129.873,338.657 128.5,338.5C 129.223,333.761 131.89,330.428 136.5,328.5C 137.159,331.159 138.826,332.826 141.5,333.5C 143.833,331.5 146.167,329.5 148.5,327.5C 149.643,329.959 149.31,332.293 147.5,334.5C 151.332,335.587 154.332,334.421 156.5,331C 153.933,328.365 152.6,325.198 152.5,321.5C 154.783,321.608 156.783,322.441 158.5,324C 163.988,329.654 169.655,335.154 175.5,340.5C 173.172,341.724 170.839,341.724 168.5,340.5C 166.466,337.091 163.966,334.091 161,331.5C 160.955,334.334 160.121,336.834 158.5,339C 160.351,339.837 162.184,340.671 164,341.5C 164.599,343.535 164.099,345.201 162.5,346.5 Z"/></g>
<g><path style="opacity:1" fill="#caddeb" d="M 153.5,342.5 C 151.585,342.784 149.919,342.451 148.5,341.5C 150.808,340.286 153.141,340.286 155.5,341.5C 155.043,342.298 154.376,342.631 153.5,342.5 Z"/></g>
<g><path style="opacity:1" fill="#5e88b6" d="M 348.5,336.5 C 349.398,337.158 350.398,337.824 351.5,338.5C 347.084,338.882 343.084,339.882 339.5,341.5C 338.596,340.791 338.263,339.791 338.5,338.5C 342.179,338.94 345.512,338.273 348.5,336.5 Z"/></g>
<g><path style="opacity:1" fill="#f6faf8" d="M 311.5,307.5 C 314.063,310.803 313.23,313.469 309,315.5C 308.689,316.742 309.189,317.742 310.5,318.5C 309.833,319.167 309.167,319.833 308.5,320.5C 310.76,320.233 313.093,320.733 315.5,322C 313.636,323.406 311.803,323.906 310,323.5C 309.916,331.502 311.083,332.002 313.5,325C 316.379,324.043 318.879,324.543 321,326.5C 322.307,324.808 323.807,323.475 325.5,322.5C 325.374,324.2 324.707,325.7 323.5,327C 323.85,328.257 324.517,328.591 325.5,328C 327.085,324.106 328.085,323.939 328.5,327.5C 320.075,336.742 310.075,343.909 298.5,349C 261.871,364.221 226.871,361.388 193.5,340.5C 192.614,339.675 192.281,338.675 192.5,337.5C 191.041,337.567 189.708,337.234 188.5,336.5C 188.62,335.414 189.287,334.747 190.5,334.5C 191.986,335.309 193.319,335.309 194.5,334.5C 188.301,334.204 187.301,332.037 191.5,328C 192.167,327.333 192.833,327.333 193.5,328C 192.269,329.183 192.269,330.349 193.5,331.5C 194.807,330.184 196.307,329.184 198,328.5C 198.688,327.668 198.521,327.002 197.5,326.5C 196.391,327.59 195.391,327.59 194.5,326.5C 195.462,322.103 197.962,320.77 202,322.5C 203.854,319.989 206.354,318.656 209.5,318.5C 220.355,325.885 232.355,330.218 245.5,331.5C 250.975,332.489 256.642,332.822 262.5,332.5C 262.69,334.959 261.69,336.626 259.5,337.5C 258.596,338.209 258.263,339.209 258.5,340.5C 259.5,340.5 260.5,340.5 261.5,340.5C 262.339,339.359 263.006,338.026 263.5,336.5C 264.689,335.571 266.022,335.238 267.5,335.5C 269.441,337.011 269.941,339.011 269,341.5C 267.391,342.147 265.891,342.98 264.5,344C 270.646,343.143 272.813,345.643 271,351.5C 268.699,352.867 266.199,353.534 263.5,353.5C 263.5,352.167 263.5,350.833 263.5,349.5C 262.5,349.5 261.5,349.5 260.5,349.5C 260.229,351.38 260.896,352.713 262.5,353.5C 266.921,355.309 270.754,354.309 274,350.5C 275.45,346.276 273.95,343.776 269.5,343C 272.446,341.047 273.113,338.547 271.5,335.5C 270.657,333.827 269.324,332.66 267.5,332C 269.852,331.76 271.852,330.927 273.5,329.5C 284.743,326.045 295.076,320.711 304.5,313.5C 305.736,312.754 307.07,312.421 308.5,312.5C 308.273,310.067 309.273,308.401 311.5,307.5 Z"/></g>
<g><path style="opacity:1" fill="#325f9e" d="M 263.5,353.5 C 263.167,353.5 262.833,353.5 262.5,353.5C 260.896,352.713 260.229,351.38 260.5,349.5C 261.5,349.5 262.5,349.5 263.5,349.5C 263.5,350.833 263.5,352.167 263.5,353.5 Z"/></g>
<g><path style="opacity:1" fill="#7695c2" d="M 237.5,351.5 C 237.5,351.833 237.5,352.167 237.5,352.5C 233.339,354.364 230.673,353.031 229.5,348.5C 230.833,348.5 232.167,348.5 233.5,348.5C 233.5,349.5 233.5,350.5 233.5,351.5C 234.833,351.5 236.167,351.5 237.5,351.5 Z"/></g>
<g><path style="opacity:1" fill="#678ab2" d="M 300.5,339.5 C 301.167,340.167 301.833,340.833 302.5,341.5C 299.35,346.074 295.017,347.907 289.5,347C 287.093,344.637 286.926,342.137 289,339.5C 289.614,345.672 292.78,347.172 298.5,344C 300.037,342.89 300.703,341.39 300.5,339.5 Z"/></g>
<g><path style="opacity:1" fill="#688eb3" d="M 211.5,343.5 C 212.574,344.885 213.907,346.051 215.5,347C 212.549,347.022 209.883,346.189 207.5,344.5C 208.959,344.567 210.292,344.234 211.5,343.5 Z"/></g>
<g><path style="opacity:1" fill="#3761a5" d="M 242.5,335.5 C 243.458,335.953 244.292,336.619 245,337.5C 246.553,344.742 244.053,349.742 237.5,352.5C 237.5,352.167 237.5,351.833 237.5,351.5C 241.537,349.684 242.204,347.351 239.5,344.5C 241.856,342.443 242.856,339.776 242.5,336.5C 242.5,336.167 242.5,335.833 242.5,335.5 Z"/></g>
<g><path style="opacity:1" fill="#5478b0" d="M 267.5,335.5 C 268.632,334.646 269.965,334.646 271.5,335.5C 273.113,338.547 272.446,341.047 269.5,343C 273.95,343.776 275.45,346.276 274,350.5C 270.754,354.309 266.921,355.309 262.5,353.5C 262.833,353.5 263.167,353.5 263.5,353.5C 266.199,353.534 268.699,352.867 271,351.5C 272.813,345.643 270.646,343.143 264.5,344C 265.891,342.98 267.391,342.147 269,341.5C 269.941,339.011 269.441,337.011 267.5,335.5 Z"/></g>
<g><path style="opacity:1" fill="#f0f7f6" d="M 235.5,334.5 C 238.188,334.166 240.521,334.832 242.5,336.5C 242.856,339.776 241.856,342.443 239.5,344.5C 233.501,344.998 231.334,342.331 233,336.5C 233.708,335.619 234.542,334.953 235.5,334.5 Z"/></g>
<g><path style="opacity:1" fill="#496fab" d="M 234.5,333.5 C 235.167,333.5 235.5,333.833 235.5,334.5C 234.542,334.953 233.708,335.619 233,336.5C 231.334,342.331 233.501,344.998 239.5,344.5C 232.345,346.665 229.178,343.998 230,336.5C 231.129,334.859 232.629,333.859 234.5,333.5 Z"/></g>
<g><path style="opacity:1" fill="#4e78af" d="M 259.5,337.5 C 261.048,337.821 261.715,338.821 261.5,340.5C 260.5,340.5 259.5,340.5 258.5,340.5C 258.263,339.209 258.596,338.209 259.5,337.5 Z"/></g>
<g><path style="opacity:1" fill="#3360a3" d="M 295.5,327.5 C 299.14,329.102 299.473,331.435 296.5,334.5C 300.696,335.025 302.696,337.359 302.5,341.5C 301.833,340.833 301.167,340.167 300.5,339.5C 300.389,338.883 300.056,338.383 299.5,338C 294.771,337.727 290.104,337.061 285.5,336C 284.663,334.989 284.33,333.822 284.5,332.5C 285.167,332.833 285.833,333.167 286.5,333.5C 287.334,334.748 288.667,335.415 290.5,335.5C 295.695,335.117 297.362,332.451 295.5,327.5 Z"/></g>
<g><path style="opacity:1" fill="#83a7c6" d="M 234.5,333.5 C 237.618,331.993 240.285,332.66 242.5,335.5C 242.5,335.833 242.5,336.167 242.5,336.5C 240.521,334.832 238.188,334.166 235.5,334.5C 235.5,333.833 235.167,333.5 234.5,333.5 Z"/></g>
<g><path style="opacity:1" fill="#2856a1" d="M 216.5,327.5 C 217.043,327.56 217.376,327.893 217.5,328.5C 215.764,333.634 213.764,338.634 211.5,343.5C 210.292,344.234 208.959,344.567 207.5,344.5C 210.405,339.792 212.739,334.792 214.5,329.5C 215.167,328.833 215.833,328.167 216.5,327.5 Z"/></g>
<g><path style="opacity:1" fill="#cde0ee" d="M 273.5,329.5 C 271.852,330.927 269.852,331.76 267.5,332C 269.324,332.66 270.657,333.827 271.5,335.5C 269.965,334.646 268.632,334.646 267.5,335.5C 266.022,335.238 264.689,335.571 263.5,336.5C 263.006,338.026 262.339,339.359 261.5,340.5C 261.715,338.821 261.048,337.821 259.5,337.5C 261.69,336.626 262.69,334.959 262.5,332.5C 256.642,332.822 250.975,332.489 245.5,331.5C 254.915,331.792 264.248,331.125 273.5,329.5 Z"/></g>
<g><path style="opacity:1" fill="#2b61a7" d="M 339.5,341.5 C 343.084,339.882 347.084,338.882 351.5,338.5C 350.398,337.824 349.398,337.158 348.5,336.5C 347.817,334.824 346.483,334.157 344.5,334.5C 344.915,332.253 345.582,330.086 346.5,328C 345.841,325.538 345.507,323.038 345.5,320.5C 348.943,320.353 350.943,322.02 351.5,325.5C 352.845,324.653 353.845,323.487 354.5,322C 355.5,321.333 356.5,321.333 357.5,322C 359.101,325.267 359.934,328.767 360,332.5C 361.512,330.043 362.846,330.043 364,332.5C 365.115,336.484 364.115,339.818 361,342.5C 360.667,340.5 360.333,338.5 360,336.5C 359.62,342.605 357.453,347.938 353.5,352.5C 349.485,353.063 346.485,351.396 344.5,347.5C 347.273,346.069 349.439,346.736 351,349.5C 352.333,347.5 353.667,345.5 355,343.5C 355.808,341.421 355.641,339.421 354.5,337.5C 353.056,339.608 352.39,341.941 352.5,344.5C 347.83,344.489 343.497,343.489 339.5,341.5 Z"/></g>
<g><path style="opacity:1" fill="#cde0ef" d="M 352.5,328.5 C 353.5,328.5 354.5,328.5 355.5,328.5C 355.5,329.5 355.5,330.5 355.5,331.5C 354.5,331.5 353.5,331.5 352.5,331.5C 352.5,330.5 352.5,329.5 352.5,328.5 Z"/></g>
<g><path style="opacity:1" fill="#eef5f3" d="M 295.5,327.5 C 297.362,332.451 295.695,335.117 290.5,335.5C 288.667,335.415 287.334,334.748 286.5,333.5C 287.506,328.813 290.506,326.813 295.5,327.5 Z"/></g>
<g><path style="opacity:1" fill="#6b8bb1" d="M 295.5,327.5 C 290.506,326.813 287.506,328.813 286.5,333.5C 285.833,333.167 285.167,332.833 284.5,332.5C 286.655,327.253 290.322,325.586 295.5,327.5 Z"/></g>
<g><path style="opacity:1" fill="#779dc3" d="M 216.5,327.5 C 215.833,328.167 215.167,328.833 214.5,329.5C 213.027,328.928 211.693,328.095 210.5,327C 212.488,326.82 214.488,326.986 216.5,327.5 Z"/></g>
<g><path style="opacity:1" fill="#b8cbdc" d="M 334.5,321.5 C 332.806,323.861 330.806,325.861 328.5,327.5C 328.085,323.939 327.085,324.106 325.5,328C 324.517,328.591 323.85,328.257 323.5,327C 324.707,325.7 325.374,324.2 325.5,322.5C 326.822,322.33 327.989,322.663 329,323.5C 329.833,322.5 330.667,321.5 331.5,320.5C 332.417,321.127 333.417,321.461 334.5,321.5 Z"/></g>
<g><path style="opacity:1" fill="#d0d8e0" d="M 314.5,303.5 C 314.939,307.106 316.939,309.272 320.5,310C 319.051,311.117 317.384,311.784 315.5,312C 314.667,313.5 313.5,314.667 312,315.5C 311.437,316.725 311.77,317.725 313,318.5C 314.011,317.663 315.178,317.33 316.5,317.5C 316.5,318.5 316.5,319.5 316.5,320.5C 319.247,320.813 321.914,320.48 324.5,319.5C 325.705,317.862 327.038,317.529 328.5,318.5C 327.174,319.642 326.174,320.976 325.5,322.5C 323.807,323.475 322.307,324.808 321,326.5C 318.879,324.543 316.379,324.043 313.5,325C 311.083,332.002 309.916,331.502 310,323.5C 311.803,323.906 313.636,323.406 315.5,322C 313.093,320.733 310.76,320.233 308.5,320.5C 309.167,319.833 309.833,319.167 310.5,318.5C 309.189,317.742 308.689,316.742 309,315.5C 313.23,313.469 314.063,310.803 311.5,307.5C 312.026,305.77 313.026,304.436 314.5,303.5 Z"/></g>
<g><path style="opacity:1" fill="#85a8cf" d="M 228.5,313.5 C 229.434,314.568 229.768,315.901 229.5,317.5C 224.637,317.819 219.97,317.486 215.5,316.5C 219.833,316.5 224.167,316.5 228.5,316.5C 228.5,315.5 228.5,314.5 228.5,313.5 Z"/></g>
<g><path style="opacity:1" fill="#d1dae3" d="M 178.5,327.5 C 177.167,326.833 176.167,325.833 175.5,324.5C 177.117,323.411 177.95,321.744 178,319.5C 178.333,320.833 178.667,322.167 179,323.5C 179.388,322.572 180.055,321.905 181,321.5C 184.17,322.676 185.336,321.676 184.5,318.5C 183.5,319.167 182.5,319.833 181.5,320.5C 181.167,320.167 180.833,319.833 180.5,319.5C 182.117,317.368 182.617,315.035 182,312.5C 181.815,316.49 179.982,317.823 176.5,316.5C 179.134,314.024 181.134,311.19 182.5,308C 185.227,307.182 187.894,307.348 190.5,308.5C 190.167,309.167 189.833,309.833 189.5,310.5C 192.087,310.183 193.92,311.517 195,314.5C 195.779,313.272 196.779,312.272 198,311.5C 198.5,311.833 199,312.167 199.5,312.5C 196.522,316.597 192.522,318.93 187.5,319.5C 187.5,320.833 187.5,322.167 187.5,323.5C 184.729,323.421 182.063,323.921 179.5,325C 178.748,325.671 178.414,326.504 178.5,327.5 Z"/></g>
<g><path style="opacity:1" fill="#4f6299" d="M 375.5,302.5 C 376.833,302.5 378.167,302.5 379.5,302.5C 379.886,304.937 381.053,306.937 383,308.5C 383.667,309.5 383.667,310.5 383,311.5C 380.636,308.31 378.136,305.31 375.5,302.5 Z"/></g>
<g><path style="opacity:1" fill="#dbe4e9" d="M 340.5,313.5 C 338.975,316.563 336.975,319.23 334.5,321.5C 333.665,320.057 332.332,319.057 330.5,318.5C 331.815,316.684 333.315,315.017 335,313.5C 335.663,308.999 335.163,308.665 333.5,312.5C 331.709,311.076 329.875,309.742 328,308.5C 327.363,310.303 326.197,311.636 324.5,312.5C 323.167,310.167 321.833,307.833 320.5,305.5C 319.522,305.977 318.689,306.643 318,307.5C 320.58,300.625 322.914,300.958 325,308.5C 325.892,305.727 327.725,304.06 330.5,303.5C 330.281,304.675 330.614,305.675 331.5,306.5C 334.177,304.155 336.51,301.488 338.5,298.5C 339.5,297.167 340.5,297.167 341.5,298.5C 340.357,302.846 339.357,307.18 338.5,311.5C 338.747,312.713 339.414,313.38 340.5,313.5 Z"/></g>
<g><path style="opacity:1" fill="#8694ca" d="M 387.5,300.5 C 387.539,301.756 387.039,302.756 386,303.5C 384.644,302.62 383.144,302.286 381.5,302.5C 383.374,301.715 385.374,301.048 387.5,300.5 Z"/></g>
<g><path style="opacity:1" fill="#293085" d="M 387.5,300.5 C 385.374,301.048 383.374,301.715 381.5,302.5C 380.833,302.5 380.167,302.5 379.5,302.5C 378.167,302.5 376.833,302.5 375.5,302.5C 373.91,302.372 372.577,301.705 371.5,300.5C 372,300.167 372.5,299.833 373,299.5C 377.978,300.018 382.811,300.351 387.5,300.5 Z"/></g>
<g><path style="opacity:0.599" fill="#4d7aaf" d="M 286.5,419.5 C 282.699,420.639 278.699,421.472 274.5,422C 260.833,422.667 247.167,422.667 233.5,422C 231.292,421.809 229.292,421.309 227.5,420.5C 247.317,422.074 266.984,421.741 286.5,419.5 Z"/></g>
</svg>
